<svg xmlns="http://www.w3.org/2000/svg" width="48" height="48" viewBox="0 0 48 48"><g transform="translate(-6.625 -6.392)"><path d="M46.334,26.218A11.693,11.693,0,1,1,47.256,47.8L36.272,43.794,40.282,32.81a11.656,11.656,0,0,1,6.052-6.592Zm1.644,3.534-.169.081-.167.085-.165.089-.163.093-.16.1L47,30.3l-.156.1-.153.108-.151.112-.148.116-.145.119q-.072.061-.143.123t-.14.127q-.069.064-.137.13t-.134.134q-.066.068-.131.137t-.128.141q-.063.071-.125.144t-.121.147q-.06.075-.118.151t-.115.154q-.056.078-.111.157t-.107.161q-.053.081-.1.164t-.1.167q-.049.084-.1.17t-.092.173q-.045.087-.088.176t-.084.179q-.041.09-.08.182t-.076.185q-.037.093-.071.188L41.27,41.469l7.323,2.673.19.067.19.061.191.056.191.051.192.046.192.041.192.036.192.031.192.026.192.021.192.016.192.012.191.007.191,0,.19,0,.19-.007.189-.012.189-.016.188-.021.187-.025.186-.03.185-.034.184-.039.183-.043.181-.048.18-.052.179-.056.177-.06.176-.064.174-.069.172-.073.171-.077.169-.081.167-.085.165-.089.163-.093.16-.1.158-.1.156-.1.153-.108.151-.112.148-.116.145-.119q.072-.061.143-.123t.14-.127q.069-.064.137-.13t.134-.134q.066-.068.131-.137t.128-.141q.063-.071.125-.144t.121-.147q.06-.075.118-.151t.115-.154q.056-.078.111-.157t.107-.161q.053-.081.1-.164t.1-.167q.049-.084.1-.17t.092-.173q.045-.087.088-.176t.084-.179q.041-.09.08-.182t.076-.185q.037-.093.071-.188t.067-.19q.032-.1.061-.19t.056-.191q.027-.1.051-.191t.046-.192q.022-.1.041-.192t.036-.192q.017-.1.031-.192T59,37.77q.012-.1.021-.192t.016-.192q.007-.1.012-.192T59.061,37q0-.1,0-.191t0-.191q0-.1-.007-.19t-.012-.189q-.007-.094-.016-.189T59,35.867q-.012-.094-.025-.187t-.03-.186q-.016-.093-.034-.185t-.039-.184q-.021-.092-.043-.183t-.048-.182q-.025-.09-.052-.18t-.056-.179q-.029-.089-.06-.177t-.065-.176q-.033-.087-.069-.174T58.41,33.7q-.037-.086-.077-.17t-.081-.169q-.041-.084-.085-.167t-.089-.165q-.045-.082-.093-.162t-.1-.16q-.049-.08-.1-.158t-.1-.156q-.053-.077-.108-.153t-.112-.151q-.057-.075-.116-.148t-.119-.145q-.061-.072-.123-.143t-.127-.14q-.064-.069-.13-.137t-.134-.134q-.068-.066-.137-.131t-.141-.128q-.071-.063-.144-.125t-.147-.121q-.075-.06-.151-.118l-.154-.114-.157-.111-.161-.107-.164-.1-.167-.1-.17-.1-.173-.092-.176-.088-.179-.084-.182-.08-.185-.076-.188-.071-.19-.067-.19-.061-.191-.056-.191-.051-.192-.046-.192-.041-.192-.036-.192-.031-.192-.026-.192-.021-.192-.016-.192-.012-.191-.007c-.064,0-.127,0-.191,0l-.19,0-.19.007-.189.012-.189.016-.188.021-.187.026-.186.03-.185.034-.184.039-.183.043-.181.048-.18.052-.179.056-.177.06-.176.064-.174.069-.172.073-.171.077Z" transform="translate(-8.336 -5.416)" fill="#118ab2"/><path d="M19.149,21.234A6.746,6.746,0,1,0,25.9,27.98a6.746,6.746,0,0,0-6.746-6.746Zm0,3.9h.073l.073,0,.073,0,.073.007.073.008.073.01.072.012.072.014.072.016.071.018.071.02.07.021.07.023.069.025.068.027.068.029.067.03.066.032.065.034.064.035.063.037.062.039.061.04.06.042.059.043.058.045.057.046.056.048.054.049.053.051.052.052.051.053.049.054.048.056.046.057.045.058.043.059.042.06.04.061.039.062.037.063.035.064.034.065.032.066.03.067.029.068.027.068.025.069.023.07q.011.035.021.07t.02.071q.009.035.018.071t.016.072q.008.036.014.072t.012.072q.006.036.01.073t.008.073q0,.036.007.073t0,.073q0,.037,0,.073t0,.073q0,.106-.008.213t-.024.212q-.016.105-.04.209t-.055.206q-.031.1-.07.2t-.085.2q-.046.1-.1.188t-.113.18q-.06.088-.126.171t-.139.161q-.072.078-.151.151t-.161.139q-.083.066-.171.126t-.18.113q-.092.053-.188.1t-.2.085q-.1.039-.2.07t-.206.055q-.1.024-.209.04t-.212.024q-.106.008-.213.008t-.213-.008q-.106-.008-.212-.024t-.209-.04q-.1-.024-.206-.055t-.2-.07q-.1-.039-.2-.085t-.188-.1q-.092-.053-.18-.113t-.171-.126q-.083-.066-.161-.139t-.151-.151q-.072-.078-.139-.161t-.126-.171q-.06-.088-.113-.18t-.1-.188q-.046-.1-.085-.2t-.07-.2q-.031-.1-.055-.206t-.04-.209q-.016-.105-.024-.212T16.3,27.98q0-.106.008-.213t.024-.212q.016-.105.04-.209t.055-.206q.031-.1.07-.2t.085-.2q.046-.1.1-.188t.113-.18q.06-.088.126-.171t.139-.161q.072-.078.151-.151t.161-.139q.083-.066.171-.126t.18-.113q.092-.053.188-.1t.2-.085q.1-.039.2-.07t.206-.055q.1-.024.209-.04t.212-.024q.106-.008.213-.008Z" transform="translate(-1.551 -4.205)" fill="#00a7bc"/><path d="M45.916,6.393a6.746,6.746,0,1,0,6.746,6.746,6.746,6.746,0,0,0-6.746-6.746Zm0,3.9h.073l.073,0,.073,0,.073.007.073.008.073.01.072.012.072.014.072.016.071.018.071.02.07.021.07.023.069.025.068.027.068.029.067.03.066.032.065.034.064.035.063.037.062.039.061.04.06.042.059.043.058.045.057.046L47.8,11l.054.049.053.051.052.052.051.053.049.054.048.056.046.057.045.058.043.059.042.06.04.061.039.062.037.063.035.064.034.065.032.066.03.067.029.068.027.068.025.069.023.07q.011.035.021.07t.02.071q.009.035.018.071t.016.072q.008.036.014.072t.012.072q.006.036.01.073t.008.073q0,.036.007.073t0,.073q0,.037,0,.073t0,.073q0,.106-.008.213t-.024.212q-.016.105-.04.209t-.055.206q-.031.1-.07.2t-.085.2q-.046.1-.1.188t-.113.18q-.06.088-.126.171T48,15.075q-.072.078-.151.151t-.161.139q-.083.066-.171.126t-.18.113q-.092.053-.188.1t-.2.085q-.1.039-.2.07t-.206.055q-.1.024-.209.04t-.212.024q-.106.008-.213.008t-.213-.008q-.106-.008-.212-.024t-.209-.04q-.1-.024-.206-.055t-.2-.07q-.1-.039-.2-.085t-.188-.1q-.092-.053-.18-.113t-.171-.126q-.083-.066-.161-.139t-.151-.151q-.072-.078-.139-.161t-.126-.171q-.06-.088-.113-.18t-.1-.188q-.046-.1-.085-.2t-.07-.2q-.031-.1-.055-.206t-.04-.209q-.016-.105-.024-.212t-.008-.213q0-.107.008-.213t.024-.212q.016-.105.04-.209t.055-.206q.031-.1.07-.2t.085-.2q.046-.1.1-.188t.113-.18q.06-.088.126-.171t.139-.161q.072-.078.151-.151t.161-.139q.083-.066.171-.126t.18-.113q.092-.053.188-.1t.2-.085q.1-.039.2-.07t.206-.055q.1-.024.209-.04T45.7,10.3q.106-.008.213-.008Z" transform="translate(-8.993 0)" fill="#118ab2"/><path d="M13.389,42.105A11.693,11.693,0,1,0,29.3,56.716l4.009-10.984L22.33,41.723a11.656,11.656,0,0,0-8.941.382Zm1.644,3.534.171-.077.172-.073.174-.069.176-.064.177-.06.179-.056.18-.052.181-.048.183-.043.184-.039.185-.034.186-.03.187-.026.188-.021.189-.016.189-.012.19-.007.19,0,.191,0,.191.007.192.012.192.016.192.021.192.026.192.031.192.036.192.041.192.046.191.051.191.056.19.061.19.067,7.323,2.673L25.643,55.38q-.035.095-.071.188t-.076.185q-.039.092-.08.182t-.084.179q-.043.089-.088.176t-.092.173q-.047.086-.1.17t-.1.167q-.051.083-.1.164t-.107.161q-.055.08-.111.157t-.115.154q-.058.076-.118.151t-.121.147q-.061.073-.125.144t-.128.141q-.065.069-.131.137t-.134.134q-.068.066-.137.13t-.14.127q-.071.062-.143.123t-.145.119l-.148.116-.151.112-.153.108-.156.1-.158.1-.16.1-.163.093-.165.089-.167.085-.169.081-.171.077-.172.073-.174.069-.176.064-.177.06-.179.056-.18.052-.181.048-.183.043-.184.039-.185.034-.186.03-.187.025-.188.021-.189.016-.189.012-.19.007-.19,0-.191,0-.191-.007-.192-.012-.192-.016-.192-.021-.192-.026-.192-.031-.192-.036-.192-.041-.192-.046-.191-.051-.191-.056-.19-.061-.19-.067-.188-.071-.185-.076-.182-.08-.179-.084-.176-.088-.173-.092-.17-.1-.167-.1-.164-.1-.161-.107-.157-.111q-.078-.056-.154-.114t-.151-.118q-.075-.06-.147-.121t-.144-.125q-.071-.063-.141-.128t-.137-.131q-.068-.066-.134-.134t-.13-.137q-.064-.069-.127-.14t-.123-.143q-.061-.072-.119-.146t-.116-.148q-.057-.075-.112-.151t-.108-.153q-.053-.077-.1-.156t-.1-.158q-.049-.08-.1-.16t-.093-.162q-.045-.082-.089-.165t-.085-.167q-.041-.084-.081-.169t-.077-.171q-.037-.086-.073-.172t-.069-.174Q11,55.391,10.97,55.3t-.06-.177q-.029-.089-.056-.179t-.052-.18q-.025-.09-.048-.182t-.043-.183q-.021-.092-.039-.184t-.034-.185q-.016-.093-.03-.186t-.025-.187q-.012-.094-.021-.188t-.016-.189q-.007-.094-.012-.189t-.007-.19q0-.1,0-.191t0-.191c0-.064,0-.127.007-.191s.007-.128.012-.192.01-.128.016-.192.013-.128.021-.192.017-.128.026-.192.02-.128.031-.192.023-.128.036-.192.027-.128.041-.192.03-.128.046-.192.033-.128.051-.191.037-.127.056-.191.04-.127.061-.19.044-.127.067-.19.047-.126.071-.188.05-.124.076-.185.053-.122.08-.182.055-.12.084-.179.058-.118.088-.176.061-.116.092-.173.063-.114.1-.17.066-.112.1-.167.068-.11.1-.164.071-.108.107-.161.073-.105.111-.157.076-.1.115-.154.078-.1.118-.151.08-.1.121-.147.083-.1.125-.144.085-.094.128-.141.087-.092.131-.137.089-.09.134-.134.091-.087.137-.13.093-.085.14-.127.095-.083.143-.123l.145-.119.148-.116.151-.112.153-.108.156-.1.158-.1.16-.1.163-.093L14.7,45.8l.167-.085.169-.081Z" transform="translate(0 -10.011)" fill="#00a7bc"/></g></svg>