<svg xmlns="http://www.w3.org/2000/svg" width="48" height="48" viewBox="0 0 48 48">
  <g id="Group_422" data-name="Group 422" transform="translate(-1128 -8297)">
    <rect id="Rectangle_51" data-name="Rectangle 51" width="48" height="48" transform="translate(1128 8297)" fill="#118ab2" opacity="0"/>
    <g id="Group_421" data-name="Group 421" transform="translate(1128 8297)">
      <path id="Path_392" data-name="Path 392" d="M0,0H48V48H0Z" fill="none"/>
      <path id="Path_393" data-name="Path 393" d="M39.04,8H35V3.96A1.963,1.963,0,0,0,33.04,2h-.06A1.968,1.968,0,0,0,31,3.96V8H26.98A1.994,1.994,0,0,0,25,9.96v.06A1.972,1.972,0,0,0,26.98,12H31v4.02a1.955,1.955,0,0,0,1.98,1.96h.06A1.963,1.963,0,0,0,35,16.02V12h4.04A1.963,1.963,0,0,0,41,10.04V9.96A1.963,1.963,0,0,0,39.04,8ZM29,16.02V14H26.98A3.962,3.962,0,0,1,23,9.96,3.842,3.842,0,0,1,23.54,8H7a4.012,4.012,0,0,0-4,4V36a4.012,4.012,0,0,0,4,4H31a4.012,4.012,0,0,0,4-4V19.44a4.1,4.1,0,0,1-2.04.56A4,4,0,0,1,29,16.02ZM28.92,36H9a1,1,0,0,1-.8-1.6l3.96-5.26a1.011,1.011,0,0,1,1.64.04L17,34l5.22-6.96a1,1,0,0,1,1.58-.02l5.9,7.36A1,1,0,0,1,28.92,36Z" transform="translate(3 2)" fill="#118ab2"/>
    </g>
  </g>
</svg>
