<svg xmlns="http://www.w3.org/2000/svg" xmlns:xlink="http://www.w3.org/1999/xlink" width="32" height="32" viewBox="0 0 32 32"><defs><clipPath id="a"><rect width="32" height="32" transform="translate(0 0.452)" fill="#878787"/></clipPath></defs><g transform="translate(0 -0.452)" clip-path="url(#a)"><g transform="translate(0 0)"><rect width="32" height="32" transform="translate(0 0.452)" fill="none"/><g transform="translate(6.598 3.888)"><path d="M25.836,7.639V26.115l-5.015-3.827L19.238,21.1l-1.584,1.188-5.015,3.827V7.639h13.2M11.32,5A1.32,1.32,0,0,0,10,6.32V28.754a1.32,1.32,0,0,0,1.32,1.32,1.584,1.584,0,0,0,.924-.33L19.238,24.4l6.994,5.345a1.584,1.584,0,0,0,.924.33,1.32,1.32,0,0,0,1.32-1.32V6.32A1.32,1.32,0,0,0,27.156,5Z" transform="translate(-10 -5)" fill="#878787"/></g></g></g></svg>