<svg xmlns="http://www.w3.org/2000/svg" xmlns:xlink="http://www.w3.org/1999/xlink" width="48" height="48" viewBox="0 0 48 48">
  <defs>
    <clipPath id="clip-path">
      <rect id="Rectangle_51" data-name="Rectangle 51" width="48" height="48" transform="translate(232 8049)" fill="#878787"/>
    </clipPath>
  </defs>
  <g id="Mask_Group_59" data-name="Mask Group 59" transform="translate(-232 -8049)" clip-path="url(#clip-path)">
    <g id="Layer_2" data-name="Layer 2" transform="translate(232 8049)">
      <g id="invisible_box" data-name="invisible box">
        <rect id="Rectangle_269" data-name="Rectangle 269" width="48" height="48" fill="none"/>
      </g>
      <g id="icons_Q2" data-name="icons Q2">
        <path id="Path_300" data-name="Path 300" d="M24,2A21.9,21.9,0,1,0,39.586,8.414,22,22,0,0,0,24,2Zm8.3,27.5a2.1,2.1,0,0,1,.4,2.7,2,2,0,0,1-3.1.2L24,26.8l-5.6,5.6a2,2,0,0,1-3.1-.2,2.1,2.1,0,0,1,.4-2.7L21.2,24l-5.5-5.5a2.2,2.2,0,0,1-.4-2.7,2,2,0,0,1,3.1-.2L24,21.2l5.6-5.6a2,2,0,0,1,3.1.2,2.2,2.2,0,0,1-.4,2.7L26.8,24Z" fill="#878787"/>
      </g>
    </g>
  </g>
</svg>
