<svg xmlns="http://www.w3.org/2000/svg" xmlns:xlink="http://www.w3.org/1999/xlink" width="48" height="48" viewBox="0 0 48 48">
  <defs>
    <clipPath id="clip-path">
      <rect id="Rectangle_51" data-name="Rectangle 51" width="48" height="48" transform="translate(616 8049)" fill="#118ab2"/>
    </clipPath>
  </defs>
  <g id="Mask_Group_37" data-name="Mask Group 37" transform="translate(-616 -8049)" clip-path="url(#clip-path)">
    <g id="Layer_2" data-name="Layer 2" transform="translate(616 8049)">
      <g id="invisible_box" data-name="invisible box">
        <rect id="Rectangle_154" data-name="Rectangle 154" width="48" height="48" fill="none"/>
      </g>
      <g id="icons_Q2" data-name="icons Q2">
        <path id="Path_236" data-name="Path 236" d="M26.8,24,37.4,13.5a2.1,2.1,0,0,0,.2-2.7,1.9,1.9,0,0,0-3-.2L24,21.2,13.4,10.6a1.9,1.9,0,0,0-3,.2,2.1,2.1,0,0,0,.2,2.7L21.2,24,10.6,34.5a2.1,2.1,0,0,0-.2,2.7,1.9,1.9,0,0,0,3,.2L24,26.8,34.6,37.4a1.9,1.9,0,0,0,3-.2,2.1,2.1,0,0,0-.2-2.7Z" fill="#118ab2"/>
      </g>
    </g>
  </g>
</svg>
