<svg xmlns="http://www.w3.org/2000/svg" xmlns:xlink="http://www.w3.org/1999/xlink" width="24" height="24" viewBox="0 0 24 24"><defs><clipPath id="a"><rect width="24" height="24" transform="translate(615.599 8049)" fill="#2c2c2c"/></clipPath></defs><g transform="translate(-615.599 -8049)" clip-path="url(#a)"><g transform="translate(615.599 8049)"><g transform="translate(0)"><rect width="24" height="24" transform="translate(0 0)" fill="none"/></g><g transform="translate(5.232 4.919)"><path d="M18.3,16.894l5.236-5.186a1.037,1.037,0,0,0,.1-1.334.938.938,0,0,0-1.482-.1l-5.236,5.236L11.68,10.276a.938.938,0,0,0-1.482.1,1.037,1.037,0,0,0,.1,1.334l5.236,5.186L10.3,22.08a1.037,1.037,0,0,0-.1,1.334.938.938,0,0,0,1.482.1l5.236-5.236,5.236,5.236a.938.938,0,0,0,1.482-.1,1.037,1.037,0,0,0-.1-1.334Z" transform="translate(-10.001 -9.959)" fill="#2c2c2c"/></g></g></g></svg>