<svg xmlns="http://www.w3.org/2000/svg" xmlns:xlink="http://www.w3.org/1999/xlink" width="48" height="48" viewBox="0 0 48 48">
  <defs>
    <clipPath id="clip-path">
      <rect id="Rectangle_327" data-name="Rectangle 327" width="48" height="48" transform="translate(872 8173)" fill="#118ab2"/>
    </clipPath>
  </defs>
  <g id="Mask_Group_81" data-name="Mask Group 81" transform="translate(-872 -8173)" clip-path="url(#clip-path)">
    <g id="Layer_2" data-name="Layer 2" transform="translate(872 8173)">
      <g id="invisible_box" data-name="invisible box">
        <rect id="Rectangle_328" data-name="Rectangle 328" width="48" height="48" fill="none"/>
      </g>
      <g id="icons_Q2" data-name="icons Q2">
        <path id="Path_328" data-name="Path 328" d="M18,34v6H10V34h8m2-4H8a2,2,0,0,0-2,2V42a2,2,0,0,0,2,2H20a2,2,0,0,0,2-2V32A2,2,0,0,0,20,30Z" fill="#118ab2"/>
        <path id="Path_329" data-name="Path 329" d="M18,8V22H10V8h8m2-4H8A2,2,0,0,0,6,6V24a2,2,0,0,0,2,2H20a2,2,0,0,0,2-2V6A2,2,0,0,0,20,4Z" fill="#118ab2"/>
        <path id="Path_330" data-name="Path 330" d="M38,8v6H30V8h8m2-4H28a2,2,0,0,0-2,2V16a2,2,0,0,0,2,2H40a2,2,0,0,0,2-2V6A2,2,0,0,0,40,4Z" fill="#118ab2"/>
        <path id="Path_331" data-name="Path 331" d="M38,26V40H30V26h8m2-4H28a2,2,0,0,0-2,2V42a2,2,0,0,0,2,2H40a2,2,0,0,0,2-2V24A2,2,0,0,0,40,22Z" fill="#118ab2"/>
      </g>
    </g>
  </g>
</svg>
