<svg xmlns="http://www.w3.org/2000/svg" xmlns:xlink="http://www.w3.org/1999/xlink" width="32" height="32" viewBox="0 0 32 32"><defs><clipPath id="a"><rect width="32" height="32" transform="translate(872 8173)" fill="#878787"/></clipPath></defs><g transform="translate(-872 -8173)" clip-path="url(#a)"><g transform="translate(872 8173)"><rect width="32" height="32" fill="none"/><g transform="translate(3.947 2.631)"><path d="M13.893,32.631v3.947H8.631V32.631h5.262M15.209,30H7.316A1.316,1.316,0,0,0,6,31.316v6.578a1.316,1.316,0,0,0,1.316,1.316h7.893a1.316,1.316,0,0,0,1.316-1.316V31.316A1.316,1.316,0,0,0,15.209,30Z" transform="translate(-6 -12.898)" fill="#878787"/><path d="M13.893,6.631V15.84H8.631V6.631h5.262M15.209,4H7.316A1.316,1.316,0,0,0,6,5.316v11.84a1.316,1.316,0,0,0,1.316,1.316h7.893a1.316,1.316,0,0,0,1.316-1.316V5.316A1.316,1.316,0,0,0,15.209,4Z" transform="translate(-6 -4)" fill="#878787"/><path d="M33.893,6.631v3.947H28.631V6.631h5.262M35.209,4H27.316A1.316,1.316,0,0,0,26,5.316v6.578a1.316,1.316,0,0,0,1.316,1.316h7.893a1.316,1.316,0,0,0,1.316-1.316V5.316A1.316,1.316,0,0,0,35.209,4Z" transform="translate(-12.844 -4)" fill="#878787"/><path d="M33.893,24.631V33.84H28.631V24.631h5.262M35.209,22H27.316A1.316,1.316,0,0,0,26,23.316v11.84a1.316,1.316,0,0,0,1.316,1.316h7.893a1.316,1.316,0,0,0,1.316-1.316V23.316A1.316,1.316,0,0,0,35.209,22Z" transform="translate(-12.844 -10.16)" fill="#878787"/></g></g></g></svg>