<svg xmlns="http://www.w3.org/2000/svg" xmlns:xlink="http://www.w3.org/1999/xlink" width="48" height="48" viewBox="0 0 48 48">
  <defs>
    <clipPath id="clip-path">
      <rect id="Rectangle_754" data-name="Rectangle 754" width="48" height="48" transform="translate(1384 9389)" fill="#118ab2"/>
    </clipPath>
  </defs>
  <g id="Mask_Group_146" data-name="Mask Group 146" transform="translate(-1384 -9389)" clip-path="url(#clip-path)">
    <g id="Layer_2" data-name="Layer 2" transform="translate(1384 9389)">
      <g id="invisible_box" data-name="invisible box">
        <rect id="Rectangle_753" data-name="Rectangle 753" width="48" height="48" fill="none"/>
      </g>
      <g id="icons_Q2" data-name="icons Q2">
        <path id="Path_991" data-name="Path 991" d="M45,24l-.5-8h0C44,8,38.9,4,33,4H28c-2.4,0-7.1,2.6-8.5,3.6a1.6,1.6,0,0,1-1.2.4H17V28.4c3.3,2.4,9,14.4,9,14.4A2,2,0,0,0,27.5,44h.3c3.2-.9,4.2-4.8,3.6-9.7L31,31h7a6.7,6.7,0,0,0,7-7ZM5,28h8V8H5a2,2,0,0,0-2,2V26A2,2,0,0,0,5,28Z" fill="#118ab2"/>
      </g>
    </g>
  </g>
</svg>
