<svg xmlns="http://www.w3.org/2000/svg" xmlns:xlink="http://www.w3.org/1999/xlink" width="48" height="48" viewBox="0 0 48 48">
  <defs>
    <clipPath id="clip-path">
      <rect id="Rectangle_762" data-name="Rectangle 762" width="48" height="48" transform="translate(1640 9389)" fill="#118ab2" stroke="#707070" stroke-width="1"/>
    </clipPath>
  </defs>
  <g id="Mask_Group_150" data-name="Mask Group 150" transform="translate(-1640 -9389)" clip-path="url(#clip-path)">
    <g id="Layer_2" data-name="Layer 2" transform="translate(1640 9389)">
      <g id="invisible_box" data-name="invisible box">
        <rect id="Rectangle_761" data-name="Rectangle 761" width="48" height="48" fill="none"/>
      </g>
      <g id="icons_Q2" data-name="icons Q2">
        <g id="Group_1543" data-name="Group 1543">
          <path id="Path_995" data-name="Path 995" d="M45.3,22.1C43.2,19.5,35.4,11,24,11a23.4,23.4,0,0,0-3.8.3L23.8,15H24c8.8,0,15.3,6.2,17.7,9a33.7,33.7,0,0,1-4.6,4.3l2.8,2.8a30.1,30.1,0,0,0,5.4-5.2,3,3,0,0,0,0-3.8Z" fill="#118ab2"/>
          <path id="Path_996" data-name="Path 996" d="M29.4,26.6A5.8,5.8,0,0,0,30,24a6,6,0,0,0-6-6,5.8,5.8,0,0,0-2.6.6L9.7,6.9A2,2,0,0,0,6.9,9.7l4.7,4.8a32.1,32.1,0,0,0-8.9,7.6,3,3,0,0,0,0,3.8C4.8,28.5,12.6,37,24,37a23,23,0,0,0,8.5-1.6l5.8,5.7a2,2,0,1,0,2.8-2.8ZM24,33c-8.8,0-15.3-6.2-17.7-9a29.7,29.7,0,0,1,8.3-6.6l4,4A5.8,5.8,0,0,0,18,24a6,6,0,0,0,6,6,5.8,5.8,0,0,0,2.6-.6l2.8,2.8A19.1,19.1,0,0,1,24,33Z" fill="#118ab2"/>
        </g>
      </g>
    </g>
  </g>
</svg>
