<svg xmlns="http://www.w3.org/2000/svg" xmlns:xlink="http://www.w3.org/1999/xlink" width="32" height="31" viewBox="0 0 32 31"><defs><clipPath id="a"><rect width="32" height="31" transform="translate(0 -0.419)" fill="#878787"/></clipPath></defs><g transform="translate(0 0.419)" clip-path="url(#a)"><g transform="translate(0 0)"><rect width="32" height="31" transform="translate(0 -0.419)" fill="none"/><g transform="translate(2.639 2.013)"><path d="M30,13.76l-9.3-9.37a1.254,1.254,0,0,0-1.848,0L4.4,18.841a1.32,1.32,0,0,0-.4.924v9.3a1.32,1.32,0,0,0,1.32,1.32h9.3a1.32,1.32,0,0,0,.924-.4L30,15.608a1.254,1.254,0,0,0,0-1.848ZM14.1,27.749H6.639V20.293l8.248-8.182,7.39,7.456Zm10.1-10.029-7.456-7.456,3.035-3.1,7.456,7.522Z" transform="translate(-4 -3.985)" fill="#878787"/></g></g></g></svg>