<svg xmlns="http://www.w3.org/2000/svg" xmlns:xlink="http://www.w3.org/1999/xlink" width="48" height="48" viewBox="0 0 48 48">
  <defs>
    <clipPath id="clip-path">
      <rect id="Rectangle_51" data-name="Rectangle 51" width="48" height="48" transform="translate(1512 8173)" fill="#118ab2"/>
    </clipPath>
  </defs>
  <g id="Mask_Group_67" data-name="Mask Group 67" transform="translate(-1512 -8173)" clip-path="url(#clip-path)">
    <g id="Layer_2" data-name="Layer 2" transform="translate(1512 8173)">
      <g id="invisible_box" data-name="invisible box">
        <rect id="Rectangle_303" data-name="Rectangle 303" width="48" height="48" fill="none"/>
      </g>
      <g id="icons_Q2" data-name="icons Q2">
        <path id="Path_308" data-name="Path 308" d="M43.4,18.8,29.3,4.6a1.9,1.9,0,0,0-2.8,0l-6,6,16.9,17,6-6a1.9,1.9,0,0,0,0-2.8ZM4.6,26.5A2,2,0,0,0,4,27.9V42a2,2,0,0,0,2,2H20.1a2,2,0,0,0,1.4-.6l13.1-13-17-16.9Z" fill="#118ab2"/>
      </g>
    </g>
  </g>
</svg>
