<svg xmlns="http://www.w3.org/2000/svg" xmlns:xlink="http://www.w3.org/1999/xlink" width="48" height="48" viewBox="0 0 48 48">
  <defs>
    <clipPath id="clip-path">
      <rect id="Rectangle_51" data-name="Rectangle 51" width="48" height="48" transform="translate(1000 8173)" fill="#118ab2"/>
    </clipPath>
  </defs>
  <g id="Mask_Group_73" data-name="Mask Group 73" transform="translate(-1000 -8173)" clip-path="url(#clip-path)">
    <g id="Layer_2" data-name="Layer 2" transform="translate(1000 8173)">
      <g id="invisible_box" data-name="invisible box">
        <rect id="Rectangle_318" data-name="Rectangle 318" width="48" height="48" fill="none"/>
      </g>
      <g id="icons_Q2" data-name="icons Q2">
        <path id="Path_314" data-name="Path 314" d="M34,4c-3.9,0-8,3.1-10,6.5C22,7.1,17.9,4,14,4A12,12,0,0,0,5.5,7.6,11.9,11.9,0,0,0,2,16.1c0,4.1,2.7,7.6,5,10.2L23.3,43.7a1,1,0,0,0,1.4,0L41,26.3c2.3-2.6,5-6.1,5-10.2A12.1,12.1,0,0,0,34,4Z" fill="#118ab2"/>
      </g>
    </g>
  </g>
</svg>
