<svg xmlns="http://www.w3.org/2000/svg" xmlns:xlink="http://www.w3.org/1999/xlink" width="48" height="48" viewBox="0 0 48 48">
  <defs>
    <clipPath id="clip-path">
      <rect id="Rectangle_51" data-name="Rectangle 51" width="48" height="48" transform="translate(1256 8297)" fill="#118ab2"/>
    </clipPath>
  </defs>
  <g id="Mask_Group_106" data-name="Mask Group 106" transform="translate(-1256 -8297)" clip-path="url(#clip-path)">
    <g id="Layer_2" data-name="Layer 2" transform="translate(1256 8297)">
      <g id="invisible_box" data-name="invisible box">
        <rect id="Rectangle_468" data-name="Rectangle 468" width="48" height="48" fill="none"/>
      </g>
      <g id="Layer_7" data-name="Layer 7">
        <g id="Group_411" data-name="Group 411">
          <path id="Path_380" data-name="Path 380" d="M43,12H38.3a4.2,4.2,0,0,0,.4-1,7,7,0,0,0-.6-5.3,6.7,6.7,0,0,0-4.3-3.4A7.1,7.1,0,0,0,25,7l-1,3.4L23,7a7.1,7.1,0,0,0-8.8-4.7A6.7,6.7,0,0,0,9.9,5.7,7,7,0,0,0,9.3,11a4.2,4.2,0,0,0,.4,1H5a2.9,2.9,0,0,0-3,3v7H17V16h4v6h6V16h4v6H46V15a2.9,2.9,0,0,0-3-3ZM17,12h-.9a3.1,3.1,0,0,1-3-2.2,2.9,2.9,0,0,1,.3-2.2,3,3,0,0,1,1.8-1.5,3.3,3.3,0,0,1,4,2.1L20.3,12ZM34.9,9.8a3.1,3.1,0,0,1-3,2.2H27.7l1.1-3.8a3.3,3.3,0,0,1,4-2.1,3,3,0,0,1,1.8,1.5,2.9,2.9,0,0,1,.3,2.2Z" fill="#118ab2"/>
          <rect id="Rectangle_469" data-name="Rectangle 469" width="6" height="20" transform="translate(21 26)" fill="#118ab2"/>
          <path id="Path_381" data-name="Path 381" d="M4,43a3,3,0,0,0,3,3H17V26H4Z" fill="#118ab2"/>
          <path id="Path_382" data-name="Path 382" d="M31,46H41a3,3,0,0,0,3-3V26H31Z" fill="#118ab2"/>
        </g>
      </g>
    </g>
  </g>
</svg>
