<svg xmlns="http://www.w3.org/2000/svg" xmlns:xlink="http://www.w3.org/1999/xlink" width="48" height="48" viewBox="0 0 48 48">
  <defs>
    <clipPath id="clip-path">
      <rect id="Rectangle_541" data-name="Rectangle 541" width="48" height="48" transform="translate(360 8297)" fill="#118ab2"/>
    </clipPath>
  </defs>
  <g id="Mask_Group_118" data-name="Mask Group 118" transform="translate(-360 -8297)" clip-path="url(#clip-path)">
    <g id="Layer_2" data-name="Layer 2" transform="translate(360 8297)">
      <g id="invisible_box" data-name="invisible box">
        <rect id="Rectangle_546" data-name="Rectangle 546" width="48" height="48" fill="none"/>
      </g>
      <g id="Q3_icons" data-name="Q3 icons">
        <path id="Path_838" data-name="Path 838" d="M26,31v3.5H22V31c-8-.4-15.1-2.9-20-6.6V42a2,2,0,0,0,2,2H44a2,2,0,0,0,2-2V24.4C41.1,28.1,34,30.6,26,31ZM44,12H33V6a2,2,0,0,0-2-2H17a2,2,0,0,0-2,2v6H4a2,2,0,0,0-2,2v5c4.3,4.7,12.6,8,22,8s17.7-3.3,22-8V14A2,2,0,0,0,44,12ZM29,12H19V8H29Z" fill="#118ab2"/>
      </g>
    </g>
  </g>
</svg>
