<svg xmlns="http://www.w3.org/2000/svg" xmlns:xlink="http://www.w3.org/1999/xlink" width="48" height="48" viewBox="0 0 48 48">
  <defs>
    <clipPath id="clip-path">
      <rect id="Rectangle_758" data-name="Rectangle 758" width="48" height="48" transform="translate(1512 9389)" fill="#118ab2"/>
    </clipPath>
  </defs>
  <g id="Mask_Group_148" data-name="Mask Group 148" transform="translate(-1512 -9389)" clip-path="url(#clip-path)">
    <g id="Layer_2" data-name="Layer 2" transform="translate(1512 9389)">
      <g id="invisible_box" data-name="invisible box">
        <rect id="Rectangle_757" data-name="Rectangle 757" width="48" height="48" fill="none"/>
      </g>
      <g id="icons_Q2" data-name="icons Q2">
        <path id="Path_993" data-name="Path 993" d="M38,17H31l.4-3.3C32,8.8,31,4.9,27.8,4h-.3A2,2,0,0,0,26,5.2s-5.7,12-9,14.4V40h1.3a1.6,1.6,0,0,1,1.2.4c1.4,1,6.1,3.6,8.5,3.6h5c5.9,0,11-4,11.5-11.9h0l.5-8A6.7,6.7,0,0,0,38,17ZM3,22V38a2,2,0,0,0,2,2h8V20H5A2,2,0,0,0,3,22Z" fill="#118ab2"/>
      </g>
    </g>
  </g>
</svg>
