<svg xmlns="http://www.w3.org/2000/svg" xmlns:xlink="http://www.w3.org/1999/xlink" width="24" height="24" viewBox="0 0 24 24"><defs><clipPath id="a"><rect width="24" height="24" fill="#878787"/></clipPath></defs><g clip-path="url(#a)"><rect width="24" height="24" fill="none"/><g transform="translate(2.5 2.5)"><circle cx="3" cy="3" r="3" transform="translate(12.5 13.5)" fill="#878787"/><path d="M16.5,18a1,1,0,0,1,0,2A9.5,9.5,0,0,0,7,29.5a1,1,0,0,1-2,0A11.5,11.5,0,0,1,16.5,18Z" transform="translate(1.5 -11.5)" fill="#878787"/><path d="M23,5a1,1,0,0,1,0,2A16.05,16.05,0,0,0,7,23a1,1,0,1,1-2,0A18,18,0,0,1,23,5Z" transform="translate(-5 -5)" fill="#878787"/></g></g></svg>