<svg xmlns="http://www.w3.org/2000/svg" xmlns:xlink="http://www.w3.org/1999/xlink" width="32" height="32" viewBox="0 0 32 32"><defs><clipPath id="a"><rect width="32" height="32" transform="translate(1128 8049)" fill="#fbfbfb"/></clipPath></defs><g transform="translate(-1128 -8049)" clip-path="url(#a)"><g transform="translate(1128 8049)"><rect width="32" height="32" fill="none"/><g transform="translate(5.932 6.603)"><path d="M17.248,10.4,9.391,18.319a1.254,1.254,0,0,0,0,1.849l7.857,7.923a1.386,1.386,0,0,0,1.783.132,1.254,1.254,0,0,0,.132-1.981l-5.678-5.678h14a1.32,1.32,0,1,0,0-2.641h-14l5.678-5.678a1.254,1.254,0,0,0-.132-1.981,1.387,1.387,0,0,0-1.783.132Z" transform="translate(-8.985 -10.001)" fill="#fbfbfb"/></g></g></g></svg>