<svg xmlns="http://www.w3.org/2000/svg" xmlns:xlink="http://www.w3.org/1999/xlink" width="48" height="48" viewBox="0 0 48 48">
  <defs>
    <clipPath id="clip-path">
      <rect id="Rectangle_51" data-name="Rectangle 51" width="48" height="48" transform="translate(1256 7925)" fill="#118ab2"/>
    </clipPath>
  </defs>
  <g id="Mask_Group_7" data-name="Mask Group 7" transform="translate(-1256 -7925)" clip-path="url(#clip-path)">
    <g id="analytics" transform="translate(1256 7925)">
      <g id="Group_70" data-name="Group 70">
        <path id="Path_23" data-name="Path 23" d="M45.6,0H2.4A2.4,2.4,0,0,0,0,2.4,2.267,2.267,0,0,0,2.4,4.8V33.6A2.267,2.267,0,0,0,4.8,36H15.6L12,44.643a2.381,2.381,0,0,0,1.2,3.12,2.542,2.542,0,0,0,3.12-1.2L20.88,36h6.48l4.32,10.56a2.261,2.261,0,0,0,3.12,1.2,2.5,2.5,0,0,0,1.44-3.12L32.4,36H43.2a2.4,2.4,0,0,0,2.4-2.4V4.8A2.4,2.4,0,0,0,48,2.4,2.581,2.581,0,0,0,45.6,0Zm-5.52,13.68-12,12a2.416,2.416,0,0,1-3.6-.24L18.96,18l-7.68,7.68a2.512,2.512,0,0,1-3.36,0,2.32,2.32,0,0,1,0-3.36l9.6-9.6a2.388,2.388,0,0,1,3.6.24l5.52,7.44,10.08-10.08a2.376,2.376,0,1,1,3.36,3.36Z" fill="#118ab2"/>
      </g>
    </g>
  </g>
</svg>
