<svg xmlns="http://www.w3.org/2000/svg" xmlns:xlink="http://www.w3.org/1999/xlink" width="48" height="48" viewBox="0 0 48 48">
  <defs>
    <clipPath id="clip-path">
      <rect id="Rectangle_756" data-name="Rectangle 756" width="48" height="48" transform="translate(1256 9389)" fill="#878787"/>
    </clipPath>
  </defs>
  <g id="Mask_Group_147" data-name="Mask Group 147" transform="translate(-1256 -9389)" clip-path="url(#clip-path)">
    <g id="Layer_2" data-name="Layer 2" transform="translate(1256 9389)">
      <g id="invisible_box" data-name="invisible box">
        <rect id="Rectangle_755" data-name="Rectangle 755" width="48" height="48" fill="none"/>
      </g>
      <g id="icons_Q2" data-name="icons Q2">
        <path id="Path_992" data-name="Path 992" d="M24,2A21.9,21.9,0,1,0,39.586,8.414,22,22,0,0,0,24,2ZM35.4,18.4l-14,14a1.9,1.9,0,0,1-2.8,0l-5.9-5.9a2.2,2.2,0,0,1-.4-2.7,2,2,0,0,1,3.1-.2L20,28.2,32.6,15.6a2,2,0,0,1,2.8,2.8Z" fill="#878787"/>
      </g>
    </g>
  </g>
</svg>
