<svg xmlns="http://www.w3.org/2000/svg" xmlns:xlink="http://www.w3.org/1999/xlink" width="16" height="16" viewBox="0 0 16 16"><defs><clipPath id="a"><rect width="16" height="16" transform="translate(-0.062 -0.062)" fill="#fbfbfb"/></clipPath></defs><g transform="translate(15.938 15.938) rotate(180)" clip-path="url(#a)"><rect width="16" height="16" transform="translate(-0.062 -0.062)" fill="none"/><g transform="translate(3.298 5.263)"><path d="M14.617,19.666l-3.5-3.5a.627.627,0,0,0-.989.066.692.692,0,0,0,.066.89l3.957,3.924a.627.627,0,0,0,.923,0l3.957-3.924a.692.692,0,0,0,.066-.89.627.627,0,0,0-.989-.066Z" transform="translate(-10.001 -15.959)" fill="#fbfbfb"/></g></g></svg>