<svg xmlns="http://www.w3.org/2000/svg" xmlns:xlink="http://www.w3.org/1999/xlink" width="48" height="48" viewBox="0 0 48 48">
  <defs>
    <clipPath id="clip-path">
      <rect id="Rectangle_760" data-name="Rectangle 760" width="48" height="48" transform="translate(232 9261)" fill="#118ab2" stroke="#707070" stroke-width="1"/>
    </clipPath>
  </defs>
  <g id="Mask_Group_149" data-name="Mask Group 149" transform="translate(-232 -9261)" clip-path="url(#clip-path)">
    <g id="Layer_2" data-name="Layer 2" transform="translate(232 9261)">
      <g id="invisible_box" data-name="invisible box">
        <rect id="Rectangle_759" data-name="Rectangle 759" width="48" height="48" fill="none"/>
      </g>
      <g id="icons_Q2" data-name="icons Q2">
        <path id="Path_994" data-name="Path 994" d="M45.3,22.1h0C43.2,19.5,35.4,11,24,11S4.8,19.5,2.7,22.1a3,3,0,0,0,0,3.8C4.8,28.5,12.6,37,24,37s19.2-8.5,21.3-11.1A3,3,0,0,0,45.3,22.1ZM24,33c-8.8,0-15.3-6.2-17.7-9,2.4-2.8,8.9-9,17.7-9s15.3,6.2,17.7,9C39.3,26.8,32.8,33,24,33Z" fill="#118ab2"/>
        <circle id="Ellipse_52" data-name="Ellipse 52" cx="6" cy="6" r="6" transform="translate(18 18)" fill="#118ab2"/>
      </g>
    </g>
  </g>
</svg>
