<svg xmlns="http://www.w3.org/2000/svg" xmlns:xlink="http://www.w3.org/1999/xlink" width="48" height="48" viewBox="0 0 48 48">
  <defs>
    <clipPath id="clip-path">
      <rect id="Rectangle_331" data-name="Rectangle 331" width="48" height="48" transform="translate(360 8173)" fill="#118ab2"/>
    </clipPath>
  </defs>
  <g id="Mask_Group_84" data-name="Mask Group 84" transform="translate(-360 -8173)" clip-path="url(#clip-path)">
    <g id="Layer_2" data-name="Layer 2" transform="translate(360 8173)">
      <g id="invisible_box" data-name="invisible box">
        <rect id="Rectangle_333" data-name="Rectangle 333" width="48" height="48" fill="none"/>
      </g>
      <g id="icons_Q2" data-name="icons Q2">
        <path id="Path_337" data-name="Path 337" d="M43,14H41V8a2,2,0,0,0-2-2H10a6,6,0,0,0-6,6V36a6,6,0,0,0,6,6H43a2,2,0,0,0,2-2V16A2,2,0,0,0,43,14ZM10,10H37v4H10.1A2.1,2.1,0,0,1,8,12.3,2,2,0,0,1,10,10ZM41,22H29a2,2,0,0,0-2,2v8a2,2,0,0,0,2,2H41v4H10a2,2,0,0,1-2-2V18H41Zm-6,6a2,2,0,1,1-2-2A2,2,0,0,1,35,28Z" fill="#118ab2"/>
      </g>
    </g>
  </g>
</svg>
