<svg xmlns="http://www.w3.org/2000/svg" xmlns:xlink="http://www.w3.org/1999/xlink" width="24" height="24" viewBox="0 0 24 24"><defs><clipPath id="a"><rect width="24" height="24" transform="translate(1384 9389)" fill="#b21111"/></clipPath></defs><g transform="translate(-1384 -9389)" opacity="0.5" clip-path="url(#a)"><g transform="translate(1384 9389)"><rect width="24" height="24" fill="none"/><g transform="translate(1.53 2.04)"><path d="M24.417,14.2l-.255-4.08h0C23.907,6.04,21.307,4,18.3,4h-2.55c-1.224,0-3.621,1.326-4.334,1.836a.816.816,0,0,1-.612.2h-.663v10.4c1.683,1.224,4.589,7.343,4.589,7.343a1.02,1.02,0,0,0,.765.612h.153c1.632-.459,2.142-2.448,1.836-4.946l-.2-1.683h3.57a3.417,3.417,0,0,0,3.57-3.57Zm-20.4,2.04H8.1V6.04H4.02A1.02,1.02,0,0,0,3,7.06v8.159A1.02,1.02,0,0,0,4.02,16.239Z" transform="translate(-3 -4)" fill="#b21111"/></g></g></g></svg>