<svg xmlns="http://www.w3.org/2000/svg" xmlns:xlink="http://www.w3.org/1999/xlink" width="24" height="24" viewBox="0 0 24 24"><defs><clipPath id="a"><rect width="24" height="24" transform="translate(1512 9389)" fill="#11b262"/></clipPath></defs><g transform="translate(-1512 -9389)" opacity="0.5" clip-path="url(#a)"><g transform="translate(1512 9389)"><rect width="24" height="24" fill="none"/><g transform="translate(1.459 1.946)"><path d="M20.025,10.323h-3.4l.195-1.605c.292-2.383-.195-4.28-1.751-4.718h-.146a.973.973,0,0,0-.73.584s-2.773,5.837-4.378,7v9.923h.632a.778.778,0,0,1,.584.195c.681.486,2.967,1.751,4.135,1.751h2.432c2.87,0,5.351-1.946,5.594-5.788h0l.243-3.891a3.259,3.259,0,0,0-3.4-3.454ZM3,12.755v7.783a.973.973,0,0,0,.973.973H7.864V11.783H3.973A.973.973,0,0,0,3,12.755Z" transform="translate(-3 -4)" fill="#11b262"/></g></g></g></svg>