<svg xmlns="http://www.w3.org/2000/svg" width="359.724" height="342.59" viewBox="0 0 359.724 342.59">
  <g id="Group_790" data-name="Group 790" transform="translate(-1314 -3118.298)">
    <path id="Path_901" data-name="Path 901" d="M-9293.843,11659.751l-2.458,12.081-1.843,17.611v3.687l-1.229,3.276-2.253,5.119-1.229,9.624,1.229,8.192,2.253,5.324,3.071,4.914,3.891,4.71,7.168,4.506,4.624,2.252,8.891,1.843h11.878l24.368-11.878,3.891-6.347,4.711-8.192,2.662-6.757v-5.324l-15.359-35.633-25.187-22.934Z" transform="translate(10736.669 -8502.69)" fill="#fff"/>
    <g id="Group_767" data-name="Group 767" transform="translate(1314 3118.298)">
      <path id="Path_846" data-name="Path 846" d="M611.278,246.274" transform="translate(-343.285 -90.583)" fill="#fff" stroke="#000" stroke-miterlimit="10" stroke-width="1.388"/>
      <g id="Group_758" data-name="Group 758" transform="translate(11.738 0)">
        <g id="Group_747" data-name="Group 747" transform="translate(0 35.145)">
          <path id="Path_847" data-name="Path 847" d="M468.026,244.1s-49.07,9.862-65.263,15.456-20.61,37.566,8.832,39.024,74.459-7.653,74.459-7.653Z" transform="translate(-349.038 -125.669)" fill="#fff" stroke="#000" stroke-miterlimit="10" stroke-width="1.388"/>
          <g id="Group_746" data-name="Group 746">
            <path id="Union_5" data-name="Union 5" d="M0,17.027A15.333,15.333,0,0,1,2.494,8.683a5.351,5.351,0,0,1,7.9-6.724A21.6,21.6,0,0,1,19.459,0C30.207,0,38.917,7.624,38.917,17.027s-8.71,17.026-19.457,17.026S0,26.432,0,17.027Z" transform="translate(21.343 18.078)" fill="#fff"/>
            <g id="Group_745" data-name="Group 745">
              <path id="Path_848" data-name="Path 848" d="M368.765,154.678c-12.1-.706-16.408,9.115-10.888,12.776s8.564,5.886,14.843,10.126,9.528-2.837,3.577-7.632a104.868,104.868,0,0,1-9.888-9.014" transform="translate(-348.105 -123.25)" fill="#fff" stroke="#000" stroke-miterlimit="10" stroke-width="1.388"/>
              <path id="Path_849" data-name="Path 849" d="M373.1,148.694c-12.1-.707-16.408,9.114-10.889,12.775s8.565,5.887,14.844,10.127,9.528-2.838,3.577-7.633a104.789,104.789,0,0,1-9.888-9.013" transform="translate(-348.222 -123.088)" fill="#fff" stroke="#000" stroke-miterlimit="10" stroke-width="1.388"/>
              <path id="Path_850" data-name="Path 850" d="M375.083,141.475c-12.105-.707-16.409,9.114-10.889,12.775s8.564,5.887,14.843,10.127,9.528-2.837,3.578-7.632a104.806,104.806,0,0,1-9.889-9.014" transform="translate(-348.276 -122.893)" fill="#fff" stroke="#000" stroke-miterlimit="10" stroke-width="1.388"/>
              <path id="Path_851" data-name="Path 851" d="M393.46,139.035c-19.017-6.333-36.959-14.222-44.712-16.658,0,0-4.268,8.664,6.343,12.556s29.407,11.85,29.407,11.85" transform="translate(-347.899 -122.377)" fill="#fff" stroke="#000" stroke-miterlimit="10" stroke-width="1.388"/>
              <path id="Path_852" data-name="Path 852" d="M392.853,177.4s.37,53.017-5.941,90.843c-2.386,14.3,9,25.33,21.482,27.452a22.479,22.479,0,0,0,18.278-4.459c5.383-4.412,9.3-12.046,9.926-23.709q.293-5.428.23-10.9c-.53-51.591-22.9-103.371-22.9-103.371s-2.539-10.216-13.124-12.308c-14.54-2.874-28.715,5.817-38.016,13.64,7.095,5.409,12.44,3.364,20.61-2.564-2.858,11.255,8.3,14.169,8.3,14.169" transform="translate(-348.302 -122.864)" fill="#fff" stroke="#000" stroke-miterlimit="10" stroke-width="1.388"/>
            </g>
            <path id="Path_853" data-name="Path 853" d="M376.456,171.506s7.145,5.184,14.445,6.431,11.716-.772,11.716-.772" transform="translate(-348.671 -123.706)" fill="#fff" stroke="#000" stroke-miterlimit="10" stroke-width="1.388"/>
          </g>
        </g>
        <g id="Group_748" data-name="Group 748" transform="translate(96.069 121.66)">
          <path id="Path_854" data-name="Path 854" d="M540.844,223.148c19.86-23.455,42.31-9.1,42.678,17.028s15.825,103.415,15.825,103.415-14.843,29.443-61.706,32.755S479,363.464,479,363.464s-12.525-89.8-8.838-114.824,23-22.081,27.326-14.721Z" transform="translate(-447.257 -211.297)" fill="#008ab2" stroke="#000" stroke-miterlimit="10" stroke-width="1.388"/>
          <path id="Path_855" data-name="Path 855" d="M489.792,229.408s-11.445,18.291-.486,33.83c8.97,12.717,37.948,8.179,48.743-10.631" transform="translate(-447.665 -211.787)" fill="none" stroke="#000" stroke-miterlimit="10" stroke-width="1.388"/>
          <path id="Path_856" data-name="Path 856" d="M548.11,237.816s6.105-8.074,4.524-23.051" transform="translate(-449.383 -211.391)" fill="none" stroke="#000" stroke-miterlimit="10" stroke-width="1.388"/>
          <path id="Path_857" data-name="Path 857" d="M509.78,271.429s.977,17.97,2.206,42.752" transform="translate(-448.347 -212.924)" fill="none" stroke="#000" stroke-miterlimit="10" stroke-width="1.388"/>
          <path id="Path_858" data-name="Path 858" d="M482.024,229.916c-29.769,8.31-35.385,18.633-35.385,18.633l10.769,53.59,19.054-3.341" transform="translate(-446.639 -211.801)" fill="#008ab2" stroke="#000" stroke-miterlimit="10" stroke-width="1.388"/>
        </g>
        <g id="Group_750" data-name="Group 750" transform="translate(133.986 121.542)">
          <path id="Path_859" data-name="Path 859" d="M593.3,353.853l-18.006-2.163s-16-1.193-25.036-1.806-12.029-17.162,10.8-15.936C574.544,334.672,587.543,341.332,593.3,353.853Z" transform="translate(-487.176 -214.495)" fill="#fff" stroke="#000" stroke-miterlimit="10" stroke-width="1.388"/>
          <path id="Path_860" data-name="Path 860" d="M490.618,310.233l66.576-15.325a6.455,6.455,0,0,1,7.762,4.951l18.924,89.229a6.455,6.455,0,0,1-5.1,7.68l-69.272,13.247a6.455,6.455,0,0,1-7.559-5.159L485.72,317.7A6.454,6.454,0,0,1,490.618,310.233Z" transform="translate(-485.61 -213.436)" fill="#fff" stroke="#000" stroke-miterlimit="10" stroke-width="1.388"/>
          <path id="Path_861" data-name="Path 861" d="M503.123,319.474l47.394-11.794a4.6,4.6,0,0,1,5.525,3.81l13.472,68.675a4.969,4.969,0,0,1-3.632,5.911l-49.313,10.2a4.63,4.63,0,0,1-5.38-3.971l-11.552-67.075A4.978,4.978,0,0,1,503.123,319.474Z" transform="translate(-485.987 -213.783)" fill="#fff" stroke="#000" stroke-miterlimit="10" stroke-width="1.388"/>
          <g id="Group_749" data-name="Group 749" transform="translate(53.737)">
            <path id="Path_862" data-name="Path 862" d="M605.17,360.05c-13-13.985-23.722-11.379-23.722-11.379-12.021.008-6.3,23.969-2.045,37.871s22.777,13.413,35,9.324c13.911-4.653,27.643-21.223,38.684-41.791s25.521-50.642,13.249-68.207c-12.512-17.911-52.014-45.268-52.014-45.268l-27.906,44.163,42.693,28.583S612.531,347.624,605.17,360.05Z" transform="translate(-541.744 -211.972)" fill="#fff" stroke="#000" stroke-miterlimit="10" stroke-width="1.388"/>
            <path id="Path_863" data-name="Path 863" d="M592.322,352.937c-7.36-11.531-33.122-10.4-44.163-5.814s-9.078,13.91,2.454,11.457,29.116-2.362,33.1,5.811" transform="translate(-540.84 -214.765)" fill="#fff" stroke="#000" stroke-miterlimit="10" stroke-width="1.388"/>
            <path id="Path_864" data-name="Path 864" d="M592.322,360.758c-7.36-11.531-33.122-10.4-44.163-5.814s-9.078,13.911,2.454,11.458,29.116-2.362,33.1,5.811" transform="translate(-540.84 -214.976)" fill="#fff" stroke="#000" stroke-miterlimit="10" stroke-width="1.388"/>
            <path id="Path_865" data-name="Path 865" d="M594.309,373.619c-7.36-11.531-33.122-10.4-44.163-5.814s-9.078,13.911,2.454,11.457,29.116-2.362,33.1,5.811" transform="translate(-540.894 -215.324)" fill="#fff" stroke="#000" stroke-miterlimit="10" stroke-width="1.388"/>
            <path id="Path_866" data-name="Path 866" d="M596.587,386.8c-7.36-11.531-33.122-10.4-44.163-5.814s-9.078,13.911,2.454,11.457,29.116-2.362,33.1,5.811" transform="translate(-540.955 -215.68)" fill="#fff" stroke="#000" stroke-miterlimit="10" stroke-width="1.388"/>
            <path id="Path_867" data-name="Path 867" d="M563.487,211.311c26.69-2.421,57.788,28.493,57.788,28.493l-31.838,54.237-30.358-20.011" transform="translate(-541.333 -211.176)" fill="#008ab2" stroke="#000" stroke-miterlimit="10" stroke-width="1.388"/>
          </g>
          <path id="Path_868" data-name="Path 868" d="M502.425,305.015l9.769,45.232,41.219-8.227-9.328-46.594Z" transform="translate(-486.065 -213.455)" fill="#d8ca13" stroke="#000" stroke-miterlimit="10" stroke-width="1.388"/>
        </g>
        <g id="Group_757" data-name="Group 757" transform="translate(82.829)">
          <g id="Group_755" data-name="Group 755" transform="translate(25.575 16.17)">
            <path id="Path_869" data-name="Path 869" d="M459.331,178.505c-.306-11.612,4.431-18.646,4.431-18.646,0-21.861,4.379-43.952,33.859-45.472,23.8-1.227,39.746,17.886,39.746,39.747v18.647c0,10.81-14.884,35.82-41.71,35.82S459.651,190.611,459.331,178.505Z" transform="translate(-459.316 -103.185)" fill="none" stroke="#000" stroke-miterlimit="10" stroke-width="1.388"/>
            <path id="Path_870" data-name="Path 870" d="M526.423,154.7s5.71-10.928,12.922-6.086c7.119,4.78,3.6,33.566-11.286,27.023" transform="translate(-461.131 -104.079)" fill="#fff" stroke="#000" stroke-miterlimit="10" stroke-width="1.388"/>
            <path id="Path_871" data-name="Path 871" d="M531.971,165.736s.165-7.911,5.4-9.487" transform="translate(-461.281 -104.319)" fill="#fff" stroke="#000" stroke-miterlimit="10" stroke-width="1.388"/>
            <path id="Path_872" data-name="Path 872" d="M473.378,124.127c7.932-8.578,24.734-.481,24.43,14.24s17.361,16.438,17.361,16.438v9.487h7.36l4.12-13.658s4.795-7.183,11.01-3.223c9.651-15.914-4.688-22.784-4.688-22.784s-16.372-31.159-47-18.892-20.128,33.732-20.128,33.732S465.445,132.7,473.378,124.127Z" transform="translate(-459.446 -102.875)" stroke="#000" stroke-miterlimit="10" stroke-width="1.388"/>
            <g id="Group_754" data-name="Group 754" transform="translate(5.297 42.689)">
              <path id="Path_873" data-name="Path 873" d="M480.563,151.962s5.03,4.361-3.067,21.781c-1.675,3.606,7.36,9.814,10.918,2.7" transform="translate(-465.1 -146.892)" fill="#fff" stroke="#000" stroke-miterlimit="10" stroke-width="1.388"/>
              <g id="Group_753" data-name="Group 753">
                <g id="Group_751" data-name="Group 751">
                  <rect id="Rectangle_575" data-name="Rectangle 575" width="4.997" height="6.604" rx="2.232" transform="translate(6.136 10.479)"/>
                  <path id="Path_874" data-name="Path 874" d="M464.761,149.693c1.656-3.435,7.974-4.17,10.55-.552" transform="translate(-464.761 -146.751)" fill="none" stroke="#000" stroke-miterlimit="10" stroke-width="1.388"/>
                </g>
                <g id="Group_752" data-name="Group 752" transform="translate(27.791 0.609)">
                  <rect id="Rectangle_576" data-name="Rectangle 576" width="4.997" height="6.604" rx="2.232" transform="translate(5.275 9.869)"/>
                  <path id="Path_875" data-name="Path 875" d="M493.324,150.32c1.656-3.435,7.973-4.171,10.55-.553" transform="translate(-493.324 -147.377)" fill="none" stroke="#000" stroke-miterlimit="10" stroke-width="1.388"/>
                </g>
              </g>
              <path id="Path_876" data-name="Path 876" d="M490.993,190.49s11.654,2.822,18.279-11.041" transform="translate(-465.47 -147.635)" fill="#fff" stroke="#000" stroke-miterlimit="10" stroke-width="1.388"/>
            </g>
            <path id="Path_877" data-name="Path 877" d="M529.1,191.039,541.623,222.6s-.255,16.948-23.2,28.069-20.035-9.734-20.035-9.734V210.676s11.607-.3,18.42-8.182" transform="translate(-460.37 -105.26)" fill="#fff" stroke="#000" stroke-miterlimit="10" stroke-width="1.388"/>
          </g>
          <g id="Group_756" data-name="Group 756">
            <path id="Path_878" data-name="Path 878" d="M491.587,86.849l-55.445,27.722a5.623,5.623,0,0,0,1.819,10.61l58.081,7.24a5.625,5.625,0,0,0,2.72-.334l57.617-22.235a5.624,5.624,0,0,0-.863-10.749L495.265,86.377A5.628,5.628,0,0,0,491.587,86.849Z" transform="translate(-433.03 -86.255)"/>
          </g>
        </g>
      </g>
      <g id="Group_766" data-name="Group 766" transform="translate(0 16.17)">
        <g id="Group_765" data-name="Group 765">
          <g id="Group_761" data-name="Group 761" transform="translate(211.32)">
            <g id="Group_759" data-name="Group 759" transform="translate(0 6.935)">
              <path id="Path_879" data-name="Path 879" d="M553.029,110s5.927,45.5,34.633,49.739" transform="translate(-553.029 -110.003)" fill="none" stroke="#000" stroke-miterlimit="10" stroke-width="1.388"/>
              <circle id="Ellipse_44" data-name="Ellipse 44" cx="10.666" cy="10.666" r="10.666" transform="translate(33.373 42.17)" fill="#008ab2" stroke="#000" stroke-miterlimit="10" stroke-width="1.388"/>
            </g>
            <g id="Group_760" data-name="Group 760" transform="translate(39.623)">
              <path id="Path_880" data-name="Path 880" d="M653.418,190.684a12.754,12.754,0,1,1-12.754-12.753A12.754,12.754,0,0,1,653.418,190.684Z" transform="translate(-594.677 -104.905)" fill="#fff" stroke="#000" stroke-miterlimit="10" stroke-width="1.388"/>
              <path id="Path_881" data-name="Path 881" d="M639.74,188.655s16.52-76.413-45.987-85.78" transform="translate(-593.753 -102.875)" fill="none" stroke="#000" stroke-miterlimit="10" stroke-width="1.388"/>
            </g>
          </g>
          <g id="Group_762" data-name="Group 762" transform="translate(307.074 103.064)">
            <path id="Path_882" data-name="Path 882" d="M674.075,214.167a3.481,3.481,0,1,1-1.047-4.81A3.481,3.481,0,0,1,674.075,214.167Z" transform="translate(-651.883 -208.804)"/>
            <path id="Path_883" data-name="Path 883" d="M689.444,224.044a3.481,3.481,0,1,1-1.047-4.81A3.482,3.482,0,0,1,689.444,224.044Z" transform="translate(-652.299 -209.071)"/>
            <path id="Path_884" data-name="Path 884" d="M704.813,233.921a3.481,3.481,0,1,1-1.047-4.811A3.482,3.482,0,0,1,704.813,233.921Z" transform="translate(-652.715 -209.338)"/>
            <path id="Path_885" data-name="Path 885" d="M665.965,226.787a3.481,3.481,0,1,1-1.047-4.81A3.481,3.481,0,0,1,665.965,226.787Z" transform="translate(-651.664 -209.145)"/>
            <path id="Path_886" data-name="Path 886" d="M681.334,236.664a3.481,3.481,0,1,1-1.047-4.811A3.481,3.481,0,0,1,681.334,236.664Z" transform="translate(-652.08 -209.412)"/>
            <path id="Path_887" data-name="Path 887" d="M696.7,246.54a3.481,3.481,0,1,1-1.047-4.81A3.482,3.482,0,0,1,696.7,246.54Z" transform="translate(-652.495 -209.679)"/>
            <path id="Path_888" data-name="Path 888" d="M657.855,239.407a3.481,3.481,0,1,1-1.047-4.811A3.48,3.48,0,0,1,657.855,239.407Z" transform="translate(-651.445 -209.486)"/>
            <path id="Path_889" data-name="Path 889" d="M673.224,249.283a3.481,3.481,0,1,1-1.047-4.81A3.481,3.481,0,0,1,673.224,249.283Z" transform="translate(-651.86 -209.753)"/>
            <path id="Path_890" data-name="Path 890" d="M688.593,259.16a3.481,3.481,0,1,1-1.047-4.81A3.483,3.483,0,0,1,688.593,259.16Z" transform="translate(-652.276 -210.021)"/>
          </g>
          <g id="Group_763" data-name="Group 763" transform="translate(49.136 225.525)">
            <circle id="Ellipse_45" data-name="Ellipse 45" cx="18.551" cy="18.551" r="18.551" transform="translate(0 36.094) rotate(-76.606)" fill="#fff" stroke="#000" stroke-miterlimit="10" stroke-width="1.388"/>
            <path id="Path_891" data-name="Path 891" d="M409.3,357.634s12.69,74.424,86.56,77.859" transform="translate(-386.958 -335.29)" fill="none" stroke="#000" stroke-miterlimit="10" stroke-width="1.388"/>
          </g>
          <g id="Group_764" data-name="Group 764" transform="translate(0 174.083)">
            <path id="Path_892" data-name="Path 892" d="M363.923,287.863a3.481,3.481,0,1,1,.253-4.916A3.481,3.481,0,0,1,363.923,287.863Z" transform="translate(-336.438 -281.798)"/>
            <path id="Path_893" data-name="Path 893" d="M376.161,301.427a3.481,3.481,0,1,1,.253-4.917A3.481,3.481,0,0,1,376.161,301.427Z" transform="translate(-336.769 -282.164)"/>
            <path id="Path_894" data-name="Path 894" d="M388.4,314.991a3.481,3.481,0,1,1,.253-4.917A3.481,3.481,0,0,1,388.4,314.991Z" transform="translate(-337.1 -282.531)"/>
            <path id="Path_895" data-name="Path 895" d="M352.786,297.912a3.481,3.481,0,1,1,.252-4.916A3.481,3.481,0,0,1,352.786,297.912Z" transform="translate(-336.136 -282.069)"/>
            <path id="Path_896" data-name="Path 896" d="M365.024,311.476a3.481,3.481,0,1,1,.252-4.916A3.482,3.482,0,0,1,365.024,311.476Z" transform="translate(-336.467 -282.436)"/>
            <path id="Path_897" data-name="Path 897" d="M377.262,325.04a3.481,3.481,0,1,1,.253-4.917A3.482,3.482,0,0,1,377.262,325.04Z" transform="translate(-336.798 -282.803)"/>
            <path id="Path_898" data-name="Path 898" d="M341.648,307.961a3.481,3.481,0,1,1,.253-4.916A3.481,3.481,0,0,1,341.648,307.961Z" transform="translate(-335.835 -282.341)"/>
            <path id="Path_899" data-name="Path 899" d="M353.886,321.525a3.481,3.481,0,1,1,.253-4.917A3.482,3.482,0,0,1,353.886,321.525Z" transform="translate(-336.166 -282.708)"/>
            <path id="Path_900" data-name="Path 900" d="M366.124,335.089a3.481,3.481,0,1,1,.253-4.917A3.482,3.482,0,0,1,366.124,335.089Z" transform="translate(-336.497 -283.075)"/>
          </g>
        </g>
      </g>
    </g>
  </g>
</svg>
