<svg xmlns="http://www.w3.org/2000/svg" xmlns:xlink="http://www.w3.org/1999/xlink" width="24" height="24" viewBox="0 0 24 24">
  <defs>
    <clipPath id="clip-path">
      <rect id="Rectangle_127" data-name="Rectangle 127" width="24" height="24" transform="translate(-0.117)" fill="#878787" stroke="#707070" stroke-width="1"/>
    </clipPath>
  </defs>
  <g id="Mask_Group_27" data-name="Mask Group 27" transform="translate(0.117)" clip-path="url(#clip-path)">
    <path id="_005-instagram" data-name="005-instagram" d="M12.253,24.034h-.239c-1.884,0-3.625-.043-5.317-.146a7.108,7.108,0,0,1-4.1-1.551A6.577,6.577,0,0,1,.39,18.769a15.809,15.809,0,0,1-.363-3.775C.015,14.116,0,13.076,0,12.019s.015-2.1.027-2.979A15.811,15.811,0,0,1,.39,5.265,6.577,6.577,0,0,1,2.6,1.7,7.108,7.108,0,0,1,6.7.147C8.39.044,10.131,0,12.019,0s3.625.043,5.317.146a7.108,7.108,0,0,1,4.1,1.551,6.576,6.576,0,0,1,2.21,3.568,15.81,15.81,0,0,1,.363,3.775c.012.877.025,1.917.027,2.974s-.015,2.1-.027,2.979a.939.939,0,1,1-1.877-.026c.012-.872.025-1.905.027-2.953s-.015-2.076-.027-2.949a14.383,14.383,0,0,0-.3-3.336,4.74,4.74,0,0,0-1.577-2.577,5.172,5.172,0,0,0-3.025-1.132c-1.653-.1-3.355-.147-5.2-.143s-3.555.043-5.208.143A5.173,5.173,0,0,0,3.786,3.153,4.74,4.74,0,0,0,2.209,5.73a14.383,14.383,0,0,0-.3,3.336c-.012.872-.024,1.905-.027,2.953s.015,2.076.027,2.949a14.383,14.383,0,0,0,.3,3.336,4.74,4.74,0,0,0,1.577,2.577,5.172,5.172,0,0,0,3.025,1.132c1.653.1,3.355.147,5.2.143s3.555-.042,5.208-.143a5.172,5.172,0,0,0,3.025-1.132,4.511,4.511,0,0,0,1.289-1.727.939.939,0,0,1,1.723.746,6.368,6.368,0,0,1-1.825,2.436,7.107,7.107,0,0,1-4.1,1.551c-1.621.1-3.286.147-5.083.147Zm5.584-12.017a5.868,5.868,0,1,0-5.868,5.868A5.874,5.874,0,0,0,17.837,12.017Zm-1.878,0a3.99,3.99,0,1,1-3.99-3.99A3.994,3.994,0,0,1,15.959,12.017Zm2.535-7.745A1.408,1.408,0,1,0,19.9,5.68,1.408,1.408,0,0,0,18.494,4.272Zm0,0" transform="translate(0 0)" fill="#878787"/>
  </g>
</svg>
