<svg xmlns="http://www.w3.org/2000/svg" xmlns:xlink="http://www.w3.org/1999/xlink" width="24" height="24" viewBox="0 0 24 24">
  <defs>
    <clipPath id="clip-path">
      <rect id="Rectangle_127" data-name="Rectangle 127" width="24" height="24" transform="translate(-0.059)" fill="#878787" stroke="#707070" stroke-width="1"/>
    </clipPath>
  </defs>
  <g id="Mask_Group_26" data-name="Mask Group 26" transform="translate(0.059)" clip-path="url(#clip-path)">
    <path id="_004-linkedin" data-name="004-linkedin" d="M6.572,19.856H5.164a.939.939,0,0,1-.939-.939V10.186a.939.939,0,0,1,.939-.939H6.572a.939.939,0,0,1,.939.939v8.731A.939.939,0,0,1,6.572,19.856ZM7.839,5.867A1.924,1.924,0,1,0,5.915,7.792,1.925,1.925,0,0,0,7.839,5.867Zm11.97,13.05v-4.9c0-2.848-.6-4.96-3.928-4.96a3.41,3.41,0,0,0-3.11,1.631h0v-.5a.939.939,0,0,0-.939-.939H10.515a.939.939,0,0,0-.939.939v8.731a.939.939,0,0,0,.939.939h1.314a.939.939,0,0,0,.939-.939V14.589c0-1.379.351-2.716,2.061-2.716,1.687,0,1.741,1.577,1.741,2.8v4.241a.939.939,0,0,0,.939.939H18.87a.939.939,0,0,0,.939-.939Zm4.225,1.361a.939.939,0,1,0-1.878,0,1.88,1.88,0,0,1-1.878,1.878H3.755a1.88,1.88,0,0,1-1.878-1.878V3.755A1.88,1.88,0,0,1,3.755,1.878H20.278a1.88,1.88,0,0,1,1.878,1.878V15.537a.939.939,0,1,0,1.878,0V3.755A3.759,3.759,0,0,0,20.278,0H3.755A3.759,3.759,0,0,0,0,3.755V20.278a3.759,3.759,0,0,0,3.755,3.755H20.278A3.759,3.759,0,0,0,24.034,20.278Zm0,0" transform="translate(0)" fill="#878787"/>
  </g>
</svg>
