<svg xmlns="http://www.w3.org/2000/svg" width="49" height="48" viewBox="0 0 49 48">
  <g id="Group_133" data-name="Group 133" transform="translate(-615.5 -7925)">
    <g id="Rectangle_51" data-name="Rectangle 51" transform="translate(616 7925)" fill="#118ab2" stroke="#118ab2" stroke-width="1" opacity="0">
      <rect width="48" height="48" stroke="none"/>
      <rect x="0.5" y="0.5" width="47" height="47" fill="none"/>
    </g>
    <g id="infographic" transform="translate(614 7925)">
      <g id="Group_123" data-name="Group 123" transform="translate(2 39.25)">
        <path id="Path_114" data-name="Path 114" d="M2,28.5H50v2.25H2Z" transform="translate(-2 -28.5)" fill="#118ab2"/>
        <path id="Path_114_-_Outline" data-name="Path 114 - Outline" d="M1.5,28h49v3.25H1.5Zm48,1H2.5v1.25h47Z" transform="translate(-2 -28.5)" fill="#118ab2"/>
      </g>
      <g id="Group_124" data-name="Group 124" transform="translate(9.5 31)">
        <path id="Path_115" data-name="Path 115" d="M14.875,33.5H8.125A1.125,1.125,0,0,1,7,32.375v-7.5A1.878,1.878,0,0,1,8.875,23h5.25A1.878,1.878,0,0,1,16,24.875v7.5A1.125,1.125,0,0,1,14.875,33.5ZM9.25,31.25h4.5v-6H9.25Z" transform="translate(-7 -23)" fill="#118ab2"/>
        <path id="Path_115_-_Outline" data-name="Path 115 - Outline" d="M14.875,34H8.125A1.627,1.627,0,0,1,6.5,32.375v-7.5A2.378,2.378,0,0,1,8.875,22.5h5.25A2.378,2.378,0,0,1,16.5,24.875v7.5A1.627,1.627,0,0,1,14.875,34Zm-6-10.5A1.377,1.377,0,0,0,7.5,24.875v7.5A.626.626,0,0,0,8.125,33h6.75a.626.626,0,0,0,.625-.625v-7.5A1.377,1.377,0,0,0,14.125,23.5Zm5.375,8.25H8.75v-7h5.5Zm-4.5-1h3.5v-5H9.75Z" transform="translate(-7 -23)" fill="#118ab2"/>
      </g>
      <g id="Group_125" data-name="Group 125" transform="translate(21.5 22)">
        <path id="Path_116" data-name="Path 116" d="M22.875,36.5h-6.75A1.125,1.125,0,0,1,15,35.375v-16.5A1.878,1.878,0,0,1,16.875,17h5.25A1.878,1.878,0,0,1,24,18.875v16.5A1.125,1.125,0,0,1,22.875,36.5ZM17.25,34.25h4.5v-15h-4.5Z" transform="translate(-15 -17)" fill="#118ab2"/>
        <path id="Path_116_-_Outline" data-name="Path 116 - Outline" d="M22.875,37h-6.75A1.627,1.627,0,0,1,14.5,35.375v-16.5A2.378,2.378,0,0,1,16.875,16.5h5.25A2.378,2.378,0,0,1,24.5,18.875v16.5A1.627,1.627,0,0,1,22.875,37Zm-6-19.5A1.377,1.377,0,0,0,15.5,18.875v16.5a.626.626,0,0,0,.625.625h6.75a.626.626,0,0,0,.625-.625v-16.5A1.377,1.377,0,0,0,22.125,17.5ZM22.25,34.75h-5.5v-16h5.5Zm-4.5-1h3.5v-14h-3.5Z" transform="translate(-15 -17)" fill="#118ab2"/>
      </g>
      <g id="Group_126" data-name="Group 126" transform="translate(33.5 25)">
        <path id="Path_117" data-name="Path 117" d="M30.875,35.5h-6.75A1.125,1.125,0,0,1,23,34.375v-13.5A1.878,1.878,0,0,1,24.875,19h5.25A1.878,1.878,0,0,1,32,20.875v13.5A1.125,1.125,0,0,1,30.875,35.5ZM25.25,33.25h4.5v-12h-4.5Z" transform="translate(-23 -19)" fill="#118ab2"/>
        <path id="Path_117_-_Outline" data-name="Path 117 - Outline" d="M30.875,36h-6.75A1.627,1.627,0,0,1,22.5,34.375v-13.5A2.378,2.378,0,0,1,24.875,18.5h5.25A2.378,2.378,0,0,1,32.5,20.875v13.5A1.627,1.627,0,0,1,30.875,36Zm-6-16.5A1.377,1.377,0,0,0,23.5,20.875v13.5a.626.626,0,0,0,.625.625h6.75a.626.626,0,0,0,.625-.625v-13.5A1.377,1.377,0,0,0,30.125,19.5ZM30.25,33.75h-5.5v-13h5.5Zm-4.5-1h3.5v-11h-3.5Z" transform="translate(-23 -19)" fill="#118ab2"/>
      </g>
      <g id="Group_127" data-name="Group 127" transform="translate(11.352 7.33)">
        <path id="Path_118" data-name="Path 118" d="M9.781,21.581,8.235,19.948,15.36,13.2a1.119,1.119,0,0,1,.974-.289l11.794,2.145L35.962,7.22l1.59,1.59L29.3,17.06a1.131,1.131,0,0,1-1,.312L16.493,15.224Z" transform="translate(-8.235 -7.22)" fill="#118ab2"/>
        <path id="Path_118_-_Outline" data-name="Path 118 - Outline" d="M9.762,22.288l-2.234-2.36,7.488-7.094a1.615,1.615,0,0,1,1.115-.446,1.585,1.585,0,0,1,.3.028l11.533,2.1,8-8,2.3,2.3-8.6,8.6a1.64,1.64,0,0,1-1.152.477,1.587,1.587,0,0,1-.289-.026l-11.563-2.1Zm-.821-2.321.859.907,6.532-6.187L28.4,16.88a.624.624,0,0,0,.553-.174l7.9-7.9-.883-.883L28.3,15.592,16.244,13.4a.6.6,0,0,0-.113-.011.627.627,0,0,0-.427.171Z" transform="translate(-8.235 -7.22)" fill="#118ab2"/>
      </g>
      <g id="Group_128" data-name="Group 128" transform="translate(33.5 7)">
        <path id="Path_119" data-name="Path 119" d="M30.5,14.5H28.25V9.25H23V7h6.375A1.125,1.125,0,0,1,30.5,8.125Z" transform="translate(-23 -7)" fill="#118ab2"/>
        <path id="Path_119_-_Outline" data-name="Path 119 - Outline" d="M31,15H27.75V9.75H22.5V6.5h6.875A1.627,1.627,0,0,1,31,8.125Zm-2.25-1H30V8.125a.626.626,0,0,0-.625-.625H23.5V8.75h5.25Z" transform="translate(-23 -7)" fill="#118ab2"/>
      </g>
    </g>
  </g>
</svg>
