<svg xmlns="http://www.w3.org/2000/svg" width="48" height="49" viewBox="0 0 48 49">
  <g id="Group_137" data-name="Group 137" transform="translate(-1640 -8048.5)">
    <rect id="Rectangle_51" data-name="Rectangle 51" width="48" height="48" transform="translate(1640 8049)" fill="#118ab2" opacity="0"/>
    <g id="bookmark_1_" data-name="bookmark (1)" transform="translate(1636 8043)">
      <path id="Path_57" data-name="Path 57" d="M48,54H12a5.007,5.007,0,0,1-5-5V11a5.007,5.007,0,0,1,5-5H44a1,1,0,0,1,1,1v7h3a1,1,0,0,1,1,1V53A1,1,0,0,1,48,54ZM9,15V49a3,3,0,0,0,3,3H47V16H12a4.982,4.982,0,0,1-3-1Zm3-7a3,3,0,1,0,0,6H43V8Z" fill="#118ab2" stroke="#118ab2" stroke-width="1"/>
      <path id="Path_58" data-name="Path 58" d="M27,30a1.008,1.008,0,0,1-.708-.292L21,24.414l-5.292,5.292A1,1,0,0,1,14,29V11a1,1,0,0,1,2,0V26.586l4.292-4.292a1,1,0,0,1,1.414,0L26,26.586V11a1,1,0,0,1,2,0V29a1,1,0,0,1-.618.924A.986.986,0,0,1,27,30Z" transform="translate(7 4)" fill="#118ab2" stroke="#118ab2" stroke-width="1"/>
    </g>
  </g>
</svg>
