<svg xmlns="http://www.w3.org/2000/svg" width="48" height="48" viewBox="0 0 48 48">
  <g id="Group_134" data-name="Group 134" transform="translate(-488 -7925)">
    <rect id="Rectangle_51" data-name="Rectangle 51" width="48" height="48" transform="translate(488 7925)" fill="#118ab2" opacity="0"/>
    <g id="image-gallery" transform="translate(482 7919)">
      <g id="regular_1.5" transform="translate(6.001 8)">
        <g id="Group_108" data-name="Group 108" transform="translate(0 17.022)">
          <path id="Path_100" data-name="Path 100" d="M41.406,43.489a4.529,4.529,0,0,1-1.146-.148L9.331,35.059a4.541,4.541,0,0,1-3.184-5.51l3.4-13.038,2.9.758-3.4,13.04a1.527,1.527,0,0,0,1.068,1.854l30.91,8.278a1.493,1.493,0,0,0,1.822-1.052l1.056-4.26,2.912.72-1.06,4.28a4.5,4.5,0,0,1-4.352,3.36Z" transform="translate(-6.001 -16.511)" fill="#118ab2"/>
        </g>
        <g id="Group_109" data-name="Group 109" transform="translate(7.999)">
          <path id="Path_101" data-name="Path 101" d="M45.5,40h-31A4.5,4.5,0,0,1,10,35.5v-23A4.5,4.5,0,0,1,14.5,8h31A4.5,4.5,0,0,1,50,12.5v23A4.5,4.5,0,0,1,45.5,40Zm-31-29A1.5,1.5,0,0,0,13,12.5v23A1.5,1.5,0,0,0,14.5,37h31A1.5,1.5,0,0,0,47,35.5v-23A1.5,1.5,0,0,0,45.5,11Z" transform="translate(-10 -8)" fill="#118ab2"/>
        </g>
        <g id="Group_110" data-name="Group 110" transform="translate(13.999 6)">
          <path id="Path_102" data-name="Path 102" d="M17,19a4,4,0,1,1,4-4A4,4,0,0,1,17,19Zm0-5a1,1,0,1,0,1,1A1,1,0,0,0,17,14Z" transform="translate(-13 -11)" fill="#118ab2"/>
        </g>
        <g id="Group_111" data-name="Group 111" transform="translate(8.479 10.6)">
          <path id="Path_103" data-name="Path 103" d="M12.36,32.22,10.24,30.1l9.04-9.04a3.51,3.51,0,0,1,4.96,0l2.418,2.418,7.428-8.916A3.5,3.5,0,0,1,36.758,13.3a3.72,3.72,0,0,1,2.682,1.23L49.4,26.146,47.118,28.1l-9.96-11.62c-.134-.156-.232-.106-.384-.178a.5.5,0,0,0-.384.182l-8.48,10.18a1.5,1.5,0,0,1-1.084.538,1.427,1.427,0,0,1-1.128-.438l-3.58-3.58a.434.434,0,0,0-.718,0Z" transform="translate(-10.24 -13.3)" fill="#118ab2"/>
        </g>
      </g>
    </g>
  </g>
</svg>
