<svg xmlns="http://www.w3.org/2000/svg" width="24" height="24" viewBox="0 0 24 24"><rect width="24" height="24" fill="#2c2c2c" opacity="0"/><g transform="translate(0 1)"><g transform="translate(0 8.511)"><path d="M23.7,30a2.265,2.265,0,0,1-.573-.074L7.666,25.785A2.271,2.271,0,0,1,6.074,23.03l1.7-6.519,1.451.379-1.7,6.52a.763.763,0,0,0,.534.927l15.455,4.139a.746.746,0,0,0,.911-.526l.528-2.13,1.456.36-.53,2.14A2.252,2.252,0,0,1,23.7,30Z" transform="translate(-6.001 -16.511)" fill="#2c2c2c"/></g><g transform="translate(3.999)"><path d="M27.75,24H12.25A2.252,2.252,0,0,1,10,21.75V10.25A2.252,2.252,0,0,1,12.25,8h15.5A2.252,2.252,0,0,1,30,10.25v11.5A2.252,2.252,0,0,1,27.75,24ZM12.25,9.5a.75.75,0,0,0-.75.75v11.5a.75.75,0,0,0,.75.75h15.5a.75.75,0,0,0,.75-.75V10.25a.75.75,0,0,0-.75-.75Z" transform="translate(-10 -8)" fill="#2c2c2c"/></g><g transform="translate(6.999 3)"><path d="M15,15a2,2,0,1,1,2-2A2,2,0,0,1,15,15Zm0-2.5a.5.5,0,1,0,.5.5A.5.5,0,0,0,15,12.5Z" transform="translate(-13 -11)" fill="#2c2c2c"/></g><g transform="translate(4.239 5.3)"><path d="M11.3,22.76,10.24,21.7l4.52-4.52a1.755,1.755,0,0,1,2.48,0l1.209,1.209,3.714-4.458A1.75,1.75,0,0,1,23.5,13.3a1.86,1.86,0,0,1,1.341.615l4.978,5.808-1.139.977L23.7,14.89c-.067-.078-.116-.053-.192-.089a.251.251,0,0,0-.192.091l-4.24,5.09a.748.748,0,0,1-.542.269.713.713,0,0,1-.564-.219l-1.79-1.79a.217.217,0,0,0-.359,0Z" transform="translate(-10.24 -13.3)" fill="#2c2c2c"/></g></g></svg>