<svg xmlns="http://www.w3.org/2000/svg" width="48" height="48" viewBox="0 0 48 48">
  <g id="Group_136" data-name="Group 136" transform="translate(-232 -7925)">
    <rect id="Rectangle_51" data-name="Rectangle 51" width="48" height="48" transform="translate(232 7925)" fill="#118ab2" opacity="0"/>
    <g id="brainstorming" transform="translate(226 7919)">
      <path id="Path_65" data-name="Path 65" d="M39.32,17.823a1.468,1.468,0,0,1-.486-.082,1.5,1.5,0,0,1-.932-1.906,4.589,4.589,0,0,0,.238-1.49C38.14,11.4,35.448,9,32.14,9a6.187,6.187,0,0,0-5.172,2.666,1.558,1.558,0,0,1-2.512,0A6.19,6.19,0,0,0,19.285,9c-3.308,0-6,2.4-6,5.348a4.6,4.6,0,0,0,.238,1.49,1.5,1.5,0,1,1-2.836.974,7.532,7.532,0,0,1-.4-2.464c0-4.6,4.038-8.347,9-8.347a9.261,9.261,0,0,1,6.427,2.514A9.261,9.261,0,0,1,32.14,6c4.962,0,9,3.746,9,8.347a7.532,7.532,0,0,1-.4,2.464A1.5,1.5,0,0,1,39.32,17.823Z" transform="translate(4.285)" fill="#118ab2"/>
      <path id="Path_66" data-name="Path 66" d="M36.425,49.595A9.264,9.264,0,0,1,30,47.081a9.261,9.261,0,0,1-6.427,2.514c-4.962,0-9-3.746-9-8.347,0-.146,0-.29.014-.436a10.25,10.25,0,0,1-6.443-9.347A9.583,9.583,0,0,1,9.4,26.707,8.987,8.987,0,0,1,6,19.727C6,14.586,10.518,10.4,16.071,10.4a5.615,5.615,0,0,1,5.786,5.414,1.5,1.5,0,0,1-3,0A2.656,2.656,0,0,0,16.071,13.4C12.171,13.4,9,16.24,9,19.727a6.176,6.176,0,0,0,3.22,5.3,1.5,1.5,0,0,1,.416,2.234,6.678,6.678,0,0,0-1.494,4.208,7.392,7.392,0,0,0,5.532,6.917A1.5,1.5,0,0,1,17.7,40.168a4.742,4.742,0,0,0-.128,1.08c0,2.948,2.692,5.348,6,5.348a6.187,6.187,0,0,0,5.172-2.666,1.558,1.558,0,0,1,2.512,0,6.187,6.187,0,0,0,5.172,2.666c3.308,0,6-2.4,6-5.348a4.742,4.742,0,0,0-.128-1.08,1.5,1.5,0,0,1,1.028-1.786,7.4,7.4,0,0,0,5.532-6.917,6.674,6.674,0,0,0-1.494-4.208,1.5,1.5,0,0,1,.416-2.232,6.175,6.175,0,0,0,3.22-5.3c0-3.488-3.172-6.325-7.071-6.325a2.656,2.656,0,0,0-2.786,2.414,2.656,2.656,0,0,0,2.786,2.414,1.5,1.5,0,1,1,0,3,5.615,5.615,0,0,1-5.786-5.414A5.615,5.615,0,0,1,43.929,10.4C49.482,10.4,54,14.588,54,19.729a8.987,8.987,0,0,1-3.4,6.979,9.583,9.583,0,0,1,1.254,4.758,10.25,10.25,0,0,1-6.443,9.347c.01.146.014.29.014.436,0,4.6-4.042,8.345-9,8.345Z" transform="translate(0 4.401)" fill="#118ab2"/>
      <path id="Path_67" data-name="Path 67" d="M14.6,31.169a12.5,12.5,0,0,1-3.188-.438,1.5,1.5,0,0,1,.824-2.884c1,.28,3.374.612,4.382-.152a1.608,1.608,0,0,0,.546-1.446c0-1.892-.608-2.5-2.5-2.5a1.5,1.5,0,0,1,0-3c3.546,0,5.5,1.954,5.5,5.5a4.548,4.548,0,0,1-1.744,3.842,6.32,6.32,0,0,1-3.82,1.078Z" transform="translate(4.33 14.748)" fill="#118ab2"/>
      <path id="Path_68" data-name="Path 68" d="M22,25a1.485,1.485,0,0,1-.976-.362,1.5,1.5,0,0,1-.162-2.116L23.024,20l-2.162-2.524a1.5,1.5,0,1,1,2.278-1.954l3,3.5a1.5,1.5,0,0,1,0,1.954l-3,3.5A1.5,1.5,0,0,1,22,25Z" transform="translate(14.498 8.998)" fill="#118ab2"/>
      <path id="Path_69" data-name="Path 69" d="M17,25a1.494,1.494,0,0,1-1.138-.524l-3-3.5a1.5,1.5,0,0,1,0-1.954l3-3.5a1.5,1.5,0,1,1,2.278,1.954L15.975,20l2.162,2.524A1.5,1.5,0,0,1,17,25Z" transform="translate(6.499 8.998)" fill="#118ab2"/>
      <path id="Path_70" data-name="Path 70" d="M18,29.5a1.5,1.5,0,0,1-1.464-1.836l3-13a1.5,1.5,0,1,1,2.922.672l-3,13A1.5,1.5,0,0,1,18,29.5Z" transform="translate(10.498 7.499)" fill="#118ab2"/>
    </g>
  </g>
</svg>
