<svg xmlns="http://www.w3.org/2000/svg" width="24" height="24" viewBox="0 0 24 24"><g transform="translate(0.116)"><rect width="24" height="24" transform="translate(-0.116)" fill="#2c2c2c" opacity="0"/><g transform="translate(0)"><path d="M13.746,11.971A.747.747,0,0,1,13,11.225V6.746a.746.746,0,0,1,1.493,0v4.478A.747.747,0,0,1,13.746,11.971Z" transform="translate(-6.034 -6)" fill="#2c2c2c"/><path d="M22.246,11.971a.747.747,0,0,1-.746-.746V6.746a.746.746,0,0,1,1.493,0v4.478A.747.747,0,0,1,22.246,11.971Z" transform="translate(-6.075 -6)" fill="#2c2c2c"/><path d="M22.246,19.971a.747.747,0,0,1-.746-.746V14.746a.746.746,0,1,1,1.493,0v4.478A.747.747,0,0,1,22.246,19.971Z" transform="translate(-6.075 -6.039)" fill="#2c2c2c"/><path d="M19.246,19.971a.747.747,0,0,1-.746-.746V14.746a.746.746,0,1,1,1.493,0v4.478A.747.747,0,0,1,19.246,19.971Z" transform="translate(-6.06 -6.039)" fill="#2c2c2c"/><path d="M18.487,11.971h-1A1.743,1.743,0,0,1,15.75,10.23V7.742A1.743,1.743,0,0,1,17.492,6h1a1.743,1.743,0,0,1,1.742,1.742V10.23A1.743,1.743,0,0,1,18.487,11.971Zm-1-4.478a.249.249,0,0,0-.249.249V10.23a.249.249,0,0,0,.249.249h1a.249.249,0,0,0,.249-.249V7.742a.249.249,0,0,0-.249-.249Z" transform="translate(-6.047 -6)" fill="#2c2c2c"/><path d="M15.737,19.971h-1A1.743,1.743,0,0,1,13,18.23V15.742A1.743,1.743,0,0,1,14.742,14h1a1.743,1.743,0,0,1,1.742,1.742V18.23A1.743,1.743,0,0,1,15.737,19.971Zm-1-4.478a.249.249,0,0,0-.249.249V18.23a.249.249,0,0,0,.249.249h1a.249.249,0,0,0,.249-.249V15.742a.249.249,0,0,0-.249-.249Z" transform="translate(-6.034 -6.039)" fill="#2c2c2c"/><path d="M28.143,25.923H7.742A1.743,1.743,0,0,1,6,24.181V11.742A1.743,1.743,0,0,1,7.742,10h2.986a.746.746,0,0,1,0,1.493H7.742a.251.251,0,0,0-.249.249v12.44a.251.251,0,0,0,.249.249h20.4a.251.251,0,0,0,.249-.249V11.742a.251.251,0,0,0-.249-.249H25.157a.746.746,0,0,1,0-1.493h2.986a1.743,1.743,0,0,1,1.742,1.742v12.44A1.743,1.743,0,0,1,28.143,25.923Z" transform="translate(-6 -6.019)" fill="#2c2c2c"/><path d="M22.205,29.993H13.746a.746.746,0,0,1,0-1.493h8.459a.746.746,0,0,1,0,1.493Z" transform="translate(-6.034 -6.108)" fill="#2c2c2c"/><path d="M18,29.973a.747.747,0,0,1-.746-.746V25.246a.746.746,0,0,1,1.493,0v3.981A.747.747,0,0,1,18,29.973Z" transform="translate(-6.054 -6.089)" fill="#2c2c2c"/></g></g></svg>