<svg xmlns="http://www.w3.org/2000/svg" width="48" height="48" viewBox="0 0 48 48">
  <g id="Group_130" data-name="Group 130" transform="translate(-1000 -7925)">
    <rect id="Rectangle_51" data-name="Rectangle 51" width="48" height="48" transform="translate(1000 7925)" fill="#118ab2" opacity="0"/>
    <g id="binary-code" transform="translate(994 7919)">
      <path id="Path_40" data-name="Path 40" d="M14.5,18A1.5,1.5,0,0,1,13,16.5v-9a1.5,1.5,0,0,1,3,0v9A1.5,1.5,0,0,1,14.5,18Z" transform="translate(7)" fill="#118ab2"/>
      <path id="Path_41" data-name="Path 41" d="M23,18a1.5,1.5,0,0,1-1.5-1.5v-9a1.5,1.5,0,0,1,3,0v9A1.5,1.5,0,0,1,23,18Z" transform="translate(15.5)" fill="#118ab2"/>
      <path id="Path_42" data-name="Path 42" d="M23,26a1.5,1.5,0,0,1-1.5-1.5v-9a1.5,1.5,0,0,1,3,0v9A1.5,1.5,0,0,1,23,26Z" transform="translate(15.5 8)" fill="#118ab2"/>
      <path id="Path_43" data-name="Path 43" d="M20,26a1.5,1.5,0,0,1-1.5-1.5v-9a1.5,1.5,0,0,1,3,0v9A1.5,1.5,0,0,1,20,26Z" transform="translate(12.5 8)" fill="#118ab2"/>
      <path id="Path_44" data-name="Path 44" d="M21.25,18h-2a3.5,3.5,0,0,1-3.5-3.5v-5A3.5,3.5,0,0,1,19.25,6h2a3.5,3.5,0,0,1,3.5,3.5v5A3.5,3.5,0,0,1,21.25,18Zm-2-9a.5.5,0,0,0-.5.5v5a.5.5,0,0,0,.5.5h2a.5.5,0,0,0,.5-.5v-5a.5.5,0,0,0-.5-.5Z" transform="translate(9.75)" fill="#118ab2"/>
      <path id="Path_45" data-name="Path 45" d="M18.5,26h-2A3.5,3.5,0,0,1,13,22.5v-5A3.5,3.5,0,0,1,16.5,14h2A3.5,3.5,0,0,1,22,17.5v5A3.5,3.5,0,0,1,18.5,26Zm-2-9a.5.5,0,0,0-.5.5v5a.5.5,0,0,0,.5.5h2a.5.5,0,0,0,.5-.5v-5a.5.5,0,0,0-.5-.5Z" transform="translate(7 8)" fill="#118ab2"/>
      <path id="Path_46" data-name="Path 46" d="M50.5,42H9.5A3.5,3.5,0,0,1,6,38.5v-25A3.5,3.5,0,0,1,9.5,10h6a1.5,1.5,0,0,1,0,3h-6a.505.505,0,0,0-.5.5v25a.505.505,0,0,0,.5.5h41a.505.505,0,0,0,.5-.5v-25a.505.505,0,0,0-.5-.5h-6a1.5,1.5,0,0,1,0-3h6A3.5,3.5,0,0,1,54,13.5v25A3.5,3.5,0,0,1,50.5,42Z" transform="translate(0 4)" fill="#118ab2"/>
      <path id="Path_47" data-name="Path 47" d="M31.5,31.5h-17a1.5,1.5,0,0,1,0-3h17a1.5,1.5,0,0,1,0,3Z" transform="translate(7 22.5)" fill="#118ab2"/>
      <path id="Path_48" data-name="Path 48" d="M18.75,35.5a1.5,1.5,0,0,1-1.5-1.5V26a1.5,1.5,0,0,1,3,0v8A1.5,1.5,0,0,1,18.75,35.5Z" transform="translate(11.25 18.5)" fill="#118ab2"/>
    </g>
  </g>
</svg>
