<svg xmlns="http://www.w3.org/2000/svg" width="49" height="48" viewBox="0 0 49 48">
  <g id="Group_131" data-name="Group 131" transform="translate(-871.5 -7925)">
    <rect id="Rectangle_51" data-name="Rectangle 51" width="48" height="48" transform="translate(872 7925)" fill="#118ab2" opacity="0"/>
    <g id="translate" transform="translate(866 7921)">
      <path id="Path_143" data-name="Path 143" d="M15,34H13a7,7,0,0,1,0-14h2a1,1,0,0,1,0,2H13a5,5,0,0,0,0,10h2a1,1,0,0,1,0,2Z" transform="translate(0 14)" fill="#118ab2"/>
      <path id="Path_143_-_Outline" data-name="Path 143 - Outline" d="M15,34.5H13a7.5,7.5,0,0,1,0-15h2a1.5,1.5,0,0,1,0,3H13a4.5,4.5,0,0,0,0,9h2a1.5,1.5,0,0,1,0,3Zm-2-14a6.5,6.5,0,0,0,0,13h2a.5.5,0,0,0,0-1H13a5.5,5.5,0,0,1,0-11h2a.5.5,0,0,0,0-1Z" transform="translate(0 14)" fill="#118ab2"/>
      <path id="Path_144" data-name="Path 144" d="M28,34H26a1,1,0,0,1,0-2h2a5,5,0,0,0,0-10H26a1,1,0,0,1,0-2h2a7,7,0,0,1,0,14Z" transform="translate(19 14)" fill="#118ab2"/>
      <path id="Path_144_-_Outline" data-name="Path 144 - Outline" d="M28,34.5H26a1.5,1.5,0,0,1,0-3h2a4.5,4.5,0,0,0,0-9H26a1.5,1.5,0,0,1,0-3h2a7.5,7.5,0,0,1,0,15Zm-2-2a.5.5,0,0,0,0,1h2a6.5,6.5,0,0,0,0-13H26a.5.5,0,0,0,0,1h2a5.5,5.5,0,0,1,0,11Z" transform="translate(19 14)" fill="#118ab2"/>
      <path id="Path_145" data-name="Path 145" d="M26,37a1,1,0,0,1-1-1V20a1,1,0,0,1,2,0V36A1,1,0,0,1,26,37Z" transform="translate(19 13)" fill="#118ab2"/>
      <path id="Path_145_-_Outline" data-name="Path 145 - Outline" d="M26,37.5A1.5,1.5,0,0,1,24.5,36V20a1.5,1.5,0,0,1,3,0V36A1.5,1.5,0,0,1,26,37.5Zm0-18a.5.5,0,0,0-.5.5V36a.5.5,0,0,0,1,0V20A.5.5,0,0,0,26,19.5Z" transform="translate(19 13)" fill="#118ab2"/>
      <path id="Path_146" data-name="Path 146" d="M11,37a1,1,0,0,1-1-1V20a1,1,0,0,1,2,0V36A1,1,0,0,1,11,37Z" transform="translate(4 13)" fill="#118ab2"/>
      <path id="Path_146_-_Outline" data-name="Path 146 - Outline" d="M11,37.5A1.5,1.5,0,0,1,9.5,36V20a1.5,1.5,0,0,1,3,0V36A1.5,1.5,0,0,1,11,37.5Zm0-18a.5.5,0,0,0-.5.5V36a.5.5,0,0,0,1,0V20A.5.5,0,0,0,11,19.5Z" transform="translate(4 13)" fill="#118ab2"/>
      <path id="Path_147" data-name="Path 147" d="M47,36a1,1,0,0,1-1-1V26a18,18,0,0,0-36,0v9a1,1,0,0,1-2,0V26a20,20,0,0,1,40,0v9A1,1,0,0,1,47,36Z" transform="translate(2)" fill="#118ab2"/>
      <path id="Path_147_-_Outline" data-name="Path 147 - Outline" d="M47,36.5A1.5,1.5,0,0,1,45.5,35V26a17.5,17.5,0,0,0-35,0v9a1.5,1.5,0,0,1-3,0V26a20.5,20.5,0,0,1,41,0v9A1.5,1.5,0,0,1,47,36.5ZM28,7.5A18.521,18.521,0,0,1,46.5,26v9a.5.5,0,0,0,1,0V26a19.5,19.5,0,0,0-39,0v9a.5.5,0,0,0,1,0V26A18.521,18.521,0,0,1,28,7.5Z" transform="translate(2)" fill="#118ab2"/>
      <path id="Path_148" data-name="Path 148" d="M31.833,22H14.056a1,1,0,0,1,0-2H31.833a1,1,0,1,1,0,2Z" transform="translate(7.056 14)" fill="#118ab2"/>
      <path id="Path_148_-_Outline" data-name="Path 148 - Outline" d="M31.833,22.5H14.056a1.5,1.5,0,0,1,0-3H31.833a1.5,1.5,0,0,1,0,3Zm-17.777-2a.5.5,0,0,0,0,1H31.833a.5.5,0,0,0,0-1Z" transform="translate(7.056 14)" fill="#118ab2"/>
      <path id="Path_149" data-name="Path 149" d="M18.5,24a1,1,0,0,1-1-1V19a1,1,0,0,1,2,0v4A1,1,0,0,1,18.5,24Z" transform="translate(11.5 12)" fill="#118ab2"/>
      <path id="Path_149_-_Outline" data-name="Path 149 - Outline" d="M18.5,24.5A1.5,1.5,0,0,1,17,23V19a1.5,1.5,0,0,1,3,0v4A1.5,1.5,0,0,1,18.5,24.5Zm0-6a.5.5,0,0,0-.5.5v4a.5.5,0,0,0,1,0V19A.5.5,0,0,0,18.5,18.5Z" transform="translate(11.5 12)" fill="#118ab2"/>
      <path id="Path_150" data-name="Path 150" d="M15,36a1,1,0,0,1-.285-1.959c6.735-2.006,11.1-6.7,12.3-13.221a1,1,0,1,1,1.967.359c-1.34,7.3-6.2,12.547-13.7,14.779A1.032,1.032,0,0,1,15,36Z" transform="translate(8 14.002)" fill="#118ab2"/>
      <path id="Path_150_-_Outline" data-name="Path 150 - Outline" d="M15,36.5a1.509,1.509,0,0,1-1.437-1.072,1.5,1.5,0,0,1,1.009-1.866c6.547-1.95,10.792-6.507,11.953-12.832A1.508,1.508,0,0,1,28.019,19.5a1.606,1.606,0,0,1,.236.018l.017,0a1.5,1.5,0,0,1,1.2,1.746c-1.375,7.493-6.364,12.88-14.047,15.168A1.536,1.536,0,0,1,15,36.5Zm13.019-16a.5.5,0,0,0-.51.406c-1.233,6.715-5.726,11.548-12.651,13.611a.5.5,0,0,0-.337.622.505.505,0,0,0,.625.337c7.3-2.175,12.041-7.285,13.345-14.389a.5.5,0,0,0-.393-.58A.6.6,0,0,0,28.019,20.5Z" transform="translate(8 14.002)" fill="#118ab2"/>
      <path id="Path_151" data-name="Path 151" d="M28.5,36a1.032,1.032,0,0,1-.285-.041c-7.494-2.232-12.359-7.48-13.7-14.779a1,1,0,0,1,.8-1.164,1.011,1.011,0,0,1,1.164.8c1.2,6.52,5.565,11.215,12.3,13.221A1,1,0,0,1,28.5,36Z" transform="translate(8.5 14.002)" fill="#118ab2"/>
      <path id="Path_151_-_Outline" data-name="Path 151 - Outline" d="M28.5,36.5a1.528,1.528,0,0,1-.424-.061C20.388,34.147,15.4,28.76,14.025,21.268a1.5,1.5,0,0,1,1.2-1.746l.019,0a1.62,1.62,0,0,1,.232-.017,1.509,1.509,0,0,1,1.5,1.227c1.16,6.324,5.405,10.881,11.952,12.831A1.5,1.5,0,0,1,28.5,36.5ZM15.4,20.507a.5.5,0,0,0-.392.58c1.3,7.1,6.044,12.214,13.349,14.39a.529.529,0,0,0,.142.02.5.5,0,0,0,.142-.98c-6.926-2.062-11.418-6.9-12.65-13.61a.5.5,0,0,0-.512-.407A.617.617,0,0,0,15.4,20.507Z" transform="translate(8.5 14.002)" fill="#118ab2"/>
    </g>
  </g>
</svg>
