<svg xmlns="http://www.w3.org/2000/svg" width="24" height="23.51" viewBox="0 0 24 23.51"><rect width="23.51" height="23.51" transform="translate(0.245)" fill="#2c2c2c" opacity="0"/><g transform="translate(0 0.735)"><path d="M10.408,26.857h-.98a3.429,3.429,0,1,1,0-6.857h.98a.49.49,0,0,1,0,.98h-.98a2.449,2.449,0,0,0,0,4.9h.98a.49.49,0,1,1,0,.98Z" transform="translate(-5.755 -6.041)" fill="#2c2c2c"/><path d="M10.153,26.847h-.98a3.673,3.673,0,0,1,0-7.347h.98a.735.735,0,0,1,0,1.469h-.98a2.2,2.2,0,0,0,0,4.408h.98a.735.735,0,1,1,0,1.469Zm-.98-6.857a3.184,3.184,0,0,0,0,6.367h.98a.245.245,0,1,0,0-.49h-.98a2.694,2.694,0,0,1,0-5.388h.98a.245.245,0,1,0,0-.49Z" transform="translate(-5.5 -5.786)" fill="#2c2c2c"/><path d="M26.469,26.857h-.98a.49.49,0,0,1,0-.98h.98a2.449,2.449,0,0,0,0-4.9h-.98a.49.49,0,1,1,0-.98h.98a3.429,3.429,0,0,1,0,6.857Z" transform="translate(-6.143 -6.041)" fill="#2c2c2c"/><path d="M26.214,26.847h-.98a.735.735,0,1,1,0-1.469h.98a2.2,2.2,0,0,0,0-4.408h-.98a.735.735,0,0,1,0-1.469h.98a3.673,3.673,0,0,1,0,7.347Zm-.98-.98a.245.245,0,1,0,0,.49h.98a3.184,3.184,0,0,0,0-6.367h-.98a.245.245,0,0,0,0,.49h.98a2.694,2.694,0,0,1,0,5.388Z" transform="translate(-5.888 -5.786)" fill="#2c2c2c"/><path d="M25.49,27.816a.49.49,0,0,1-.49-.49V19.49a.49.49,0,0,1,.98,0v7.837A.49.49,0,0,1,25.49,27.816Z" transform="translate(-6.143 -6.02)" fill="#2c2c2c"/><path d="M25.235,27.806a.736.736,0,0,1-.735-.735V19.235a.735.735,0,0,1,1.469,0v7.837A.736.736,0,0,1,25.235,27.806Zm0-8.816a.245.245,0,0,0-.245.245v7.837a.245.245,0,1,0,.49,0V19.235A.245.245,0,0,0,25.235,18.99Z" transform="translate(-5.888 -5.765)" fill="#2c2c2c"/><path d="M10.49,27.816a.49.49,0,0,1-.49-.49V19.49a.49.49,0,0,1,.98,0v7.837A.49.49,0,0,1,10.49,27.816Z" transform="translate(-5.837 -6.02)" fill="#2c2c2c"/><path d="M10.235,27.806a.736.736,0,0,1-.735-.735V19.235a.735.735,0,0,1,1.469,0v7.837A.736.736,0,0,1,10.235,27.806Zm0-8.816a.245.245,0,0,0-.245.245v7.837a.245.245,0,1,0,.49,0V19.235A.245.245,0,0,0,10.235,18.99Z" transform="translate(-5.582 -5.765)" fill="#2c2c2c"/><path d="M27.1,20.694a.49.49,0,0,1-.49-.49V15.8a8.816,8.816,0,0,0-17.633,0V20.2a.49.49,0,0,1-.98,0V15.8a9.8,9.8,0,0,1,19.592,0V20.2A.49.49,0,0,1,27.1,20.694Z" transform="translate(-5.796 -5.755)" fill="#2c2c2c"/><path d="M26.847,20.684a.736.736,0,0,1-.735-.735V15.541a8.571,8.571,0,0,0-17.143,0v4.408a.735.735,0,1,1-1.469,0V15.541a10.041,10.041,0,1,1,20.082,0v4.408A.736.736,0,0,1,26.847,20.684ZM17.541,6.48A9.071,9.071,0,0,1,26.6,15.541v4.408a.245.245,0,0,0,.49,0V15.541a9.551,9.551,0,1,0-19.1,0v4.408a.245.245,0,0,0,.49,0V15.541A9.071,9.071,0,0,1,17.541,6.48Z" transform="translate(-5.541 -5.5)" fill="#2c2c2c"/><path d="M22.253,20.98H13.545a.49.49,0,0,1,0-.98h8.707a.49.49,0,1,1,0,.98Z" transform="translate(-5.899 -6.041)" fill="#2c2c2c"/><path d="M22,20.969H13.29a.735.735,0,0,1,0-1.469H22a.735.735,0,0,1,0,1.469Zm-8.707-.98a.245.245,0,1,0,0,.49H22a.245.245,0,0,0,0-.49Z" transform="translate(-5.644 -5.786)" fill="#2c2c2c"/><path d="M17.99,20.939a.49.49,0,0,1-.49-.49V18.49a.49.49,0,0,1,.98,0v1.959A.49.49,0,0,1,17.99,20.939Z" transform="translate(-5.99 -6)" fill="#2c2c2c"/><path d="M17.735,20.929A.736.736,0,0,1,17,20.194V18.235a.735.735,0,1,1,1.469,0v1.959A.736.736,0,0,1,17.735,20.929Zm0-2.939a.245.245,0,0,0-.245.245v1.959a.245.245,0,1,0,.49,0V18.235A.245.245,0,0,0,17.735,17.99Z" transform="translate(-5.735 -5.745)" fill="#2c2c2c"/><path d="M14.49,27.837a.49.49,0,0,1-.14-.96A8.121,8.121,0,0,0,20.375,20.4a.49.49,0,1,1,.963.176,9.06,9.06,0,0,1-6.709,7.239.506.506,0,0,1-.14.02Z" transform="translate(-5.918 -6.041)" fill="#2c2c2c"/><path d="M14.234,27.827a.739.739,0,0,1-.7-.525.735.735,0,0,1,.494-.914A7.886,7.886,0,0,0,19.879,20.1a.739.739,0,0,1,.732-.6.787.787,0,0,1,.115.009h.008a.735.735,0,0,1,.59.855,9.3,9.3,0,0,1-6.88,7.429A.752.752,0,0,1,14.234,27.827Zm6.376-7.835a.246.246,0,0,0-.25.2,8.356,8.356,0,0,1-6.2,6.666.245.245,0,0,0-.165.3.248.248,0,0,0,.306.165,8.825,8.825,0,0,0,6.536-7.048.245.245,0,0,0-.192-.284Z" transform="translate(-5.663 -5.786)" fill="#2c2c2c"/><path d="M21.357,27.837a.506.506,0,0,1-.14-.02,9.059,9.059,0,0,1-6.709-7.239.49.49,0,0,1,.393-.57.5.5,0,0,1,.57.394A8.119,8.119,0,0,0,21.5,26.877a.49.49,0,0,1-.14.96Z" transform="translate(-5.929 -6.041)" fill="#2c2c2c"/><path d="M21.1,27.827a.748.748,0,0,1-.208-.03,9.3,9.3,0,0,1-6.882-7.43.735.735,0,0,1,.59-.855h.009a.794.794,0,0,1,.113-.008.739.739,0,0,1,.733.6,7.885,7.885,0,0,0,5.854,6.284.735.735,0,0,1-.21,1.439Zm-6.416-7.832a.245.245,0,0,0-.192.284,8.825,8.825,0,0,0,6.538,7.048.259.259,0,0,0,.07.01.245.245,0,0,0,.07-.48,8.354,8.354,0,0,1-6.2-6.666.247.247,0,0,0-.251-.2Z" transform="translate(-5.673 -5.786)" fill="#2c2c2c"/></g></svg>