<svg xmlns="http://www.w3.org/2000/svg" width="48" height="48" viewBox="0 0 48 48">
  <g id="Group_135" data-name="Group 135" transform="translate(-360 -7925)">
    <rect id="Rectangle_51" data-name="Rectangle 51" width="48" height="48" transform="translate(360 7925)" fill="#118ab2" opacity="0"/>
    <g id="darts" transform="translate(354 7919)">
      <path id="Path_78" data-name="Path 78" d="M16,27.5l15-15Z" transform="translate(10 6.5)" fill="#118ab2"/>
      <path id="Path_83" data-name="Path 83" d="M29.5,20h-5A1.5,1.5,0,0,1,23,18.5v-5a1.494,1.494,0,0,1,.44-1.06l6-6A1.5,1.5,0,0,1,32,7.5V11h3.5a1.5,1.5,0,0,1,1.06,2.56l-6,6A1.494,1.494,0,0,1,29.5,20ZM26,17h2.878l3-3H30.5A1.5,1.5,0,0,1,29,12.5V11.122l-3,3Z" transform="translate(17)" fill="#118ab2"/>
      <path id="Path_84" data-name="Path 84" d="M26,50A19.982,19.982,0,1,1,45.178,35.69L42.3,34.838a17.009,17.009,0,1,0-.836,2.228l2.728,1.248A20.057,20.057,0,0,1,26,50Z" transform="translate(0 4)" fill="#118ab2"/>
      <path id="Path_85" data-name="Path 85" d="M22.5,39.5a13,13,0,1,1,13-13A13.015,13.015,0,0,1,22.5,39.5Zm0-23a10,10,0,1,0,10,10A10.011,10.011,0,0,0,22.5,16.5Z" transform="translate(3.5 7.5)" fill="#118ab2"/>
      <path id="Path_86" data-name="Path 86" d="M19,29a6,6,0,1,1,6-6A6.007,6.007,0,0,1,19,29Zm0-9a3,3,0,1,0,3,3A3,3,0,0,0,19,20Z" transform="translate(7 11)" fill="#118ab2"/>
      <path id="Path_87" data-name="Path 87" d="M16.75,29.751a1.5,1.5,0,0,1-1.06-2.562l15-15a1.5,1.5,0,0,1,2.122,2.122l-15,15a1.5,1.5,0,0,1-1.062.44Z" transform="translate(9.25 5.749)" fill="#118ab2"/>
    </g>
  </g>
</svg>
