<svg xmlns="http://www.w3.org/2000/svg" width="24" height="24" viewBox="0 0 24 24"><g transform="translate(0 0)"><rect width="24" height="24" fill="#2c2c2c" opacity="0"/><g transform="translate(0 0)"><path d="M16,20l7.5-7.5Z" transform="translate(-6 -6)" fill="#2c2c2c"/><path d="M26.25,13h-2.5a.75.75,0,0,1-.75-.75V9.75a.747.747,0,0,1,.22-.53l3-3a.75.75,0,0,1,1.28.53V8.5h1.75a.75.75,0,0,1,.53,1.28l-3,3a.747.747,0,0,1-.53.22ZM24.5,11.5h1.439l1.5-1.5H26.75A.75.75,0,0,1,26,9.25V8.561l-1.5,1.5Z" transform="translate(-6 -6)" fill="#2c2c2c"/><path d="M16,30a9.991,9.991,0,1,1,9.589-7.155l-1.438-.426a8.5,8.5,0,1,0-.418,1.114l1.364.624A10.029,10.029,0,0,1,16,30Z" transform="translate(-6 -6)" fill="#2c2c2c"/><path d="M16,26.5A6.5,6.5,0,1,1,22.5,20,6.507,6.507,0,0,1,16,26.5ZM16,15a5,5,0,1,0,5,5A5.006,5.006,0,0,0,16,15Z" transform="translate(-6 -6)" fill="#2c2c2c"/><path d="M16,23a3,3,0,1,1,3-3A3,3,0,0,1,16,23Zm0-4.5A1.5,1.5,0,1,0,17.5,20,1.5,1.5,0,0,0,16,18.5Z" transform="translate(-6 -6)" fill="#2c2c2c"/><path d="M16,20.75a.75.75,0,0,1-.53-1.281l7.5-7.5a.75.75,0,0,1,1.061,1.061l-7.5,7.5a.748.748,0,0,1-.531.22Z" transform="translate(-6 -6)" fill="#2c2c2c"/></g></g></svg>