<svg xmlns="http://www.w3.org/2000/svg" width="48" height="49" viewBox="0 0 48 49">
  <g id="Group_132" data-name="Group 132" transform="translate(-744 -7924.5)">
    <rect id="Rectangle_51" data-name="Rectangle 51" width="48" height="48" transform="translate(744 7925)" fill="#118ab2" opacity="0"/>
    <g id="square-root" transform="translate(739 7919)">
      <path id="Path_130" data-name="Path 130" d="M22,20a1,1,0,0,1-.832-.446l-4-6a1,1,0,0,1,1.664-1.108l2.866,4.3,3.354-10.06A1,1,0,0,1,26,6H40a1,1,0,1,1,0,2H26.72L22.948,19.316a1,1,0,0,1-.816.674A.734.734,0,0,1,22,20Z" transform="translate(10 0)" fill="#118ab2"/>
      <path id="Path_130_-_Outline" data-name="Path 130 - Outline" d="M22,20.5a1.5,1.5,0,0,1-1.248-.669l-4-6a1.5,1.5,0,1,1,2.5-1.662l2.3,3.447,3.031-9.09A1.5,1.5,0,0,1,26,5.5H40a1.5,1.5,0,0,1,0,3H27.08L23.422,19.474a1.5,1.5,0,0,1-1.214,1.01A1.25,1.25,0,0,1,22,20.5Zm-4-8a.5.5,0,0,0-.415.777l4,6A.5.5,0,0,0,22,19.5a.279.279,0,0,0,.043,0l.024,0a.493.493,0,0,0,.407-.336L26.36,7.5H40a.5.5,0,0,0,0-1H26a.5.5,0,0,0-.474.342l-3.677,11.03-3.433-5.148A.5.5,0,0,0,18,12.5Z" transform="translate(10 0)" fill="#118ab2"/>
      <path id="Path_131" data-name="Path 131" d="M30,20H24a1,1,0,0,1-1-1V18a5.007,5.007,0,0,1,5-5,1,1,0,0,0,1-1V11a1,1,0,0,0-1-1H24a1,1,0,0,1,0-2h4a3,3,0,0,1,3,3v1a3,3,0,0,1-3,3,3,3,0,0,0-3,3h5a1,1,0,0,1,0,2Z" transform="translate(16 2)" fill="#118ab2"/>
      <path id="Path_131_-_Outline" data-name="Path 131 - Outline" d="M30,20.5H24A1.5,1.5,0,0,1,22.5,19V18A5.506,5.506,0,0,1,28,12.5a.5.5,0,0,0,.5-.5V11a.5.5,0,0,0-.5-.5H24a1.5,1.5,0,0,1,0-3h4A3.5,3.5,0,0,1,31.5,11v1A3.5,3.5,0,0,1,28,15.5a2.5,2.5,0,0,0-2.45,2H30a1.5,1.5,0,0,1,0,3Zm-6-12a.5.5,0,0,0,0,1h4A1.5,1.5,0,0,1,29.5,11v1A1.5,1.5,0,0,1,28,13.5,4.505,4.505,0,0,0,23.5,18v1a.5.5,0,0,0,.5.5h6a.5.5,0,0,0,0-1H24.5V18A3.5,3.5,0,0,1,28,14.5,2.5,2.5,0,0,0,30.5,12V11A2.5,2.5,0,0,0,28,8.5Z" transform="translate(16 2)" fill="#118ab2"/>
      <path id="Path_132" data-name="Path 132" d="M8,42a1,1,0,0,1-1-1V11a5.007,5.007,0,0,1,5-5H30a1,1,0,0,1,0,2H12a3,3,0,0,0-3,3V41A1,1,0,0,1,8,42Z" fill="#118ab2"/>
      <path id="Path_132_-_Outline" data-name="Path 132 - Outline" d="M8,42.5A1.5,1.5,0,0,1,6.5,41V11A5.506,5.506,0,0,1,12,5.5H30a1.5,1.5,0,0,1,0,3H12A2.5,2.5,0,0,0,9.5,11V41A1.5,1.5,0,0,1,8,42.5Zm4-36A4.505,4.505,0,0,0,7.5,11V41a.5.5,0,0,0,1,0V11A3.5,3.5,0,0,1,12,7.5H30a.5.5,0,0,0,0-1Z" fill="#118ab2"/>
      <path id="Path_133" data-name="Path 133" d="M20,36H12a5,5,0,0,1,0-10H41V17a1,1,0,0,1,2,0V27a1,1,0,0,1-1,1H12a3,3,0,0,0,0,6h8a1,1,0,0,1,0,2Z" transform="translate(0 10)" fill="#118ab2"/>
      <path id="Path_133_-_Outline" data-name="Path 133 - Outline" d="M20,36.5H12a5.5,5.5,0,0,1,0-11H40.5V17a1.5,1.5,0,0,1,3,0V27A1.5,1.5,0,0,1,42,28.5H12a2.5,2.5,0,0,0,0,5h8a1.5,1.5,0,0,1,0,3Zm-8-10a4.5,4.5,0,0,0,0,9h8a.5.5,0,0,0,0-1H12a3.5,3.5,0,0,1,0-7H42a.5.5,0,0,0,.5-.5V17a.5.5,0,0,0-1,0v9.5Z" transform="translate(0 10)" fill="#118ab2"/>
      <path id="Path_134" data-name="Path 134" d="M31,31H19a1,1,0,0,1,0-2H30V22a1,1,0,0,1,2,0v8A1,1,0,0,1,31,31Z" transform="translate(11 15)" fill="#118ab2"/>
      <path id="Path_134_-_Outline" data-name="Path 134 - Outline" d="M31,31.5H19a1.5,1.5,0,0,1,0-3H29.5V22a1.5,1.5,0,0,1,3,0v8A1.5,1.5,0,0,1,31,31.5Zm-12-2a.5.5,0,0,0,0,1H31a.5.5,0,0,0,.5-.5V22a.5.5,0,0,0-1,0v7.5Z" transform="translate(11 15)" fill="#118ab2"/>
      <path id="Path_135" data-name="Path 135" d="M24,37a1.01,1.01,0,0,1-.626-.218L19,33.28l-4.376,3.5A1,1,0,0,1,13,36V24a1,1,0,0,1,2,0v9.918l3.376-2.7a1,1,0,0,1,1.25,0L23,33.918V24a1,1,0,0,1,2,0V36a1,1,0,0,1-1,1Z" transform="translate(6 17)" fill="#118ab2"/>
      <path id="Path_135_-_Outline" data-name="Path 135 - Outline" d="M24,37.5a1.515,1.515,0,0,1-.936-.326L19,33.92l-4.064,3.25A1.5,1.5,0,0,1,12.5,36V24a1.5,1.5,0,0,1,3,0v8.878l2.564-2.05a1.5,1.5,0,0,1,1.874,0l2.562,2.05V24a1.5,1.5,0,0,1,3,0V36A1.5,1.5,0,0,1,24,37.5Zm-5-4.86,4.686,3.752A.509.509,0,0,0,24,36.5a.5.5,0,0,0,.5-.5V24a.5.5,0,0,0-1,0V34.959l-4.186-3.35a.5.5,0,0,0-.626,0L14.5,34.958V24a.5.5,0,0,0-1,0V36a.5.5,0,0,0,.282.449A.509.509,0,0,0,14,36.5a.5.5,0,0,0,.312-.11Z" transform="translate(6 17)" fill="#118ab2"/>
      <path id="Path_136" data-name="Path 136" d="M30,25H12a1,1,0,0,1,0-2H30a1,1,0,0,1,0,2Z" transform="translate(4 17)" fill="#118ab2"/>
      <path id="Path_136_-_Outline" data-name="Path 136 - Outline" d="M30,25.5H12a1.5,1.5,0,0,1,0-3H30a1.5,1.5,0,0,1,0,3Zm-18-2a.5.5,0,0,0,0,1H30a.5.5,0,0,0,0-1Z" transform="translate(4 17)" fill="#118ab2"/>
    </g>
  </g>
</svg>
