<svg xmlns="http://www.w3.org/2000/svg" width="23.51" height="24" viewBox="0 0 23.51 24"><rect width="23.51" height="23.51" transform="translate(0 0.245)" fill="#2c2c2c" opacity="0"/><g transform="translate(0.735)"><path d="M19.449,12.857a.49.49,0,0,1-.408-.218L17.082,9.7a.49.49,0,0,1,.815-.543l1.4,2.105,1.643-4.927A.49.49,0,0,1,21.408,6h6.857a.49.49,0,1,1,0,.98h-6.5l-1.848,5.543a.488.488,0,0,1-.4.33.359.359,0,0,1-.065,0Z" transform="translate(-6.959 -5.755)" fill="#2c2c2c"/><path d="M19.194,12.847a.732.732,0,0,1-.611-.328L16.624,9.581a.734.734,0,1,1,1.223-.814l1.126,1.688L20.457,6a.734.734,0,0,1,.7-.5h6.857a.735.735,0,1,1,0,1.469H21.683l-1.792,5.375a.737.737,0,0,1-.595.495A.612.612,0,0,1,19.194,12.847ZM17.235,8.929a.245.245,0,0,0-.2.381l1.959,2.939a.244.244,0,0,0,.2.109h.021l.012,0a.241.241,0,0,0,.2-.164l1.9-5.71h6.681a.245.245,0,1,0,0-.49H21.153a.244.244,0,0,0-.232.168l-1.8,5.4L17.439,9.038A.244.244,0,0,0,17.235,8.929Z" transform="translate(-6.705 -5.5)" fill="#2c2c2c"/><path d="M26.429,13.878H23.49a.49.49,0,0,1-.49-.49V12.9a2.452,2.452,0,0,1,2.449-2.449.49.49,0,0,0,.49-.49v-.49a.49.49,0,0,0-.49-.49H23.49a.49.49,0,0,1,0-.98h1.959a1.471,1.471,0,0,1,1.469,1.469v.49a1.471,1.471,0,0,1-1.469,1.469A1.471,1.471,0,0,0,23.98,12.9h2.449a.49.49,0,0,1,0,.98Z" transform="translate(-7.082 -5.796)" fill="#2c2c2c"/><path d="M26.173,13.867H23.235a.736.736,0,0,1-.735-.735v-.49a2.7,2.7,0,0,1,2.694-2.694.245.245,0,0,0,.245-.245v-.49a.245.245,0,0,0-.245-.245H23.235a.735.735,0,0,1,0-1.469h1.959a1.716,1.716,0,0,1,1.714,1.714V9.7a1.716,1.716,0,0,1-1.714,1.714,1.227,1.227,0,0,0-1.2.98h2.179a.735.735,0,0,1,0,1.469ZM23.235,7.99a.245.245,0,0,0,0,.49h1.959a.736.736,0,0,1,.735.735V9.7a.736.736,0,0,1-.735.735,2.207,2.207,0,0,0-2.2,2.2v.49a.245.245,0,0,0,.245.245h2.939a.245.245,0,0,0,0-.49H23.48v-.245a1.716,1.716,0,0,1,1.714-1.714A1.226,1.226,0,0,0,26.418,9.7v-.49A1.226,1.226,0,0,0,25.194,7.99Z" transform="translate(-6.827 -5.541)" fill="#2c2c2c"/><path d="M7.49,23.633a.49.49,0,0,1-.49-.49V8.449A2.452,2.452,0,0,1,9.449,6h8.816a.49.49,0,0,1,0,.98H9.449A1.471,1.471,0,0,0,7.98,8.449V23.143A.49.49,0,0,1,7.49,23.633Z" transform="translate(-6.755 -5.755)" fill="#2c2c2c"/><path d="M7.235,23.622a.736.736,0,0,1-.735-.735V8.194A2.7,2.7,0,0,1,9.194,5.5H18.01a.735.735,0,0,1,0,1.469H9.194A1.226,1.226,0,0,0,7.969,8.194V22.888A.736.736,0,0,1,7.235,23.622ZM9.194,5.99a2.207,2.207,0,0,0-2.2,2.2V22.888a.245.245,0,0,0,.49,0V8.194A1.716,1.716,0,0,1,9.194,6.48H18.01a.245.245,0,0,0,0-.49Z" transform="translate(-6.5 -5.5)" fill="#2c2c2c"/><path d="M13.367,25.8H9.449a2.449,2.449,0,1,1,0-4.9h14.2V16.49a.49.49,0,0,1,.98,0v4.9a.49.49,0,0,1-.49.49H9.449a1.469,1.469,0,1,0,0,2.939h3.918a.49.49,0,0,1,0,.98Z" transform="translate(-6.755 -5.959)" fill="#2c2c2c"/><path d="M13.112,25.786H9.194a2.694,2.694,0,0,1,0-5.388H23.153V16.235a.735.735,0,0,1,1.469,0v4.9a.736.736,0,0,1-.735.735H9.194a1.224,1.224,0,1,0,0,2.449h3.918a.735.735,0,0,1,0,1.469Zm-3.918-4.9a2.2,2.2,0,1,0,0,4.408h3.918a.245.245,0,1,0,0-.49H9.194a1.714,1.714,0,1,1,0-3.429H23.888a.245.245,0,0,0,.245-.245v-4.9a.245.245,0,1,0-.49,0v4.653Z" transform="translate(-6.5 -5.704)" fill="#2c2c2c"/><path d="M24.367,25.9H18.49a.49.49,0,0,1,0-.98h5.388V21.49a.49.49,0,0,1,.98,0v3.918A.49.49,0,0,1,24.367,25.9Z" transform="translate(-6.98 -6.061)" fill="#2c2c2c"/><path d="M24.112,25.888H18.235a.735.735,0,1,1,0-1.469h5.143V21.235a.735.735,0,1,1,1.469,0v3.918A.736.736,0,0,1,24.112,25.888Zm-5.878-.98a.245.245,0,1,0,0,.49h5.878a.245.245,0,0,0,.245-.245V21.235a.245.245,0,1,0-.49,0v3.673Z" transform="translate(-6.724 -5.806)" fill="#2c2c2c"/><path d="M18.388,29.857a.5.5,0,0,1-.307-.107l-2.142-1.715L13.8,29.749a.49.49,0,0,1-.8-.382V23.49a.49.49,0,0,1,.98,0v4.858l1.654-1.322a.49.49,0,0,1,.612,0L17.9,28.348V23.49a.49.49,0,0,1,.98,0v5.878a.488.488,0,0,1-.49.49Z" transform="translate(-6.878 -6.102)" fill="#2c2c2c"/><path d="M18.133,29.847a.742.742,0,0,1-.459-.16l-1.99-1.594-1.99,1.592a.735.735,0,0,1-1.193-.573V23.235a.735.735,0,0,1,1.469,0v4.348l1.256-1a.735.735,0,0,1,.918,0l1.255,1V23.235a.735.735,0,1,1,1.469,0v5.878a.733.733,0,0,1-.735.735Zm-2.449-2.381,2.3,1.838a.249.249,0,0,0,.154.053.243.243,0,0,0,.245-.245V23.235a.245.245,0,1,0-.49,0V28.6l-2.05-1.641a.246.246,0,0,0-.306,0L13.48,28.6V23.235a.245.245,0,0,0-.49,0v5.878a.245.245,0,0,0,.138.22.249.249,0,0,0,.107.024.244.244,0,0,0,.153-.054Z" transform="translate(-6.622 -5.847)" fill="#2c2c2c"/><path d="M20.306,23.98H11.49a.49.49,0,0,1,0-.98h8.816a.49.49,0,0,1,0,.98Z" transform="translate(-6.837 -6.102)" fill="#2c2c2c"/><path d="M20.051,23.969H11.235a.735.735,0,0,1,0-1.469h8.816a.735.735,0,1,1,0,1.469Zm-8.816-.98a.245.245,0,0,0,0,.49h8.816a.245.245,0,1,0,0-.49Z" transform="translate(-6.582 -5.847)" fill="#2c2c2c"/></g></svg>