<svg id="layer1" xmlns="http://www.w3.org/2000/svg" width="35.494" height="35.494" viewBox="0 0 35.494 35.494">
  <path id="path2307-9" d="M43.712,25.933a8.646,8.646,0,1,1,.682,15.962L36.272,38.93l2.965-8.122a8.619,8.619,0,0,1,4.475-4.875Zm1.216,2.613-.125.06-.123.063-.122.066-.12.069-.119.071-.117.074-.115.077-.113.08-.111.083-.11.085-.108.088-.106.091-.1.094-.1.1-.1.1-.1.1-.095.1-.092.106-.09.109-.087.111-.085.114q-.042.058-.082.116t-.079.119q-.039.06-.077.121t-.074.123q-.036.062-.071.126t-.068.128q-.033.065-.065.13t-.062.133q-.03.067-.059.135T42,31.657q-.027.069-.053.139L39.968,37.21l5.415,1.977.14.049.141.045.141.042.141.038.142.034.142.03.142.027.142.023.142.019.142.016.142.012.142.009.141.005.141,0,.141,0,.14-.005.14-.009.139-.012.139-.016.138-.019.138-.022.137-.025.136-.029.135-.032.134-.035.133-.038.132-.041.131-.045.13-.048.129-.051.127-.054L49.79,39l.125-.06.123-.063.122-.066.12-.069.119-.071.117-.074.115-.077.113-.08.111-.083.11-.085.108-.088.106-.091.1-.094.1-.1.1-.1.1-.1.095-.1.092-.107.09-.109.087-.112q.043-.056.085-.114t.082-.116q.04-.059.079-.119t.077-.121q.038-.061.074-.123t.071-.126q.035-.063.068-.128t.065-.13q.032-.066.062-.133t.059-.135q.029-.068.056-.137t.053-.139q.026-.07.049-.14t.045-.141q.022-.07.042-.141t.038-.141q.018-.071.034-.142t.03-.142q.014-.071.027-.142t.023-.142q.011-.071.019-.142t.016-.142q.007-.071.012-.142t.009-.142q0-.071.005-.141t0-.141q0-.071,0-.141t-.005-.14q0-.07-.009-.14t-.012-.139q-.007-.07-.016-.139t-.019-.138q-.01-.069-.022-.138t-.025-.137q-.014-.068-.029-.136t-.032-.135q-.017-.067-.035-.134t-.038-.133q-.02-.066-.041-.132t-.045-.131q-.023-.065-.048-.13t-.051-.129q-.026-.064-.054-.127t-.057-.126q-.029-.063-.06-.125t-.063-.123q-.032-.061-.066-.122t-.069-.12q-.035-.06-.072-.119t-.074-.117q-.038-.058-.077-.115l-.08-.113-.083-.111-.086-.11-.088-.108-.091-.106-.094-.1-.1-.1-.1-.1-.1-.1-.1-.095-.107-.092-.109-.09-.111-.087-.114-.085-.116-.082-.119-.079-.121-.077-.123-.074-.126-.071-.128-.068-.13-.065-.133-.062-.135-.059-.137-.056-.139-.053-.14-.049-.141-.045-.141-.042-.141-.038-.142-.034-.142-.03-.142-.027-.142-.023-.142-.019-.142-.016-.142-.012-.142-.009-.141-.005h-.141l-.141,0-.14.005-.14.009-.139.012-.139.016-.138.019-.138.022-.137.025-.136.029-.135.032-.134.035-.133.038-.132.041-.131.045-.13.048-.129.051-.127.054-.126.057Z" transform="translate(-20.514 -15.278)" fill="#118ab2"/>
  <path id="path2616-1" d="M17.392,21.234a4.988,4.988,0,1,0,4.988,4.988,4.988,4.988,0,0,0-4.988-4.988Zm0,2.882h.054l.054,0,.054,0,.054,0,.054.006.054.008.053.009.053.01.053.012.053.013.052.015.052.016.051.017.051.018.05.02.05.021.049.022.049.024.048.025.048.026.047.027.046.028.045.03.045.031.044.032.043.033.042.034.041.035.04.036.039.037.038.038.037.039.036.04.035.041.034.042.033.043.032.044.031.045.03.045.029.046.027.047.026.048.025.048.024.049.022.049.021.05.02.05.018.051.017.051.016.052.015.052.013.053q.006.026.012.053t.01.053q0,.027.009.053t.008.054q0,.027.006.054t0,.054q0,.027,0,.054t0,.054q0,.027,0,.054,0,.079-.006.157t-.018.157q-.012.078-.029.155t-.041.152q-.023.075-.052.149t-.063.144q-.034.071-.074.139t-.084.133q-.044.065-.094.127t-.1.119q-.054.058-.111.111t-.119.1q-.062.049-.127.094t-.133.084q-.068.039-.139.074t-.144.063q-.073.029-.149.052t-.152.041q-.077.018-.155.029t-.156.018q-.079.006-.157.006t-.157-.006q-.079-.006-.157-.018t-.155-.029q-.077-.018-.152-.041t-.149-.052q-.073-.029-.144-.063t-.139-.074q-.068-.039-.133-.084t-.127-.094q-.062-.049-.119-.1t-.111-.111q-.054-.058-.1-.119t-.094-.127q-.044-.065-.084-.133t-.074-.139q-.034-.071-.063-.144t-.052-.149q-.023-.075-.041-.152t-.029-.155q-.012-.078-.018-.156t-.006-.157q0-.079.006-.157t.018-.157q.012-.078.029-.155t.041-.152q.023-.075.052-.149t.063-.144q.034-.071.074-.139t.084-.133q.044-.065.094-.127t.1-.119q.054-.058.111-.111t.119-.1q.062-.049.127-.094t.133-.084q.068-.039.139-.074t.144-.063q.073-.029.149-.052t.152-.041q.077-.018.155-.029t.157-.018q.079-.006.157-.006Z" transform="translate(-9.277 -13.369)" fill="#00a7bc"/>
  <path id="path2616-2-2" d="M44.158,6.393a4.988,4.988,0,1,0,4.988,4.988,4.988,4.988,0,0,0-4.988-4.988Zm0,2.882h.054l.054,0,.054,0,.054,0,.054.006.054.008.053.009.053.01.053.012.053.013.052.015.052.016.051.017.051.018.05.02.05.021.049.022L45.1,9.5l.048.025.048.026.047.027.046.028.045.03.045.031.044.032.043.033.042.034.041.035.04.036.039.037.038.038.037.039.036.04.035.041.034.042.033.043.032.044.031.045.03.045.028.046.027.047.026.048.025.048.024.049.022.049.021.05.02.05.018.051.017.051.016.052.014.052.013.053q.006.026.012.053t.01.053q0,.027.009.053t.008.054q0,.027.006.054t0,.054q0,.027,0,.054t0,.054q0,.027,0,.054,0,.079-.006.157t-.018.157q-.012.078-.029.155T46.171,12q-.023.075-.052.149t-.063.144q-.034.071-.074.139t-.084.133q-.044.065-.094.127t-.1.119q-.054.058-.111.111t-.119.1q-.062.049-.127.094t-.133.084q-.068.039-.139.074t-.144.063q-.073.029-.149.052t-.152.041q-.077.018-.155.029t-.156.018q-.079.006-.157.006T44,13.481q-.079-.006-.157-.018t-.155-.029q-.077-.018-.152-.041t-.149-.052q-.073-.029-.144-.063t-.139-.074q-.068-.039-.133-.084t-.127-.094q-.062-.049-.119-.1t-.111-.111q-.054-.058-.1-.119t-.094-.127q-.044-.065-.084-.133t-.074-.139q-.034-.071-.063-.144T42.146,12q-.023-.075-.041-.152t-.029-.155q-.012-.078-.018-.156t-.006-.157q0-.079.006-.157t.018-.157q.012-.078.029-.155t.041-.152q.023-.075.052-.149t.063-.144q.034-.071.074-.139t.084-.133q.044-.065.094-.127t.1-.119q.054-.058.111-.111t.119-.1q.062-.049.127-.094t.133-.084q.068-.039.139-.074t.144-.063q.073-.029.149-.052t.152-.041q.077-.018.155-.029T44,9.28q.079-.006.157-.006Z" transform="translate(-21.754 -6.393)" fill="#118ab2"/>
  <path id="path3047-7" d="M11.627,41.82A8.646,8.646,0,1,0,23.4,52.624L26.36,44.5l-8.122-2.965a8.619,8.619,0,0,0-6.611.283Zm1.216,2.613.126-.057.127-.054.129-.051.13-.048.131-.045.132-.041.133-.038.134-.035.135-.032L14.156,44l.137-.025.138-.022.138-.019.139-.016.139-.012.14-.009.14-.005.141,0,.141,0,.141.005.142.009.142.012.142.016.142.019.142.023.142.027.142.03.142.034.141.038.141.042.141.045.14.049,5.415,1.977-1.977,5.415q-.026.07-.053.139t-.056.137q-.029.068-.059.135t-.062.133q-.032.066-.065.13t-.068.128q-.035.063-.071.126t-.074.123q-.038.061-.077.121t-.079.119q-.04.059-.082.116l-.085.114-.087.112-.09.109-.092.107-.095.1-.1.1-.1.1-.1.1-.1.094-.106.091-.108.088-.11.085-.111.083-.113.08-.115.077-.117.074-.119.071-.12.069-.122.066-.123.063-.125.06-.126.057L17.451,55l-.129.051-.13.048-.131.045-.132.041-.133.038-.134.035-.135.032-.136.029-.137.025-.138.022-.138.019-.139.016-.139.012-.14.009-.14.005-.141,0-.141,0L15,55.419l-.142-.009-.142-.012-.142-.016-.142-.019-.142-.023-.142-.027L14,55.283l-.142-.034-.141-.038-.141-.042-.141-.045-.14-.049-.139-.053-.137-.056-.135-.059-.133-.062-.13-.065-.128-.068-.126-.071-.123-.074-.121-.077-.119-.079-.116-.082-.114-.085-.111-.087-.109-.09-.107-.092-.1-.095-.1-.1-.1-.1-.1-.1-.094-.1-.091-.106-.088-.108-.086-.11-.083-.111-.08-.113-.077-.115q-.038-.058-.074-.117t-.072-.119q-.035-.06-.069-.12t-.066-.122q-.032-.061-.063-.123t-.06-.125q-.029-.063-.057-.126t-.054-.127q-.026-.064-.051-.129t-.048-.13q-.023-.065-.045-.131t-.041-.132q-.02-.066-.038-.133t-.035-.134q-.017-.067-.032-.135t-.029-.136q-.014-.068-.025-.137T9.57,50.5q-.01-.069-.019-.138t-.015-.139q-.007-.07-.012-.139t-.009-.14q0-.07-.005-.14t0-.141q0-.071,0-.141c0-.047,0-.094.005-.141s.005-.094.009-.142.008-.095.012-.142.01-.095.016-.142.012-.095.019-.142.015-.095.023-.142.017-.095.027-.142.02-.095.03-.142.022-.095.034-.142.025-.094.038-.141.027-.094.042-.141.03-.094.045-.141.032-.094.049-.14.035-.093.053-.139.037-.092.056-.137.039-.09.059-.135.041-.089.062-.133.043-.087.065-.13.045-.086.068-.128.047-.084.071-.126.049-.083.074-.123.051-.081.077-.121.052-.08.079-.119.054-.078.082-.116.056-.076.085-.114l.087-.111.09-.109.092-.106.095-.1.1-.1.1-.1.1-.1.1-.094.106-.091.108-.088.11-.085.111-.083.113-.08.115-.077.117-.074.119-.071.12-.069.122-.066.123-.063.125-.06Z" transform="translate(-6.625 -22.815)" fill="#00a7bc"/>
</svg>
