<?xml version="1.0" encoding="utf-8"?>
<!-- Generator: Adobe Illustrator 25.2.3, SVG Export Plug-In . SVG Version: 6.00 Build 0)  -->
<svg version="1.1" id="OBJECTS" xmlns="http://www.w3.org/2000/svg" xmlns:xlink="http://www.w3.org/1999/xlink" x="0px" y="0px"
	 viewBox="0 0 750 424" style="enable-background:new 0 0 750 424;" xml:space="preserve">
<style type="text/css">
	.st0{opacity:0.25;}
	.st1{fill:#0045B3;}
	.st2{fill:none;stroke:#0045B3;stroke-width:1.1362;stroke-miterlimit:10;}
	.st3{fill:none;stroke:#0045B3;stroke-width:0.8521;stroke-linecap:round;stroke-linejoin:round;stroke-miterlimit:10;}
	.st4{fill:none;stroke:#07AAC2;stroke-width:0.8521;stroke-linecap:round;stroke-linejoin:round;stroke-miterlimit:10;}
	.st5{fill:none;stroke:#00A7BC;stroke-width:0.8521;stroke-linecap:round;stroke-linejoin:round;stroke-miterlimit:10;}
	.st6{fill:#00A0AE;}
	.st7{fill:none;stroke:#FFFFFF;stroke-width:1.1362;stroke-miterlimit:10;}
	.st8{fill:#00A7BC;}
	.st9{fill:none;stroke:#00A0AE;stroke-width:1.1362;stroke-miterlimit:10;}
	.st10{fill:none;stroke:#22B6C5;stroke-width:1.1362;stroke-miterlimit:10;}
	.st11{fill:none;stroke:#00A7BC;stroke-width:1.1362;stroke-miterlimit:10;}
	.st12{fill:none;stroke:#50C5D3;stroke-width:1.1362;stroke-miterlimit:10;}
	.st13{fill:none;stroke:#00A7BC;stroke-width:1.1362;stroke-miterlimit:10;stroke-dasharray:4.5446;}
	.st14{fill:#0095BB;}
	.st15{fill:#FFFFFF;}
	.st16{clip-path:url(#SVGID_2_);}
	.st17{fill:#FFFFFF;stroke:#000000;stroke-width:1.1362;stroke-miterlimit:10;}
	.st18{fill:none;stroke:#1C191B;stroke-width:1.1362;stroke-miterlimit:10;}
	.st19{fill:#FFFFFF;stroke:#1C191B;stroke-width:1.1362;stroke-miterlimit:10;}
	.st20{fill:#00A7BC;stroke:#000000;stroke-width:1.1362;stroke-miterlimit:10;}
	.st21{fill:#00A7BC;stroke:#1C191B;stroke-width:1.1362;stroke-miterlimit:10;}
	.st22{fill:none;stroke:#020202;stroke-width:1.1362;stroke-miterlimit:10;}
	.st23{fill:none;stroke:#0C0C0C;stroke-width:1.1362;stroke-miterlimit:10;}
	.st24{fill:#07AAC2;}
	.st25{fill:none;stroke:#000000;stroke-width:1.1362;stroke-miterlimit:10;}
	.st26{fill:#07AAC2;stroke:#000000;stroke-width:1.1362;stroke-miterlimit:10;}
	.st27{stroke:#1C191B;stroke-width:1.1362;stroke-miterlimit:10;}
	.st28{fill:#0C0C0C;}
	.st29{fill:#FFF7F9;stroke:#0C0C0C;stroke-width:1.1362;stroke-miterlimit:10;}
	.st30{clip-path:url(#SVGID_4_);}
	.st31{fill:none;stroke:#000000;stroke-width:2.2723;stroke-miterlimit:10;}
	.st32{fill:#0045B3;stroke:#211F21;stroke-width:1.1362;stroke-miterlimit:10;}
	.st33{fill:#141414;}
	.st34{fill:#E7F6F8;}
	.st35{fill:#090909;}
	.st36{fill:none;}
	.st37{clip-path:url(#SVGID_6_);}
	.st38{fill:#0045B3;stroke:#000000;stroke-width:1.0328;stroke-miterlimit:10;}
	.st39{fill:#0045B3;stroke:#000000;stroke-width:1.1039;stroke-miterlimit:10;}
	.st40{fill:none;stroke:#000000;stroke-width:2.1361;stroke-miterlimit:10;}
	.st41{fill:#FFFFFF;stroke:#000000;stroke-width:1.068;stroke-miterlimit:10;}
	.st42{fill:#FFF7F9;}
	.st43{fill:#020202;}
	.st44{fill:#00A7BC;stroke:#000000;stroke-width:1.068;stroke-miterlimit:10;}
	.st45{fill:none;stroke:#000000;stroke-width:1.068;stroke-miterlimit:10;}
	.st46{clip-path:url(#SVGID_8_);}
	.st47{fill:#00A7BC;stroke:#020106;stroke-width:1.1362;stroke-miterlimit:10;}
	.st48{fill:#07AAC2;stroke:#020106;stroke-width:1.1362;stroke-miterlimit:10;}
	.st49{fill:none;stroke:#020106;stroke-width:1.1362;stroke-miterlimit:10;}
	.st50{fill:#FFFFFF;stroke:#020106;stroke-width:1.1362;stroke-miterlimit:10;}
	.st51{fill:#0045B3;stroke:#000000;stroke-width:1.1362;stroke-miterlimit:10;}
	.st52{fill:#22B6C5;}
	.st53{fill:none;stroke:#07AAC2;stroke-width:1.1362;stroke-miterlimit:10;}
	.st54{fill:none;stroke:#07AAC2;stroke-width:1.1362;stroke-miterlimit:10;stroke-dasharray:4.3787,4.3787;}
	.st55{clip-path:url(#SVGID_10_);}
	.st56{fill:#FEFEFF;stroke:#000000;stroke-width:1.1362;stroke-miterlimit:10;}
	.st57{fill:none;stroke:#000000;stroke-width:1.1362;}
	.st58{font-family:'Montserrat-ExtraBold';}
	.st59{font-size:36.5471px;}
</style>
<g>
	<g class="st0">
		<g>
			<g>
				<path class="st1" d="M287.7,412.7l3.3,3.3c1.8-1.8,4.1-2.7,6.6-2.7c2.5,0,4.9,1,6.6,2.7l3.3-3.3c-2.7-2.7-6.2-4.1-9.9-4.1
					C293.8,408.6,290.3,410.1,287.7,412.7z"/>
				<path class="st1" d="M282.2,407.3l3.3,3.3c3.2-3.2,7.5-5,12.1-5c4.6,0,8.9,1.8,12.1,5l3.3-3.3c-4.1-4.1-9.6-6.4-15.4-6.4
					C291.8,400.9,286.3,403.1,282.2,407.3z"/>
				<path class="st1" d="M297.6,393.1c-7.9,0-15.3,3.1-20.9,8.7l3.3,3.3c4.7-4.7,10.9-7.3,17.6-7.3s12.9,2.6,17.6,7.3l3.3-3.3
					C312.9,396.2,305.5,393.1,297.6,393.1z"/>
				<path class="st1" d="M297.6,416c-2.2,0-4,1.8-4,4c0,2.2,1.8,4,4,4c2.2,0,4-1.8,4-4C301.6,417.8,299.8,416,297.6,416z"/>
			</g>
			<g>
				<path class="st2" d="M363.6,104.3l3.3,3.3c1.8-1.8,4.1-2.7,6.6-2.7c2.5,0,4.9,1,6.6,2.7l3.3-3.3c-2.7-2.7-6.2-4.1-9.9-4.1
					C369.8,100.2,366.2,101.6,363.6,104.3z"/>
				<path class="st2" d="M358.1,98.8l3.3,3.3c3.2-3.2,7.5-5,12.1-5c4.6,0,8.9,1.8,12.1,5l3.3-3.3c-4.1-4.1-9.6-6.4-15.4-6.4
					C367.7,92.4,362.2,94.7,358.1,98.8z"/>
				<path class="st2" d="M373.5,84.7c-7.9,0-15.3,3.1-20.9,8.7l3.3,3.3c4.7-4.7,10.9-7.3,17.6-7.3c6.6,0,12.9,2.6,17.6,7.3l3.3-3.3
					C388.8,87.8,381.4,84.7,373.5,84.7z"/>
				
					<ellipse transform="matrix(2.634362e-03 -1 1 2.634362e-03 260.9655 484.7999)" class="st2" cx="373.5" cy="111.6" rx="4" ry="4"/>
			</g>
			<g>
				<line class="st3" x1="432.9" y1="241.9" x2="432.9" y2="252.1"/>
				<line class="st3" x1="427.8" y1="247" x2="438" y2="247"/>
			</g>
			<g>
				<line class="st4" x1="64.7" y1="340.2" x2="64.7" y2="350.4"/>
				<line class="st4" x1="59.6" y1="345.3" x2="69.8" y2="345.3"/>
			</g>
			<g>
				<line class="st4" x1="151.2" y1="407.2" x2="151.2" y2="417.4"/>
				<line class="st4" x1="146.1" y1="412.3" x2="156.3" y2="412.3"/>
			</g>
			<g>
				<line class="st4" x1="744.9" y1="325.7" x2="744.9" y2="335.9"/>
				<line class="st4" x1="739.8" y1="330.8" x2="750" y2="330.8"/>
			</g>
			<g>
				<line class="st4" x1="284.4" y1="98.8" x2="284.4" y2="109"/>
				<line class="st4" x1="279.3" y1="103.9" x2="289.5" y2="103.9"/>
			</g>
			<g>
				<line class="st3" x1="74.3" y1="59.1" x2="74.3" y2="69.3"/>
				<line class="st3" x1="69.2" y1="64.2" x2="79.4" y2="64.2"/>
			</g>
			<g>
				<line class="st5" x1="126.9" y1="233.2" x2="126.9" y2="243.4"/>
				<line class="st5" x1="121.8" y1="238.3" x2="132" y2="238.3"/>
			</g>
			<g>
				<line class="st5" x1="332.5" y1="363.6" x2="332.5" y2="373.8"/>
				<line class="st5" x1="327.4" y1="368.7" x2="337.7" y2="368.7"/>
			</g>
			<circle class="st5" cx="238.1" cy="102.1" r="3.5"/>
			<g>
				
					<ellipse transform="matrix(1 -6.127970e-03 6.127970e-03 1 -2.079 4.2642)" class="st6" cx="694.8" cy="341.4" rx="22.6" ry="22.6"/>
				<g>
					<rect x="681.9" y="331.9" class="st7" width="26.5" height="19.9"/>
					<polyline class="st7" points="681.9,331.9 695.1,344.1 708.4,331.9 					"/>
				</g>
			</g>
			<g>
				
					<ellipse transform="matrix(1 -7.617310e-03 7.617310e-03 1 -3.0014 0.4655)" class="st8" cx="59.6" cy="394.3" rx="18.7" ry="18.7"/>
				<g>
					<rect x="48.9" y="386.4" class="st7" width="21.9" height="16.5"/>
					<polyline class="st7" points="48.9,386.4 59.9,396.5 70.8,386.4 					"/>
				</g>
			</g>
			<g>
				<circle class="st8" cx="266.4" cy="72.1" r="11.9"/>
				<g>
					<rect x="259.6" y="67.1" class="st7" width="13.9" height="10.5"/>
					<polyline class="st7" points="259.6,67.1 266.6,73.5 273.5,67.1 					"/>
				</g>
			</g>
			<polygon class="st6" points="151.2,196.4 154.4,202 157.6,207.5 151.2,207.5 144.8,207.5 148,202 			"/>
			<polygon class="st9" points="428.2,359.1 435.5,365.6 442.9,372 433.6,375.1 424.4,378.2 426.3,368.7 			"/>
			<polygon class="st9" points="19.3,59.3 16.8,68.7 14.2,78.1 7.4,71.2 0.5,64.3 9.9,61.8 			"/>
			<polygon class="st10" points="744.9,379.7 742.7,387.9 740.5,396 734.5,390 728.5,384.1 736.7,381.9 			"/>
			<path class="st9" d="M224.1,387.9c0,2.9-2.4,5.3-5.3,5.3c-2.9,0-5.3-2.4-5.3-5.3c0-2.9,2.4-5.3,5.3-5.3
				C221.8,382.6,224.1,385,224.1,387.9z"/>
			<path class="st9" d="M412.5,46.9c0,4.1-3.3,7.4-7.4,7.4c-4.1,0-7.4-3.3-7.4-7.4c0-4.1,3.3-7.4,7.4-7.4
				C409.2,39.5,412.5,42.8,412.5,46.9z"/>
			<path class="st6" d="M265.7,246.4c0,2.6-2.1,4.7-4.7,4.7c-2.6,0-4.7-2.1-4.7-4.7c0-2.6,2.1-4.7,4.7-4.7
				C263.6,241.7,265.7,243.8,265.7,246.4z"/>
			<path class="st6" d="M417.2,411.7c0,2.6-2.1,4.7-4.7,4.7c-2.6,0-4.7-2.1-4.7-4.7c0-2.6,2.1-4.7,4.7-4.7
				C415.1,407,417.2,409.1,417.2,411.7z"/>
			<path class="st8" d="M275.7,342.2c0,1.6-1.3,2.8-2.8,2.8c-1.6,0-2.8-1.3-2.8-2.8c0-1.6,1.3-2.8,2.8-2.8
				C274.4,339.4,275.7,340.6,275.7,342.2z"/>
			
				<ellipse transform="matrix(0.9999 -1.617206e-02 1.617206e-02 0.9999 -6.5741 10.4058)" class="st9" cx="640.1" cy="411.7" rx="8.3" ry="8.3"/>
			<circle class="st2" cx="506" cy="263.8" r="7.3"/>
			<circle class="st2" cx="23.2" cy="315.3" r="6.6"/>
			<path class="st1" d="M718,259.4c0,3.1-2.5,5.7-5.7,5.7c-3.1,0-5.7-2.5-5.7-5.7c0-3.1,2.5-5.7,5.7-5.7
				C715.4,253.7,718,256.2,718,259.4z"/>
			<path class="st2" d="M385.7,395.2c0,3.1-2.5,5.7-5.7,5.7c-3.1,0-5.7-2.5-5.7-5.7c0-3.1,2.5-5.7,5.7-5.7
				C383.2,389.5,385.7,392.1,385.7,395.2z"/>
			<path class="st11" d="M652.1,373.2c0,0,9.4-0.9,11.9,5c2.5,6,3.5,11.7,18.3,4.4"/>
			<path class="st11" d="M31.3,123.6c0,0-1.2,8.6-7.1,9.5c-5.9,0.9-11.2,0.5-8,15.4"/>
			<path class="st11" d="M318.5,49.8c0,0,9.4-0.9,11.9,5c2.5,6,3.5,11.7,18.3,4.4"/>
			<path class="st8" d="M364,184.3c0,2.4-1.9,4.3-4.3,4.3s-4.3-1.9-4.3-4.3c0-2.4,1.9-4.3,4.3-4.3S364,181.9,364,184.3z"/>
			
				<ellipse transform="matrix(7.251678e-02 -0.9974 0.9974 7.251678e-02 76.175 179.7634)" class="st12" cx="134.7" cy="48.9" rx="5.3" ry="5.3"/>
		</g>
		<g>
			<path class="st13" d="M96.7,311.6C43.3,311.6,0,270.5,0,219.8c0-35.8,21.6-66.8,53.2-82"/>
			<path class="st13" d="M305.5,332.8c3.9,35.9-23.1,68.3-60.3,72.3c-37.2,4.1-70.6-21.7-74.5-57.6"/>
			<ellipse class="st13" cx="383.3" cy="93.6" rx="65.9" ry="64.4"/>
			<ellipse class="st13" cx="181.6" cy="180.9" rx="62.9" ry="61.5"/>
			<ellipse class="st13" cx="469.6" cy="270.6" rx="61.6" ry="57"/>
		</g>
	</g>
	<g>
		<g>
			<g>
				<g>
					<path class="st14" d="M243.3,373.2H95c-5.2,0-9.3-4.2-9.3-9.3v-96.4c0-5.2,4.2-9.3,9.3-9.3h148.4c5.2,0,9.3,4.2,9.3,9.3v96.4
						C252.7,369,248.5,373.2,243.3,373.2z"/>
					<g>
						<path class="st15" d="M232.3,352.5H106c-5.2,0-9.3-4.2-9.3-9.3v-69c0-5.2,4.2-9.3,9.3-9.3h126.2c5.2,0,9.3,4.2,9.3,9.3v69
							C241.6,348.4,237.5,352.5,232.3,352.5z"/>
						<path d="M140,304.9c0,0-7.9,24.8,8.2,30.3c16.1,5.5,17.9,0.9,21.5,9.5c3.6,8.6,17.9,4.9,19.3-8.3c1.4-13.2-8.3-12.1-13.4-12.8
							c-5.1-0.7-8.4-10-8.4-14.8S141.8,294.8,140,304.9z"/>
						<g>
							<defs>
								<path id="SVGID_1_" d="M232.3,352.5H106c-5.2,0-9.3-4.2-9.3-9.3v-69c0-5.2,4.2-9.3,9.3-9.3h126.2c5.2,0,9.3,4.2,9.3,9.3v69
									C241.6,348.4,237.5,352.5,232.3,352.5z"/>
							</defs>
							<clipPath id="SVGID_2_">
								<use xlink:href="#SVGID_1_"  style="overflow:visible;"/>
							</clipPath>
							<g class="st16">
								<g>
									<path class="st17" d="M157.8,328.2c0,0,17.1,1,34.8,17.7s17.2,59.5,17.2,59.5l-52.8-1.3L157.8,328.2z"/>
									<g>
										<path class="st15" d="M175.9,342.3c11.8,8.8,35.9,61.4,28.3,61.6c-7.6,0.2-98.9-0.5-101.7-3.4c-2.9-2.8,9.6-27.9,9.6-27.9
											s19.2-39.4,48.9-39.7C170.8,332.9,163.3,332.9,175.9,342.3z"/>
										<path class="st18" d="M127.5,374.7c0,0-8.4,23.4-6.4,26.1c1.9,2.7,63.3,3.3,68.5,3.2c5.1-0.2-3.6-37.1-7.9-47.7"/>
									</g>
								</g>
								<g>
									<path class="st19" d="M159.6,386.9c0,0,6.9-4.6,24.7-0.2c0,0,3.5,1.6,0.8,2.3c-2.7,0.7-9.3-0.4-9.3-0.4s10.3,0.9,10.5,2.7
										c0.2,1.8-9.7,0.1-9.7,0.1s10.7,1.7,10.5,3.5c-0.1,1.8-6.1-0.2-11.8,0.2c-5.8,0.4-16.3,4.6-17.9,3.5
										C155.9,397.4,152.3,389.6,159.6,386.9z"/>
									<g>
										<path class="st17" d="M153.8,328.2c-10.6,0.1-22.3,3.4-33.6,12.6c-15.4,12.6-41.6,52.1-30.1,72.5
											c11.4,20.4,37.7,12.4,46.8,8.3c9.1-4.1,26.9-17.8,28.9-23.3c2.3-6.5,1.3-11.2-6.9-13.2c-8.2-2.1-38.4,1.2-44.3,5"/>
										<path class="st20" d="M165.8,398.2c2.2-6.4,1.3-10.9-6.4-13.1c-0.4,2.1-0.5,4.5-0.2,7.1c0.5,4.4,2,8.1,3.8,10
											C164.4,400.7,165.4,399.3,165.8,398.2z"/>
									</g>
								</g>
								<path class="st21" d="M141.1,359.9c0,0-9-6.6-5.5-9.6c3.5-3,6.4,3.2,6.4,3.2s2.1-5.5,5.1-3.7
									C150,351.7,141.1,359.9,141.1,359.9z"/>
							</g>
						</g>
						<g>
							<path class="st21" d="M163.5,331.8c0,3.1-4.3,5.6-9.6,5.6c-5.3,0-9.6-2.5-9.6-5.6c0-3.1,4.3-5.6,9.6-5.6
								C159.2,326.2,163.5,328.7,163.5,331.8z"/>
							<path class="st17" d="M135.9,304.9c0,3.9,3.2,7.1,7.2,7.1c4,0,7.2-3.2,7.2-7.1s-3.2-7.1-7.2-7.1
								C139.1,297.8,135.9,301,135.9,304.9z"/>
							<path class="st17" d="M165.7,284.1h-8.5c-5.6,0-10.2,5.2-10.2,11.7v13.1c0,0.4,0,0.7,0,1.1c-0.1,0.4-0.1,0.8-0.1,1.2v8v0.4v8
								c0,2.9,2.4,5.3,5.3,5.3h3.4c2.9,0,5.3-2.4,5.3-5.3v-7.1h4.9c5.6,0,10.2-5.2,10.2-11.7v-13.1
								C175.9,289.4,171.3,284.1,165.7,284.1z"/>
							<g>
								<g>
									<path d="M146.3,301.7c0,0,8.3-2.8,10.8-8.1c2.5-5.4,1.9-6.5,1.9-6.5s4.7,6.4,12.1,8c6.1,1.3,5.9,0.4,6.5-1
										c0.6-1.3,0.9-10.4-8.4-15.9c-9.3-5.6-19.3-5-26.1,1.9c-6.9,6.9-6,17.9-3.7,20.6C141.6,303.4,144.7,304.9,146.3,301.7z"/>
								</g>
								
									<ellipse transform="matrix(0.9998 -1.797613e-02 1.797613e-02 0.9998 -4.7885 2.6146)" cx="143" cy="267.7" rx="8.3" ry="8.3"/>
							</g>
							<g>
								<path class="st15" d="M136.3,304.9c0,3.7,3,6.7,6.7,6.7s6.7-3,6.7-6.7c0-3.7-3-6.7-6.7-6.7S136.3,301.2,136.3,304.9z"/>
								<path class="st22" d="M146.7,305.8c0,0,0.3-4.5-4.4-4"/>
							</g>
							<g>
								<g>
									<circle cx="160.9" cy="300.1" r="1.9"/>
									<path d="M171.5,299.8c0,0.9,0.7,1.6,1.6,1.6s1.6-0.7,1.6-1.6c0-0.9-0.7-1.6-1.6-1.6S171.5,298.9,171.5,299.8z"/>
								</g>
								<path class="st23" d="M169.7,307.6c0,0-1,2.8-3,3c-2,0.2-3.6-2.1-3.7-3.8"/>
								<g>
									<path class="st8" d="M152.3,307.1c0,2.6,2.1,4.7,4.7,4.7c2.6,0,4.8-2.1,4.8-4.7c0-2.6-2.1-4.7-4.8-4.7
										C154.5,302.4,152.3,304.5,152.3,307.1z"/>
									<path class="st8" d="M174.7,303.9c0.3,0,0.6,0,0.8,0.1v4.9c0,0.7,0,1.4-0.2,2.1c-0.2,0-0.5,0.1-0.7,0.1
										c-2,0-3.6-1.6-3.6-3.6C171.1,305.5,172.7,303.9,174.7,303.9z"/>
								</g>
								<polygon class="st24" points="167.5,298.2 167.1,304.7 170.2,302.8 								"/>
							</g>
						</g>
						<path class="st25" d="M228.5,284.1h-34.2c-3.4,0-6.1-2.7-6.1-6.1l0,0c0-3.4,2.8-6.1,6.1-6.1h34.2c3.4,0,6.1,2.7,6.1,6.1l0,0
							C234.6,281.4,231.9,284.1,228.5,284.1z"/>
					</g>
					<path class="st25" d="M232.3,352.5H106c-5.2,0-9.3-4.2-9.3-9.3v-69c0-5.2,4.2-9.3,9.3-9.3h126.2c5.2,0,9.3,4.2,9.3,9.3v69
						C241.6,348.4,237.5,352.5,232.3,352.5z"/>
				</g>
				<g>
					<g>
						<path d="M173.2,362.6c0,1.6-1,3.1-2.5,3.6c-1.5,0.6-3.3,0.1-4.3-1.2c-1-1.2-1.1-3-0.3-4.4c0.8-1.4,2.4-2.1,4-1.8
							C171.9,359.1,173.2,360.7,173.2,362.6c0,0.9,1.4,0.9,1.4,0c0-2.2-1.4-4.2-3.4-4.9c-2-0.8-4.5-0.1-5.9,1.6
							c-1.4,1.7-1.6,4.2-0.5,6.1c1.1,1.9,3.4,2.9,5.5,2.5c2.5-0.4,4.2-2.7,4.3-5.2C174.7,361.6,173.3,361.6,173.2,362.6z"/>
					</g>
				</g>
			</g>
			<g>
				<g>
					<g>
						<path class="st14" d="M339.1,218.1H214.3c-4.3,0-7.9-3.5-7.9-7.9v-81.1c0-4.3,3.5-7.9,7.9-7.9h124.8c4.3,0,7.9,3.5,7.9,7.9
							v81.1C347,214.6,343.4,218.1,339.1,218.1z"/>
						<path class="st17" d="M329.8,200.7H223.6c-4.3,0-7.9-3.5-7.9-7.9v-58c0-4.3,3.5-7.9,7.9-7.9h106.2c4.3,0,7.9,3.5,7.9,7.9v58
							C337.7,197.2,334.1,200.7,329.8,200.7z"/>
						<g>
							<path class="st26" d="M247.8,200.7h56.5c-5.7-7.7-16.2-12.9-28.3-12.9C264,187.8,253.5,193,247.8,200.7z"/>
							<g>
								<ellipse class="st27" cx="276.8" cy="189.4" rx="9.3" ry="5.4"/>
								<path class="st17" d="M259.5,163.5c0,3.8,3.1,6.8,6.9,6.8c3.8,0,6.9-3.1,6.9-6.8c0-3.8-3.1-6.8-6.9-6.8
									C262.6,156.7,259.5,159.8,259.5,163.5z"/>
								<path class="st17" d="M288.1,143.6H280c-5.4,0-9.8,5-9.8,11.2v12.6c0,0.4,0,0.7,0,1.1c-0.1,0.4-0.1,0.8-0.1,1.2v7.7v0.4v7.7
									c0,2.8,2.3,5.1,5.1,5.1h3.2c2.8,0,5.1-2.3,5.1-5.1v-6.8h4.7c5.4,0,9.8-5,9.8-11.2v-12.6C298,148.6,293.6,143.6,288.1,143.6z
									"/>
								<g>
									<g>
										<path d="M269.5,160.5c0,0,8-2.7,10.4-7.8c2.4-5.2,1.8-6.3,1.8-6.3s4.5,6.2,11.6,7.7c5.9,1.2,5.6,0.4,6.2-1
											c0.5-1.2,0.9-9.9-8-15.3c-8.9-5.4-18.5-4.8-25.1,1.8c-6.6,6.7-5.8,17.2-3.6,19.8C265,162.1,268,163.5,269.5,160.5z"/>
									</g>
									<g>
										<path class="st25" d="M245.3,129.9c0,0-3.4,0.5-3.9,5.9c-0.5,5.4-3.9,12-11.5,13.6s-25.6,1.5-26.4-17.1
											c-0.8-18.6,20-22.6,26.6-15.9c4.7,4.7,6.1,5.1,8.9-0.3c2.8-5.4,11.9-10,20.6-2c8.7,8,2.4,16.8-1.8,18.1
											C253.4,133.5,248.3,127.5,245.3,129.9z"/>
										<circle class="st26" cx="266.8" cy="132.7" r="3.5"/>
									</g>
								</g>
								<g>
									<path class="st15" d="M259.9,163.5c0,3.6,2.9,6.4,6.5,6.4c3.6,0,6.5-2.9,6.5-6.4c0-3.6-2.9-6.4-6.5-6.4
										C262.8,157.1,259.9,160,259.9,163.5z"/>
									<path class="st22" d="M269.9,164.4c0,0,0.3-4.4-4.2-3.9"/>
								</g>
								<g>
									<g>
										<path class="st28" d="M281.7,158.9c0,1,0.8,1.8,1.8,1.8s1.8-0.8,1.8-1.8c0-1-0.8-1.8-1.8-1.8S281.7,157.9,281.7,158.9z"/>
										<path class="st28" d="M293.7,158.7c0,0.9,0.7,1.6,1.6,1.6c0.9,0,1.6-0.7,1.6-1.6c0-0.9-0.7-1.6-1.6-1.6
											C294.4,157.1,293.7,157.8,293.7,158.7z"/>
									</g>
									<path class="st29" d="M292,166.2c0,0-0.9,2.7-2.9,2.9c-2,0.2-3.5-2-3.6-3.7L292,166.2z"/>
									<g>
										<path class="st8" d="M275.3,165.7c0,2.5,2,4.6,4.6,4.6c2.5,0,4.6-2,4.6-4.6c0-2.5-2-4.6-4.6-4.6
											C277.4,161.1,275.3,163.1,275.3,165.7z"/>
										<path class="st8" d="M296.8,162.6c0.3,0,0.5,0,0.8,0.1v4.7c0,0.7,0,1.4-0.2,2.1c-0.2,0-0.4,0.1-0.6,0.1
											c-1.9,0-3.5-1.6-3.5-3.5C293.3,164.1,294.8,162.6,296.8,162.6z"/>
									</g>
									<polygon class="st24" points="289.9,157.1 289.5,163.3 292.5,161.5 									"/>
								</g>
							</g>
						</g>
					</g>
					<g>
						<g>
							<path d="M280,209.2c0,1.3-0.8,2.5-2,2.9c-1.3,0.5-2.7,0.1-3.5-1c-0.8-1-0.9-2.4-0.2-3.6c0.7-1.1,2-1.7,3.2-1.5
								C278.9,206.4,280,207.7,280,209.2c0,0.9,1.4,0.9,1.4,0c0-1.9-1.2-3.6-3-4.3c-1.8-0.7-3.9-0.1-5,1.3c-1.2,1.5-1.4,3.6-0.4,5.2
								c1,1.6,2.9,2.5,4.8,2.1c2.1-0.4,3.6-2.3,3.7-4.5C281.5,208.2,280,208.2,280,209.2z"/>
						</g>
					</g>
				</g>
			</g>
			<g>
				<g>
					<path class="st14" d="M179.5,175.4H54.7c-4.3,0-7.9-3.5-7.9-7.9V86.4c0-4.3,3.5-7.9,7.9-7.9h124.8c4.3,0,7.9,3.5,7.9,7.9v81.1
						C187.3,171.8,183.8,175.4,179.5,175.4z"/>
					<g>
						<g>
							<path d="M120.4,166.4c0,1.3-0.8,2.5-2,2.9c-1.3,0.5-2.7,0.1-3.5-1c-0.8-1-0.9-2.4-0.2-3.6c0.7-1.1,2-1.7,3.2-1.5
								C119.3,163.6,120.4,164.9,120.4,166.4c0,0.9,1.4,0.9,1.4,0c0-1.9-1.2-3.6-3-4.3c-1.8-0.7-3.9-0.1-5,1.3
								c-1.2,1.5-1.4,3.6-0.4,5.2c1,1.6,2.9,2.5,4.8,2.1c2.1-0.4,3.6-2.3,3.7-4.5C121.8,165.5,120.4,165.5,120.4,166.4z"/>
						</g>
					</g>
				</g>
				<g>
					<g>
						<path class="st15" d="M170.2,158H64c-4.3,0-7.9-3.5-7.9-7.9v-58c0-4.3,3.5-7.9,7.9-7.9h106.2c4.3,0,7.9,3.5,7.9,7.9v58
							C178,154.5,174.5,158,170.2,158z"/>
						<g>
							<g>
								<g>
									<defs>
										<path id="SVGID_3_" d="M170.2,158H64c-4.3,0-7.9-3.5-7.9-7.9v-58c0-4.3,3.5-7.9,7.9-7.9h106.2c4.3,0,7.9,3.5,7.9,7.9v58
											C178,154.5,174.5,158,170.2,158z"/>
									</defs>
									<clipPath id="SVGID_4_">
										<use xlink:href="#SVGID_3_"  style="overflow:visible;"/>
									</clipPath>
									<g class="st30">
										<g>
											<path class="st17" d="M99.8,138.4c-22.8,0-41.3,23.3-41.3,52h82.7C141.1,161.7,122.6,138.4,99.8,138.4z"/>
											<g>
												<path class="st8" d="M86.9,150.9c0,1.6-1.3,3-3,3s-3-1.3-3-3c0-1.6,1.3-3,3-3S86.9,149.3,86.9,150.9z"/>
												<circle class="st8" cx="98.6" cy="161.9" r="3.3"/>
												<path class="st8" d="M114.1,150.9c0,1.6-1.3,3-3,3c-1.6,0-3-1.3-3-3c0-1.6,1.3-3,3-3C112.8,148,114.1,149.3,114.1,150.9
													z"/>
												<circle class="st8" cx="125.5" cy="158.5" r="2.5"/>
												<path class="st8" d="M76.7,163.7c0,1.7-1.4,3.1-3.1,3.1s-3.1-1.4-3.1-3.1c0-1.7,1.4-3.1,3.1-3.1S76.7,162,76.7,163.7z"
													/>
												<circle class="st8" cx="86.8" cy="172.6" r="3.3"/>
												<circle class="st8" cx="117.2" cy="172" r="2.7"/>
												<path class="st8" d="M133.3,177.3c0,1.4-1.2,2.6-2.6,2.6c-1.4,0-2.6-1.2-2.6-2.6c0-1.4,1.2-2.6,2.6-2.6
													C132.1,174.7,133.3,175.9,133.3,177.3z"/>
												<path class="st8" d="M73.2,178.6c0,1.5-1.2,2.8-2.8,2.8s-2.8-1.2-2.8-2.8c0-1.5,1.2-2.8,2.8-2.8S73.2,177.1,73.2,178.6z
													"/>
												<path class="st8" d="M105.3,181.4c0,1.5-1.2,2.8-2.8,2.8c-1.5,0-2.8-1.2-2.8-2.8s1.2-2.8,2.8-2.8
													C104.1,178.6,105.3,179.9,105.3,181.4z"/>
											</g>
										</g>
										<g>
											<path class="st1" d="M144.3,163.4l0.8-2.8c0,0,0.1-0.7-1-1.1c-1.1-0.4-17.3-6.7-17.3-6.7s-1.4-0.8-1.8,0.2
												c-0.4,1-3.1,5.4-3.1,5.4s-0.8,1.1,0.2,1.6c0.9,0.5,15.7,6.1,15.7,6.1l3.8,1.6c0,0,1.2,0.4,1.4-0.1
												C143.1,167,144.3,163.4,144.3,163.4z"/>
											<path class="st15" d="M148.8,143.9c0,0,1.5-7.6,0.3-9c-1.2-1.4-2.4,0.1-2.9,2c-0.6,1.9-1.5,5.5-1.5,5.5l-3.8-7.6
												c0,0,8.4-6.1,8.8-7.3c0.3-1.1,0.4-1.9-0.2-1.9c-0.6,0-2.4,0.5-2.4,0.5s2.8-2.7,2-3.7c-0.9-1-4,1.3-4,1.3s1.1-4.2,0.6-5
												c-0.5-0.8-4,3.9-4.9,5.7c-1,1.8-2.7,4.7-2.7,4.7s-1.1,0.9-1.1,1.4c0,0.5-1.4,1.5-1.6,1.7c-0.2,0.2-1.9,3.8-3.6,7.5
												c-1.6,3.7-4,8.6-4,8.6l-1.2,2.3c0,0-1.3,1.8,1.4,2.6c2.6,0.7,13,5,13,5l3.3,1.3c0,0,1,1.4,1.8-1.8
												C146.7,154.5,148.8,143.9,148.8,143.9z"/>
											<g>
												<path class="st25" d="M142.4,169.3c5.7-15.9,8.1-32.6,6.7-34.3c-1.9-2.4-3,1.7-4.5,7.5l-3.8-7.6c0,0,9.1-6.2,9.1-8.7
													c0-2.5-14.3,4.5-15.5,7.1c-0.8,1.7-5.6,15.3-13.8,27.2"/>
												<path class="st25" d="M146.1,126.4c0,0,3.8-2.3,2.9-3.9c-0.9-1.6-12.3,6.4-12,8.5"/>
												<path class="st25" d="M144.6,124c0,0,2.3-4.6,1-5.2c-1.3-0.6-6.1,7.1-6.7,9.5"/>
											</g>
											<g>
												<g>
													<line class="st25" x1="145.3" y1="159.9" x2="125.6" y2="152.3"/>
													<line class="st25" x1="142.7" y1="168.2" x2="121.4" y2="159.3"/>
												</g>
												<g>
													<line class="st25" x1="142.8" y1="158.9" x2="139.7" y2="166.9"/>
													<line class="st25" x1="139" y1="157.5" x2="135.9" y2="165.3"/>
													<line class="st25" x1="135.4" y1="156" x2="132.5" y2="163.7"/>
													<line class="st25" x1="131.5" y1="154.5" x2="128.8" y2="162.3"/>
													<line class="st25" x1="128.2" y1="153.3" x2="125" y2="160.8"/>
												</g>
											</g>
										</g>
									</g>
								</g>
								<g>
									<path class="st31" d="M83.5,115.1c0,3.4,2.8,6.2,6.3,6.2c3.5,0,6.3-2.8,6.3-6.2c0-3.4-2.8-6.2-6.3-6.2
										C86.3,108.9,83.5,111.7,83.5,115.1z"/>
									<path class="st32" d="M108.7,140.1c0,2.9-4,5.2-8.9,5.2c-4.9,0-8.9-2.3-8.9-5.2c0-2.9,4-5.2,8.9-5.2
										C104.7,134.8,108.7,137.2,108.7,140.1z"/>
									<path class="st17" d="M110.8,95.9h-7.9c-5.2,0-9.5,4.9-9.5,10.8v12.2c0,0.3,0,0.7,0,1c-0.1,0.4-0.1,0.7-0.1,1.1v7.4v0.4
										v7.4c0,2.7,2.2,4.9,4.9,4.9h3.1c2.7,0,4.9-2.2,4.9-4.9v-6.6h4.5c5.2,0,9.5-4.9,9.5-10.8v-12.2
										C120.3,100.7,116,95.9,110.8,95.9z"/>
									<g>
										<g>
											<path class="st33" d="M104.5,110.7c0,1,0.8,1.8,1.8,1.8c1,0,1.8-0.8,1.8-1.8c0-1-0.8-1.8-1.8-1.8
												C105.3,108.9,104.5,109.7,104.5,110.7z"/>
											<path class="st33" d="M116.1,110.4c0,0.8,0.7,1.5,1.5,1.5c0.8,0,1.5-0.7,1.5-1.5c0-0.8-0.7-1.5-1.5-1.5
												C116.8,108.9,116.1,109.6,116.1,110.4z"/>
										</g>
										<g>
											<path class="st34" d="M114.4,117.7c0,0-0.9,2.6-2.8,2.8c-1.9,0.2-3.4-1.9-3.5-3.5L114.4,117.7z"/>
											<g>
												<path class="st33" d="M113.8,117.5c0,0.1-0.1,0.1-0.1,0.2c0.1-0.2,0,0,0,0.1c0,0.1-0.1,0.2-0.2,0.3
													c-0.3,0.5-0.5,0.8-0.9,1.2c-0.4,0.4-0.9,0.6-1.5,0.5c-0.6-0.1-1.1-0.5-1.5-1c-0.2-0.3-0.4-0.6-0.6-0.9
													c-0.1-0.3-0.2-0.7-0.3-1c-0.2,0.2-0.4,0.4-0.6,0.6c1.8,0.2,3.6,0.4,5.5,0.7c0.3,0,0.5,0.1,0.8,0.1
													c0.3,0,0.6-0.3,0.6-0.6c0-0.4-0.3-0.6-0.6-0.6c-1.8-0.2-3.6-0.4-5.5-0.7c-0.3,0-0.5-0.1-0.8-0.1c-0.3,0-0.7,0.3-0.6,0.6
													c0.1,1.7,1.3,3.5,3,4c1.7,0.5,3.1-0.5,3.9-1.9c0.2-0.4,0.4-0.8,0.6-1.2c0.1-0.3-0.1-0.7-0.4-0.8
													C114.3,116.9,113.9,117.2,113.8,117.5z"/>
											</g>
										</g>
										<g>
											<circle class="st8" cx="102.8" cy="117.2" r="4.4"/>
											<path class="st8" d="M119.1,114.2c0.3,0,0.5,0,0.8,0.1v4.6c0,0.7,0,1.3-0.2,2c-0.2,0-0.4,0.1-0.6,0.1
												c-1.9,0-3.4-1.5-3.4-3.4C115.7,115.7,117.2,114.2,119.1,114.2z"/>
										</g>
										<polygon class="st6" points="112.5,108.9 112.1,114.9 115,113.2 										"/>
									</g>
									<path d="M95.5,112.8l1.4-7.4c0,0,7.7,2.4,13.5-2.2c5.9-4.7-3.8-6.6-2.2-3.1c1.5,3.5,6.9,4.9,13.6,4.2
										c9.9-1.1,10.1-13,4.5-16.5c-5.7-3.5-12.1,0.6-12.1,0.6s3-5.9-4.4-7.9c-6.1-1.6-10.6,3.5-11.3,5.8c0,0-10,1-14.5,7.3
										c-4.5,6.3-4.8,13.8-0.4,20.7c4.4,6.9,9.6,10.6,9.6,10.6S94,115.9,95.5,112.8z"/>
									<g>
										<path class="st15" d="M83.5,115.1c0,3.4,2.8,6.2,6.3,6.2c3.5,0,6.3-2.8,6.3-6.2c0-3.4-2.8-6.2-6.3-6.2
											C86.3,108.9,83.5,111.7,83.5,115.1z"/>
										<g>
											<g>
												<path class="st35" d="M93.9,115.9c0-0.5-0.1-1.1-0.2-1.6c-0.3-1.1-1-2-2-2.5c-0.8-0.4-1.7-0.5-2.6-0.4
													c-0.4,0-0.8,0.3-0.8,0.8c0,0.4,0.3,0.8,0.8,0.8c0.4,0,0.7-0.1,1.1,0c0,0,0.1,0,0.1,0c-0.2,0-0.1,0,0,0
													c0.1,0,0.1,0,0.2,0c0.1,0,0.3,0.1,0.4,0.1c0.2,0.1-0.2-0.1,0,0c0.1,0,0.1,0.1,0.2,0.1c0.1,0.1,0.2,0.2,0.3,0.2
													c-0.2-0.1-0.1-0.1-0.1,0c0,0,0,0,0.1,0.1c0,0,0.1,0.1,0.1,0.1c0.1,0.1,0.2,0.2,0.2,0.3c-0.2-0.2-0.1-0.1,0,0
													c0,0,0.1,0.1,0.1,0.1c0.1,0.1,0.1,0.2,0.2,0.3c0,0,0,0.1,0.1,0.1c0,0.1-0.1-0.2,0-0.1c0,0,0,0,0,0.1
													c0,0.1,0.1,0.2,0.1,0.3c0.1,0.2,0.1,0.3,0.1,0.5c0,0,0,0.1,0,0.1c0,0.2,0-0.2,0-0.1c0,0.1,0,0.1,0,0.2
													c0,0.2,0,0.3,0,0.5c0,0.4,0.4,0.8,0.8,0.8C93.6,116.7,93.9,116.4,93.9,115.9L93.9,115.9z"/>
											</g>
										</g>
									</g>
								</g>
							</g>
						</g>
						<path class="st36" d="M170.2,158H64c-4.3,0-7.9-3.5-7.9-7.9v-58c0-4.3,3.5-7.9,7.9-7.9h106.2c4.3,0,7.9,3.5,7.9,7.9v58
							C178,154.5,174.5,158,170.2,158z"/>
					</g>
					<path class="st25" d="M170.2,158H64c-4.3,0-7.9-3.5-7.9-7.9v-58c0-4.3,3.5-7.9,7.9-7.9h106.2c4.3,0,7.9,3.5,7.9,7.9v58
						C178,154.5,174.5,158,170.2,158z"/>
				</g>
			</g>
			<g>
				<g>
					<g>
						<path class="st14" d="M415.9,341.4H290c-4.4,0-7.9-3.6-7.9-7.9v-81.8c0-4.4,3.6-7.9,7.9-7.9h125.9c4.4,0,7.9,3.6,7.9,7.9v81.8
							C423.8,337.8,420.3,341.4,415.9,341.4z"/>
						<g>
							<g>
								<path d="M356.3,332.4c0,1.3-0.8,2.5-2.1,3c-1.3,0.5-2.7,0.1-3.6-1c-0.8-1-0.9-2.5-0.2-3.6c0.7-1.1,2-1.7,3.3-1.5
									C355.2,329.5,356.3,330.8,356.3,332.4c0,0.9,1.4,0.9,1.4,0c0-1.9-1.2-3.6-3-4.3c-1.8-0.7-3.9-0.1-5.1,1.4
									c-1.2,1.5-1.4,3.6-0.4,5.3c1,1.7,2.9,2.5,4.8,2.2c2.1-0.4,3.7-2.3,3.7-4.5C357.7,331.4,356.3,331.4,356.3,332.4z"/>
							</g>
						</g>
					</g>
					<g>
						<path class="st15" d="M406.5,323.8H299.4c-4.4,0-7.9-3.6-7.9-7.9v-58.6c0-4.4,3.6-7.9,7.9-7.9h107.2c4.4,0,7.9,3.6,7.9,7.9
							v58.6C414.4,320.3,410.9,323.8,406.5,323.8z"/>
						<g>
							<g>
								<g>
									<defs>
										<path id="SVGID_5_" d="M406.5,323.8H299.4c-4.4,0-7.9-3.6-7.9-7.9v-58.6c0-4.4,3.6-7.9,7.9-7.9h107.2
											c4.4,0,7.9,3.6,7.9,7.9v58.6C414.4,320.3,410.9,323.8,406.5,323.8z"/>
									</defs>
									<clipPath id="SVGID_6_">
										<use xlink:href="#SVGID_5_"  style="overflow:visible;"/>
									</clipPath>
									<g class="st37">
										<path class="st38" d="M279.2,322.1c0,0,18.6-17.7,38.3-21.4c19.8-3.7,59.4-3.3,80.8,25c21.4,28.3-31.2,53.4-32.7,53.6
											c-1.5,0.2-87-14.1-90.3-16.6C272.1,360.2,259.8,345.5,279.2,322.1z"/>
										<g>
											<path class="st38" d="M359.9,307.5c0,0,32,64.3,24.9,76.6s-60.2,24-86.7,10.6c-31-15.7,9.8-80.9,19.4-95.9L359.9,307.5z"
												/>
											<path class="st15" d="M310.2,322.1c0,4.1,3.3,7.3,7.3,7.3s7.3-3.3,7.3-7.3c0-4.1-3.3-7.3-7.3-7.3S310.2,318,310.2,322.1z
												"/>
										</g>
									</g>
								</g>
								<path class="st25" d="M406.5,323.8H299.4c-4.4,0-7.9-3.6-7.9-7.9v-58.6c0-4.4,3.6-7.9,7.9-7.9h107.2c4.4,0,7.9,3.6,7.9,7.9
									v58.6C414.4,320.3,410.9,323.8,406.5,323.8z"/>
								<g>
									
										<ellipse transform="matrix(0.1019 -0.9948 0.9948 0.1019 4.4815 607.3732)" class="st39" cx="338.6" cy="301.2" rx="16.7" ry="25.9"/>
									<g>
										<g>
											<path class="st40" d="M325,275.7c0,3.7,3,6.7,6.8,6.7c3.7,0,6.8-3,6.8-6.7c0-3.7-3-6.7-6.8-6.7
												C328,269,325,272,325,275.7z"/>
											<path class="st41" d="M354.5,254.9H346c-5.7,0-10.3,5.3-10.3,11.7v13.2c0,0.4,0,0.7,0,1.1c-0.1,0.4-0.1,0.8-0.1,1.2v8
												v0.4v8c0,2.9,2.4,5.3,5.3,5.3h3.4c2.9,0,5.3-2.4,5.3-5.3v-7.1h4.9c5.7,0,10.3-5.3,10.3-11.7v-13.2
												C364.8,260.2,360.2,254.9,354.5,254.9z"/>
											<g>
												<g>
													<path class="st28" d="M347.8,270.9c0,1.1,0.9,1.9,1.9,1.9c1.1,0,1.9-0.9,1.9-1.9s-0.9-1.9-1.9-1.9
														C348.6,269,347.8,269.9,347.8,270.9z"/>
													<path class="st28" d="M360.3,270.6c0,0.9,0.7,1.6,1.6,1.6c0.9,0,1.6-0.7,1.6-1.6s-0.7-1.6-1.6-1.6
														C361,269,360.3,269.7,360.3,270.6z"/>
												</g>
												<g>
													<path class="st42" d="M358.5,278.5c0,0-1,2.8-3,3c-2,0.2-3.6-2.1-3.7-3.8L358.5,278.5z"/>
													<g>
														<path class="st28" d="M357.9,278.3c0,0.1-0.1,0.1-0.1,0.2c0.1-0.2,0,0.1-0.1,0.1c-0.1,0.1-0.1,0.2-0.2,0.3
															c-0.3,0.5-0.6,0.9-1,1.3c-0.4,0.4-1,0.7-1.7,0.6c-0.7-0.1-1.3-0.5-1.7-1.1c-0.5-0.6-0.9-1.4-0.9-2.2
															c-0.2,0.2-0.4,0.4-0.6,0.6c2,0.2,3.9,0.5,5.9,0.7c0.3,0,0.6,0.1,0.8,0.1c0.3,0,0.6-0.3,0.6-0.6c0-0.4-0.3-0.6-0.6-0.6
															c-2-0.2-3.9-0.5-5.9-0.7c-0.3,0-0.6-0.1-0.8-0.1c-0.3,0-0.6,0.3-0.6,0.6c0.1,1.8,1.4,3.7,3.1,4.3
															c1.8,0.6,3.3-0.6,4.1-2c0.2-0.4,0.5-0.8,0.6-1.3C359.3,277.9,358.2,277.6,357.9,278.3z"/>
													</g>
												</g>
												<g>
													<path class="st8" d="M341.1,278c0,2.6,2.1,4.8,4.8,4.8c2.6,0,4.8-2.1,4.8-4.8c0-2.6-2.1-4.8-4.8-4.8
														C343.2,273.2,341.1,275.3,341.1,278z"/>
													<path class="st8" d="M363.5,274.7c0.3,0,0.6,0,0.8,0.1v4.9c0,0.7,0,1.5-0.2,2.1c-0.2,0-0.5,0.1-0.7,0.1
														c-2,0-3.6-1.6-3.6-3.6C359.9,276.4,361.5,274.7,363.5,274.7z"/>
												</g>
												<polygon class="st24" points="356.3,269 355.9,275.5 359,273.6 												"/>
											</g>
											<path d="M337.9,275.5l1.6-10.3c0,0,28.6,3.6,37.8-10.3c9.3-13.9-0.5-19.4-5.2-18.6c-4.7,0.8-10.2,7.5-10.2,7.5
												s4.4-6,0-6.9c-4.4-0.9-9.2,3.6-11.8,8.3c0,0-18.8-1.8-25.2,9.6c-6.4,11.4-1.2,19.5,10.4,31.3l0.8-6.6L337.9,275.5z"/>
											<g>
												<path class="st15" d="M325,275.7c0,3.7,3,6.7,6.8,6.7c3.7,0,6.8-3,6.8-6.7c0-3.7-3-6.7-6.8-6.7
													C328,269,325,272,325,275.7z"/>
												<g>
													<g>
														<path class="st43" d="M336.2,276.6c0-0.6-0.1-1.2-0.2-1.8c-0.3-1.1-1-2.1-2.1-2.6c-0.9-0.4-1.8-0.5-2.8-0.4
															c-0.4,0-0.8,0.3-0.7,0.7c0,0.4,0.3,0.8,0.7,0.7c0.4,0,0.8-0.1,1.2,0c0,0,0.1,0,0.1,0c0,0-0.2,0,0,0c0.1,0,0.2,0,0.2,0
															c0.2,0,0.3,0.1,0.5,0.1c0.2,0.1-0.1-0.1,0.1,0c0.1,0,0.1,0.1,0.2,0.1c0,0,0.3,0.2,0.4,0.2c0,0-0.1-0.1,0,0
															c0,0,0,0,0.1,0.1c0,0,0.1,0.1,0.1,0.1c0.1,0.1,0.2,0.2,0.3,0.3c-0.1-0.1-0.1-0.1,0,0c0,0,0,0,0,0.1
															c0,0,0.1,0.1,0.1,0.1c0.1,0.1,0.1,0.2,0.2,0.3c0,0.1,0,0.1,0.1,0.2c0,0.1-0.1-0.2,0-0.1c0,0,0,0,0,0.1
															c0,0.1,0.1,0.2,0.1,0.3c0.1,0.2,0.1,0.4,0.1,0.6c0,0,0,0.1,0,0.1c0,0.2,0-0.2,0-0.1c0,0.1,0,0.2,0,0.2
															c0,0.2,0,0.4,0,0.5c0,0.4,0.4,0.8,0.7,0.7C335.8,277.4,336.1,277,336.2,276.6L336.2,276.6z"/>
													</g>
												</g>
											</g>
										</g>
										<g>
											<path class="st44" d="M350.2,245.3c0,0-18.8,19.5-26.6,25.4c0,0-10.2-22.5-4.4-28.7C323.8,236.9,346.3,239.8,350.2,245.3
												z"/>
											<line class="st45" x1="344" y1="241.6" x2="321" y2="264.2"/>
										</g>
									</g>
									<g>
										<path class="st1" d="M355.4,293.6l3.1,11.4l-23.2,7.4l-1.2-4.8l-8.6-5.1l3.6-9.6l10.2,7.9l0.7,0.6c0,0,0.4,0.6,2.3-0.4
											C344,299.9,355.4,293.6,355.4,293.6z"/>
										<g>
											<polyline class="st45" points="356.3,293.1 334.2,305.3 334,308.2 											"/>
											<line class="st45" x1="328.5" y1="292.9" x2="340.6" y2="301.8"/>
										</g>
									</g>
									<g>
										<g>
											<path class="st45" d="M328.5,306.2c0,0-15.7,10.4-26.4,6.2"/>
											<circle class="st45" cx="328.1" cy="306.1" r="1.7"/>
										</g>
										<g>
											<path class="st45" d="M348.1,310c0,1,0.8,1.8,1.8,1.8c1,0,1.8-0.8,1.8-1.8s-0.8-1.8-1.8-1.8
												C348.9,308.2,348.1,309,348.1,310z"/>
											<path class="st45" d="M349.9,310c0,0,6.4,18.5,17.6,23.8"/>
										</g>
									</g>
								</g>
							</g>
						</g>
					</g>
				</g>
			</g>
			<g>
				<g>
					<path class="st14" d="M609.6,409.5H461.2c-5.2,0-9.3-4.2-9.3-9.3v-96.4c0-5.2,4.2-9.3,9.3-9.3h148.4c5.2,0,9.3,4.2,9.3,9.3
						v96.4C618.9,405.3,614.7,409.5,609.6,409.5z"/>
					<g>
						<g>
							<path d="M539.5,398.8c0,1.6-1,3.1-2.5,3.6c-1.5,0.6-3.3,0.1-4.3-1.2c-1-1.2-1.1-3-0.3-4.4c0.8-1.4,2.4-2.1,4-1.8
								C538.1,395.4,539.4,397,539.5,398.8c0,0.9,1.4,0.9,1.4,0c0-2.2-1.4-4.2-3.4-4.9c-2-0.8-4.5-0.1-5.9,1.6
								c-1.4,1.7-1.6,4.2-0.5,6.1c1.1,1.9,3.4,2.9,5.5,2.5c2.5-0.4,4.2-2.7,4.3-5.2C540.9,397.9,539.5,397.9,539.5,398.8z"/>
						</g>
					</g>
				</g>
				<g>
					<path class="st17" d="M598.5,388.8H472.3c-5.2,0-9.3-4.2-9.3-9.3v-69c0-5.2,4.2-9.3,9.3-9.3h126.2c5.2,0,9.3,4.2,9.3,9.3v69
						C607.9,384.6,603.7,388.8,598.5,388.8z"/>
					<g>
						<g>
							<g>
								<path d="M532.3,351.2c0,0,21.8,10.4,30-4.8c8.2-15.3-4.9-34-15.4-36.8C536.2,306.9,527.9,336.8,532.3,351.2z"/>
								<path d="M522.9,352.4c0,0-9.5,7.1-24,1.7c-14.5-5.4-5.6-32.1,0-40.2c5.6-8.2,18.2-13.2,23.8-10.6S532.8,335.7,522.9,352.4z"
									/>
								
									<ellipse transform="matrix(0.9999 -1.346057e-02 1.346057e-02 0.9999 -4.0032 6.6798)" cx="494.2" cy="300.7" rx="10.4" ry="10.4"/>
							</g>
							<g>
								<path class="st17" d="M555.4,330.4c0,0-3.5-8-6.5-7.5c-3,0.5-2.1,5.7-1.7,8.5c0.4,2.8,1.8,6.4-1.3,9.7
									C542.8,344.5,558.1,339.5,555.4,330.4z"/>
								<g>
									<path class="st17" d="M539.4,308.1h-8.9c-5.9,0-10.8,5.5-10.8,12.3v13.8c0,0.4,0,0.8,0.1,1.2c-0.1,0.4-0.2,0.8-0.2,1.3v8.4
										v0.5v8.4c0,3.1,2.5,5.6,5.6,5.6h3.5c3.1,0,5.6-2.5,5.6-5.6v-7.4h5.2c5.9,0,10.8-5.5,10.8-12.3v-13.8
										C550.2,313.7,545.3,308.1,539.4,308.1z"/>
									<g>
										<path class="st8" d="M525.3,332.3c0,2.8,2.2,5,5,5c2.8,0,5-2.2,5-5c0-2.8-2.2-5-5-5C527.6,327.3,525.3,329.6,525.3,332.3z
											"/>
										<path class="st8" d="M548.8,328.9c0.3,0,0.6,0,0.9,0.1v5.2c0,0.8,0,1.5-0.2,2.3c-0.2,0-0.5,0.1-0.7,0.1
											c-2.1,0-3.8-1.7-3.8-3.8C545,330.6,546.7,328.9,548.8,328.9z"/>
									</g>
									<g>
										<g>
											<path class="st28" d="M532.3,324.9c0,1.1,0.9,2,2,2c1.1,0,2-0.9,2-2c0-1.1-0.9-2-2-2
												C533.2,322.9,532.3,323.8,532.3,324.9z"/>
											<path class="st28" d="M545.5,324.6c0,0.9,0.8,1.7,1.7,1.7c0.9,0,1.7-0.8,1.7-1.7c0-0.9-0.8-1.7-1.7-1.7
												C546.2,322.9,545.5,323.7,545.5,324.6z"/>
										</g>
										<g>
											<path class="st42" d="M543.9,333.9c0,0-1,2.9-3.1,3.1c-2.1,0.2-3.8-2.2-3.9-4L543.9,333.9z"/>
											<g>
												<path class="st28" d="M543.2,333.7c0,0.1-0.1,0.1-0.1,0.2c0.1-0.2,0,0.1-0.1,0.1c-0.1,0.1-0.1,0.2-0.2,0.3
													c-0.3,0.5-0.6,1-1,1.4c-0.5,0.4-1.1,0.7-1.7,0.6c-0.7-0.1-1.3-0.6-1.8-1.1c-0.5-0.6-0.9-1.4-1-2.3
													c-0.2,0.2-0.4,0.4-0.6,0.6c2.1,0.3,4.1,0.5,6.2,0.8c0.3,0,0.6,0.1,0.9,0.1c0.3,0,0.6-0.3,0.6-0.6c0-0.4-0.3-0.6-0.6-0.6
													c-2.1-0.3-4.1-0.5-6.2-0.8c-0.3,0-0.6-0.1-0.9-0.1c-0.3,0-0.7,0.3-0.6,0.6c0.1,1.9,1.4,3.9,3.3,4.5
													c1.8,0.6,3.4-0.6,4.4-2.1c0.3-0.4,0.5-0.9,0.6-1.4C544.7,333.3,543.5,332.9,543.2,333.7z"/>
											</g>
										</g>
										<polygon class="st24" points="541.3,322.9 540.9,329.8 544.1,327.8 										"/>
									</g>
									<path d="M517.1,306.3C517.1,306.3,517.1,306.3,517.1,306.3c0.4-5.2,3.3-9.9,7.1-10c8.3-0.2,8.2,6,8.2,6
										c14.2-17.5,32.5-7.1,26.6,5.8C553,321,530.2,319,530.2,319c-1.2,0-2.3-0.4-3.2-0.2c-2.7,0.5-4.6,3.9-5.4,8.1
										C519.6,337.5,511.7,314.5,517.1,306.3z"/>
									<g>
										<path d="M515.5,322c1.3,0,2.6,0.3,3.7,0.9v2.2c-1-0.8-2.3-1.2-3.7-1.2c-3.4,0-6.2,2.7-6.2,6.1c0,3.4,2.8,6.1,6.2,6.1
											c1.4,0,2.7-0.5,3.7-1.2v2.2c-1.1,0.6-2.4,0.9-3.7,0.9c-4.4,0-8-3.6-8-8C507.5,325.6,511.1,322,515.5,322z"/>
										<g>
											<path class="st15" d="M508.4,330c0,3.9,3.2,7,7.1,7c3.9,0,7.1-3.2,7.1-7s-3.2-7-7.1-7C511.6,322.9,508.4,326.1,508.4,330
												z"/>
											<g>
												<g>
													<path class="st43" d="M520.2,330.9c0-0.6-0.1-1.3-0.2-1.8c-0.3-1.2-1.1-2.3-2.2-2.8c-0.9-0.4-1.9-0.5-2.9-0.4
														c-0.4,0-0.8,0.3-0.8,0.8c0,0.4,0.3,0.8,0.8,0.8c0.4,0,0.9-0.1,1.3,0c0,0,0.1,0,0.1,0c0,0-0.2,0,0,0c0.1,0,0.2,0,0.2,0
														c0.2,0,0.3,0.1,0.5,0.1c0.2,0.1-0.1-0.1,0.1,0c0.1,0,0.1,0.1,0.2,0.1c0.1,0,0.1,0.1,0.2,0.1c0,0,0.2,0.1,0.2,0.1
														c0,0-0.2-0.1-0.1,0c0,0,0,0,0.1,0.1c0,0,0.1,0.1,0.1,0.1c0.1,0.1,0.2,0.2,0.3,0.3c-0.1-0.1-0.1-0.1,0,0c0,0,0,0,0,0.1
														c0,0,0.1,0.1,0.1,0.1c0.1,0.1,0.1,0.2,0.2,0.3c0,0.1,0,0.1,0.1,0.2c0,0.1-0.1-0.2,0-0.1c0,0,0,0.1,0,0.1
														c0,0.1,0.1,0.2,0.1,0.3c0.1,0.2,0.1,0.4,0.1,0.6c0,0,0,0.1,0,0.1c0,0.2,0-0.2,0-0.1c0,0.1,0,0.2,0,0.3
														c0,0.2,0,0.4,0,0.6c0,0.4,0.4,0.8,0.8,0.8C519.8,331.7,520.1,331.4,520.2,330.9L520.2,330.9z"/>
												</g>
											</g>
										</g>
									</g>
								</g>
							</g>
						</g>
						<g>
							<defs>
								<path id="SVGID_7_" d="M598.5,388.8H472.3c-5.2,0-9.3-4.2-9.3-9.3v-69c0-5.2,4.2-9.3,9.3-9.3h126.2c5.2,0,9.3,4.2,9.3,9.3
									v69C607.9,384.6,603.7,388.8,598.5,388.8z"/>
							</defs>
							<clipPath id="SVGID_8_">
								<use xlink:href="#SVGID_7_"  style="overflow:visible;"/>
							</clipPath>
							<g class="st46">
								<g>
									<path class="st47" d="M468.4,425.2c5.5-42.8,42.7-74.2,67.9-65.1c20,7.2,28.8,47.4,31.7,65.1H468.4z"/>
									<path class="st48" d="M518.8,363.3H534c2.6,0,4.8-2.1,4.8-4.8v-2.7c0-2.6-2.1-4.8-4.8-4.8h-15.2c-2.6,0-4.8,2.1-4.8,4.8
										v2.7C514.1,361.2,516.2,363.3,518.8,363.3z"/>
									<g>
										<line class="st49" x1="536.3" y1="351.7" x2="536.3" y2="362.7"/>
										<line class="st49" x1="533.5" y1="351.1" x2="533.5" y2="363.3"/>
										<line class="st49" x1="530.6" y1="351.1" x2="530.6" y2="363.3"/>
										<line class="st49" x1="527.7" y1="351.1" x2="527.7" y2="363.3"/>
										<line class="st49" x1="524.7" y1="351.1" x2="524.7" y2="363.3"/>
										<line class="st49" x1="521.8" y1="351.1" x2="521.8" y2="363.3"/>
										<line class="st49" x1="518.9" y1="351.1" x2="518.9" y2="363.3"/>
										<line class="st49" x1="516" y1="352.1" x2="516" y2="362.4"/>
									</g>
								</g>
								<g>
									<g>
										<path class="st50" d="M486.4,325.6c1.3-0.9,2.6,4.6,3.3,8.2c-0.2-3-0.5-7.8,0.6-8.1c1.2-0.4,2.4,4.9,3,8.1
											c-0.2-3-0.5-8,0.5-8.1c1.4-0.1,2.4,4.5,2.9,8.1c-0.3-3.1-0.5-6.9,0.6-7.1c1.8-0.4,2.4,1.8,3.3,7c0.9,5.2,2.4,8.7,9.4,11.6
											c6.1,2.6,13.4,6.3,20.2,28.8l-19.8,0.9c0-0.6-0.1-1.1-0.1-1.7c-1.4-21-13.2-20.3-18.8-24.5S483.9,327.3,486.4,325.6z"/>
										<path class="st47" d="M496.5,425.2c8.9-11.5,14.8-32.2,13.9-50.8l19.6-1.2c1.1,3.4,2.1,7.3,3.1,11.6
											c4.4,18.7,1.5,32.2-1.6,40.4H496.5z"/>
										<g>
											<path class="st48" d="M531.6,378.9h-21.1c0-1.9,0-3.8-0.2-5.7c-0.1-1.4-0.2-2.7-0.4-3.9l18.5-0.9
												C529.5,371.4,530.6,374.9,531.6,378.9z"/>
											<g>
												<line class="st49" x1="525.5" y1="368.5" x2="527.9" y2="378.9"/>
												<line class="st49" x1="521.6" y1="368.7" x2="522.9" y2="378.9"/>
												<line class="st49" x1="517.7" y1="368.7" x2="518.3" y2="378.9"/>
												<line class="st49" x1="514.1" y1="369.1" x2="514.4" y2="378.6"/>
											</g>
										</g>
									</g>
									<g>
										<path class="st17" d="M552.8,333.8c0.8-4.7-3.7-9.7-2.2-10.9c1.5-1.2,9.9,6.4,7.5,14.1c-2.4,7.7-11,9-8,20.5
											c1.1,4.1,3.4,9.6,6.3,15.7l-19.7,0.5c-1.3-13.8,0.1-23.9,1.7-27.2C540.3,342.6,552,338.5,552.8,333.8z"/>
										<path class="st47" d="M550.3,425.2c-3.8-10.7-10.6-31.1-12.5-43.7c-0.5-3-0.8-5.8-1-8.5l18.8-1.7
											c5.4,11.4,13.2,24.9,18.6,33.2c4.1,6.4,6.3,14.1,6.5,20.7H550.3z"/>
										<g>
											<path class="st26" d="M537.3,378.6c-0.5-3.6-0.8-6.9-0.9-10.1h17.9c1.4,3,2.9,6.3,4.6,9.5L537.3,378.6z"/>
											<g>
												<line class="st25" x1="551.7" y1="368.7" x2="554.4" y2="378.6"/>
												<line class="st25" x1="548" y1="368.7" x2="549.2" y2="378.3"/>
												<line class="st25" x1="544.5" y1="368.5" x2="545" y2="378.4"/>
												<line class="st25" x1="540.4" y1="368.5" x2="541.1" y2="378.5"/>
											</g>
										</g>
									</g>
								</g>
							</g>
						</g>
					</g>
					<path class="st25" d="M598.5,388.8H472.3c-5.2,0-9.3-4.2-9.3-9.3v-69c0-5.2,4.2-9.3,9.3-9.3h126.2c5.2,0,9.3,4.2,9.3,9.3v69
						C607.9,384.6,603.7,388.8,598.5,388.8z"/>
				</g>
			</g>
		</g>
		<g>
			<g>
				<g>
					<path class="st8" d="M705.4,225H453.7c-7.5,0-13.6-6.1-13.6-13.6V30.8c0-7.5,6.1-13.6,13.6-13.6h251.7
						c7.5,0,13.6,6.1,13.6,13.6v180.6C719,218.9,712.9,225,705.4,225z"/>
					<path class="st8" d="M582.9,251.1h-24.3c-4.4,0-7.3-4.5-5.5-8.5l13.1-30.2l11.2-25.9c2.1-4.9,9-4.9,11.1,0l11.2,25.9l13.1,30.2
						c1.7,4-1.2,8.5-5.5,8.5H582.9z"/>
				</g>
				<path class="st25" d="M590.3,201.7c0,3.9-3.2,7.1-7.1,7.1s-7.1-3.2-7.1-7.1c0-3.9,3.2-7.1,7.1-7.1S590.3,197.8,590.3,201.7z"/>
			</g>
			<g>
				<path class="st17" d="M700.7,186H463c-3.4,0-6.2-2.8-6.2-6.2V39.4c0-3.4,2.8-6.2,6.2-6.2h237.7c3.4,0,6.2,2.8,6.2,6.2v140.4
					C706.9,183.2,704.1,186,700.7,186z"/>
				<g>
					<g>
						<path class="st17" d="M486.5,167.7h144c7.4,0,13.4-6,13.4-13.4V52.2c0-7.4-6-13.4-13.4-13.4h-144c-7.4,0-13.4,6-13.4,13.4
							v102.1C473.1,161.7,479.1,167.7,486.5,167.7z"/>
						<g>
							<g>
								<path class="st26" d="M489.7,50.6c0,1.6-1.3,2.9-2.9,2.9c-1.6,0-2.9-1.3-2.9-2.9c0-1.6,1.3-2.9,2.9-2.9
									C488.4,47.7,489.7,49,489.7,50.6z"/>
								<path class="st20" d="M501.2,50.6c0,1.6-1.3,2.9-2.9,2.9c-1.6,0-2.9-1.3-2.9-2.9c0-1.6,1.3-2.9,2.9-2.9
									C499.9,47.7,501.2,49,501.2,50.6z"/>
								<path class="st51" d="M512.7,50.6c0,1.6-1.3,2.9-2.9,2.9c-1.6,0-2.9-1.3-2.9-2.9c0-1.6,1.3-2.9,2.9-2.9
									C511.5,47.7,512.7,49,512.7,50.6z"/>
							</g>
							<line class="st17" x1="473.4" y1="60.8" x2="643.9" y2="60.8"/>
						</g>
					</g>
					<g>
						<g>
							<rect x="602.4" y="114.9" class="st10" width="31.8" height="19.8"/>
							<g>
								<line class="st10" x1="606.3" y1="120.1" x2="629.4" y2="120.1"/>
								<line class="st10" x1="606.3" y1="123.7" x2="629.4" y2="123.7"/>
								<line class="st10" x1="606.3" y1="127.3" x2="629.4" y2="127.3"/>
							</g>
						</g>
						<g>
							<path class="st24" d="M564.7,94.5V71.2c-12.9,0-23.3,10.4-23.3,23.3c0,12.9,10.4,23.3,23.3,23.3c12.9,0,23.3-10.4,23.3-23.3
								c0-1.7-0.2-3.3-0.5-4.9L564.7,94.5z"/>
							<path class="st8" d="M590.3,85.5c-2.3-10.5-11.6-18.4-22.8-18.4v23.3L590.3,85.5z"/>
						</g>
						<g>
							<g>
								<g>
									<path class="st10" d="M520.9,72.6H493c-1.1,0-2-0.9-2-2l0,0c0-1.1,0.9-2,2-2h27.9c1.1,0,2,0.9,2,2l0,0
										C522.9,71.7,522,72.6,520.9,72.6z"/>
									<g>
										<line class="st10" x1="493.1" y1="75.5" x2="520.1" y2="75.5"/>
										<line class="st10" x1="493.1" y1="79.1" x2="520.1" y2="79.1"/>
										<line class="st10" x1="493.1" y1="82.7" x2="520.1" y2="82.7"/>
									</g>
								</g>
								<polyline class="st10" points="524.9,71.2 535.1,71.2 549.8,84.7 								"/>
							</g>
							<g>
								<g>
									<path class="st10" d="M632.3,74.8h-27.9c-1.1,0-2-0.9-2-2l0,0c0-1.1,0.9-2,2-2h27.9c1.1,0,2,0.9,2,2l0,0
										C634.2,74,633.4,74.8,632.3,74.8z"/>
									<g>
										<g>
											<line class="st10" x1="604.4" y1="77.8" x2="631.4" y2="77.8"/>
											<line class="st10" x1="604.4" y1="81.4" x2="631.4" y2="81.4"/>
											<line class="st10" x1="604.4" y1="85" x2="631.4" y2="85"/>
										</g>
										<g>
											<line class="st10" x1="604.4" y1="88.7" x2="631.4" y2="88.7"/>
											<line class="st10" x1="604.4" y1="92.3" x2="631.4" y2="92.3"/>
											<line class="st10" x1="604.4" y1="95.9" x2="631.4" y2="95.9"/>
										</g>
									</g>
								</g>
								<polyline class="st10" points="581.7,82 591.6,73.9 600.3,73.9 								"/>
							</g>
						</g>
						<g>
							<g>
								<polyline class="st10" points="495.1,103.7 495.1,149.5 564.3,149.5 								"/>
								<g>
									<polygon class="st52" points="495.1,104 492.6,104 493.9,101.8 495.1,99.7 496.3,101.8 497.6,104 									"/>
									<polygon class="st52" points="563.6,149.5 563.6,147 565.7,148.2 567.9,149.5 565.7,150.7 563.6,151.9 									"/>
								</g>
							</g>
							<polyline class="st11" points="489.4,145.7 506.2,130.5 520.1,145.4 537.5,113.4 550.3,144.6 							"/>
							<g>
								<g>
									<path class="st53" d="M483.6,123.1c0,0,0.6-0.6,1.6-1.6"/>
									<path class="st54" d="M488.6,118.8c4.5-3.4,10.9-6.8,15.1-2.9c6.8,6.6,5.2,11.6,18.9,8.7c12.8-2.8,28.6,1.1,33.3,23"/>
									<path class="st53" d="M556.2,149.7c0.1,0.7,0.2,1.5,0.3,2.2"/>
								</g>
							</g>
						</g>
					</g>
				</g>
				<g>
					<g>
						<g>
							<defs>
								<path id="SVGID_9_" d="M699.8,186H541.4c-3.9,0,4.5-26.8,4.5-30.7L576,70.6c0-3.9,54.3,2.3,58.2,2.3l65.6-39.7
									c3.9,0,7.1,3.2,7.1,7.1v138.7C706.9,182.8,703.8,186,699.8,186z"/>
							</defs>
							<clipPath id="SVGID_10_">
								<use xlink:href="#SVGID_9_"  style="overflow:visible;"/>
							</clipPath>
							<g class="st55">
								<g>
									<path class="st51" d="M699,97.3c0,0,42,16.4,64.3,87.5l-28.5,14.1l-21.1-53.8L699,97.3z"/>
									<g>
										<g>
											<path class="st15" d="M573.7,111.4c0,0-7.2-4.6-6.3-6.8c0.9-2.2,3-1,3-1s-2.1-1.3-1.1-2.8c1-1.4,2.3-0.9,2.3-0.9
												s-1.5-2.2-0.1-3c1.5-0.8,3.6-0.3,3.6-0.3s-0.8-1.8-0.8-2.5c0-0.6,1-2.1,4-1.4c3.1,0.7,9.6,4.3,11.8,5.5
												c2.2,1.1,4.7,3.7,4.8,2.9c0.1-0.8,1-6.2,3.1-7.8c2.1-1.6,2.9-1.8,3.3,1.2c0.4,3,0.3,11.3,4.3,17.4
												c4,6.1,5.4,10.2,9.7,15.1c4.3,5,6.2,7.4,6.2,7.4l-19.2,15.6c0,0-18.6-28-18.8-28.2C583.4,121.7,577.3,114.2,573.7,111.4z
												"/>
											<g>
												<path class="st25" d="M569.7,103.5c0,0-2.4-3.9,2.1-3.4c4.5,0.5,10.5,4.6,13.4,6.8"/>
												<path class="st25" d="M590.1,115.7c0,0-1.6-5,5.5-7.1c0,0-2.7-10.6,2.4-15.3c5.1-4.7,2.3,7.4,5.8,14.8
													c3.4,7.4,7.3,14.5,11,18.4c3.7,3.9,6.8,8.1,6.8,8.1l-19.4,15.6c0,0-6.6-10.1-16.9-25.7c-10.2-15.6-19.3-16-17.9-19.8
													c1.7-4.7,13.8,6.4,13.8,6.4"/>
												<path class="st25" d="M571.8,100.1c0,0-2.3-2.8,0.6-3.6c0.5-0.1,1.1-0.1,1.8,0c3.5,0.5,9.4,3.4,13.6,6.7"/>
												<path class="st25" d="M594.9,101.9c0,0-8.4-7.8-17.9-9.1c-3.4-0.5-3.3,3,0.1,4.4"/>
											</g>
										</g>
										<g>
											<path class="st51" d="M635.5,144.3c-2.7-1.8-5.5-4.2-8.1-6.8c-8.6-8.4-15.9-18.8-15.9-18.8l-21.1,18.1
												c0,0,23,35.7,36.9,40.2c13.8,4.5,45.4-31.5,45.4-31.5l2.5-47.3c0,0-5.9,3.2-10.7,7.5c-7.8,7.1-21.5,19.7-37,31.7"/>
											<g>
												<path class="st17" d="M618.3,127.6c-4.1-5-6.9-8.9-6.9-8.9l-21.1,18.1c0,0,2.7,4.2,6.8,9.8L618.3,127.6z"/>
												<path class="st17" d="M613.1,125.6c0,0.8-0.6,1.4-1.4,1.4c-0.8,0-1.4-0.6-1.4-1.4s0.6-1.4,1.4-1.4
													C612.5,124.2,613.1,124.8,613.1,125.6z"/>
											</g>
										</g>
									</g>
								</g>
								<g>
									<path class="st1" d="M732.5,188c0-0.4,0-8.4,0-8.8c0-46.6-19.8-84.3-44.3-84.3c-24.4,0-44.3,37.8-44.3,84.3
										c0,0.4,0,8.4,0,8.8H732.5z"/>
									<line class="st25" x1="688" y1="115.9" x2="688" y2="188"/>
									<path class="st17" d="M688.2,116.7l17.1-15.4c-5.3-4.2-11-6.5-17.1-6.5c-5.8,0-12,2.6-17.1,6.5L688.2,116.7z"/>
									<path class="st25" d="M650.3,135.6c-4,12.7-6.4,27.6-6.4,43.6c0,0.4,0,8.4,0,8.8h88.5c0-0.4,0-8.4,0-8.8
										c0-16.3-2.4-31.6-6.6-44.5"/>
									<path class="st25" d="M705.3,101.3c-5.3-4.2-11-6.5-17.1-6.5c-6,0-11.8,2.3-17,6.5"/>
								</g>
							</g>
						</g>
					</g>
				</g>
				<path class="st25" d="M700.7,186H463c-3.4,0-6.2-2.8-6.2-6.2V39.4c0-3.4,2.8-6.2,6.2-6.2h237.7c3.4,0,6.2,2.8,6.2,6.2v140.4
					C706.9,183.2,704.1,186,700.7,186z"/>
				<g>
					<g>
						<path class="st56" d="M705.8,105.9l-9.4-14.1c-1.8-2.8-5.3-3.8-8.3-2.7c-3-1.1-6.5-0.1-8.3,2.7l-9.4,14.1
							c-2.2,3.2-1.3,7.6,2,9.7l1.3,0.9c3.2,2.2,7.6,1.3,9.7-2l4.7-7l4.7,7c2.2,3.2,6.5,4.1,9.7,2l1.3-0.9
							C707,113.5,707.9,109.1,705.8,105.9z"/>
						<path class="st56" d="M689.6,104.2c0,0.8-0.6,1.4-1.4,1.4s-1.4-0.6-1.4-1.4c0-0.8,0.6-1.4,1.4-1.4S689.6,103.4,689.6,104.2z"
							/>
					</g>
					<g>
						<path class="st31" d="M706.8,70.8c0,4-3.3,7.3-7.3,7.3c-4.1,0-7.3-3.3-7.3-7.3c0-4,3.3-7.3,7.3-7.3
							C703.5,63.5,706.8,66.7,706.8,70.8z"/>
						<g>
							<path class="st17" d="M674.8,48.2h9.2c6.1,0,11.1,5.7,11.1,12.7v14.3c0,0.4,0,0.8-0.1,1.2c0.1,0.4,0.2,0.9,0.2,1.3v8.7v0.5
								v8.7c0,3.2-2.6,5.7-5.7,5.7h-3.7c-3.2,0-5.7-2.6-5.7-5.7v-7.7h-5.3c-6.1,0-11.1-5.7-11.1-12.7V60.9
								C663.6,53.9,668.6,48.2,674.8,48.2z"/>
							<g>
								<path d="M692.7,70.5L691,59.3c0,0-31,3.9-41-11.2c-10-15,0.5-21,5.6-20.2c5.1,0.9,11.1,8.2,11.1,8.2s-4.8-6.5,0-7.5
									c4.8-1,10,3.9,12.7,9c0,0,20.4-1.9,27.3,10.5c6.9,12.4,1.3,21.1-11.3,33.9l-0.8-7.1L692.7,70.5z"/>
								<path d="M728.3,34.6c0,7.2-5.9,13.1-13.1,13.1c-7.2,0-13.1-5.9-13.1-13.1c0-7.2,5.9-13.1,13.1-13.1
									C722.4,21.5,728.3,27.4,728.3,34.6z"/>
							</g>
							<g>
								<g>
									<path class="st8" d="M690,72.7c0,2.9-2.4,5.3-5.3,5.3c-2.9,0-5.3-2.4-5.3-5.3c0-2.9,2.4-5.3,5.3-5.3
										C687.6,67.4,690,69.8,690,72.7z"/>
									<path class="st8" d="M665.1,68.5c-0.3,0-0.6,0-0.9,0.1v5.5c0,0.8-0.1,1.6,0.1,2.4c0.2,0,0.6,0.1,0.9,0.1c2.2,0,4-1.8,4-4
										C669.1,70.3,667.3,68.5,665.1,68.5z"/>
								</g>
								<g>
									<g>
										<path class="st33" d="M680.4,65.3c0,1-0.8,1.9-1.9,1.9c-1,0-1.9-0.8-1.9-1.9c0-1,0.8-1.9,1.9-1.9
											C679.6,63.5,680.4,64.3,680.4,65.3z"/>
										<path class="st33" d="M668.1,65.1c0,0.9-0.7,1.6-1.6,1.6c-0.9,0-1.6-0.7-1.6-1.6c0-0.9,0.7-1.6,1.6-1.6
											C667.3,63.5,668.1,64.2,668.1,65.1z"/>
									</g>
									<g>
										<path class="st34" d="M669.9,72.8c0,0,0.9,2.8,2.9,2.9c2,0.2,3.6-2,3.7-3.8L669.9,72.8z"/>
										<g>
											<path class="st33" d="M669.3,72.9c0.4,1.1,1,2.1,1.9,2.8c1.6,1.2,3.6,0.6,4.8-0.8c0.7-0.8,1.1-1.8,1.2-2.9
												c0-0.3-0.3-0.7-0.6-0.6c-1.9,0.2-3.9,0.5-5.8,0.7c-0.3,0-0.5,0.1-0.8,0.1c-0.3,0-0.6,0.3-0.6,0.6c0,0.3,0.3,0.7,0.6,0.6
												c1.9-0.2,3.9-0.5,5.8-0.7c0.3,0,0.5-0.1,0.8-0.1c-0.2-0.2-0.4-0.4-0.6-0.6c-0.1,1.2-1,2.7-2.3,3.1
												c-1.2,0.3-2.1-0.6-2.7-1.6c-0.1-0.2-0.2-0.4-0.3-0.7c0-0.1,0,0.1,0,0c0,0,0-0.1,0-0.1c0,0,0-0.1,0-0.1
												C670.2,71.8,669,72.2,669.3,72.9z"/>
										</g>
									</g>
									<g>
										<path class="st2" d="M688,64.2c0,4.1-2.9,7.3-6.6,7.3c-3.6,0-6.6-3.3-6.6-7.3c0-4.1,2.9-7.3,6.6-7.3
											C685.1,56.9,688,60.2,688,64.2z"/>
										<ellipse class="st2" cx="665.1" cy="63.3" rx="5.4" ry="6.6"/>
										<polygon class="st6" points="672.6,63.5 672.6,69.9 669.3,67.8 										"/>
										<path class="st2" d="M670.3,65.3c0,0,2.6-1.1,4.6,0.5"/>
									</g>
								</g>
							</g>
							<g>
								<path class="st15" d="M706.8,70.8c0,4-3.3,7.3-7.3,7.3c-4.1,0-7.3-3.3-7.3-7.3c0-4,3.3-7.3,7.3-7.3
									C703.5,63.5,706.8,66.7,706.8,70.8z"/>
								<g>
									<g>
										<path class="st35" d="M696.2,71.7c0-0.2,0-0.3,0-0.5c0-0.1,0-0.1,0-0.2c0,0,0-0.1,0-0.1c0-0.2,0,0.2,0,0
											c0-0.2,0.1-0.4,0.1-0.6c0-0.1,0.1-0.2,0.1-0.3c0-0.1,0-0.1,0.1-0.2c0,0,0-0.1,0-0.1c0-0.1,0,0,0,0.1
											c0.1-0.2,0.2-0.5,0.4-0.7c0,0,0,0,0-0.1c0.1-0.1,0.1,0,0,0c0,0,0.1-0.1,0.1-0.1c0.1-0.1,0.2-0.2,0.3-0.3c0,0,0,0,0.1-0.1
											c0.1-0.1,0.1,0,0,0c0.1,0,0.1-0.1,0.2-0.1c0.1-0.1,0.3-0.2,0.4-0.2c0,0,0.2-0.1,0,0c-0.1,0.1,0.1,0,0.1,0
											c0.1,0,0.2-0.1,0.3-0.1c0.1,0,0.2-0.1,0.3-0.1c0,0,0.1,0,0.1,0c0,0,0.1,0,0.1,0c0.1,0,0.1,0-0.1,0c0.1,0,0.2,0,0.3,0
											c0.1,0,0.2,0,0.4,0c0.3,0,0.5,0,0.8,0c0.4,0,0.8-0.4,0.8-0.8c0-0.5-0.3-0.7-0.8-0.8c-1.6-0.2-3.3,0.2-4.4,1.5
											c-0.7,0.9-1.1,2-1.2,3.1c0,0.2,0,0.4,0,0.6c0,0.4,0.3,0.8,0.8,0.8C695.9,72.5,696.3,72.2,696.2,71.7L696.2,71.7z"/>
									</g>
								</g>
							</g>
						</g>
					</g>
				</g>
			</g>
		</g>
	</g>
	<g>
		<g>
			<path class="st17" d="M571.2,0h45.4c5.8,0,10.5,4.7,10.5,10.5v18.6v6.5v20.3l-10.7-9.8h-45.3c-5.8,0-10.5-4.7-10.5-10.5v-25
				C560.7,4.7,565.4,0,571.2,0z"/>
			<text transform="matrix(1.0001 0 0 1 582.1315 35.2845)" class="st57 st58 st59">?</text>
		</g>
		<g>
			<g>
				<path class="st17" d="M454.2,165h-52.4c-6.7,0-12.1,5.4-12.1,12.1v21.4v7.5v23.5l12.3-11.3h52.2c6.7,0,12.1-5.4,12.1-12.1v-28.9
					C466.3,170.4,460.9,165,454.2,165z"/>
				<g>
					<path class="st17" d="M416,192.5c0,2.9-2.4,5.3-5.3,5.3s-5.3-2.4-5.3-5.3c0-2.9,2.4-5.3,5.3-5.3S416,189.6,416,192.5z"/>
					<path class="st17" d="M434.3,192.5c0,2.9-2.4,5.3-5.3,5.3s-5.3-2.4-5.3-5.3c0-2.9,2.4-5.3,5.3-5.3S434.3,189.6,434.3,192.5z"/>
					<path class="st17" d="M452.7,192.5c0,2.9-2.4,5.3-5.3,5.3s-5.3-2.4-5.3-5.3c0-2.9,2.4-5.3,5.3-5.3S452.7,189.6,452.7,192.5z"/>
				</g>
			</g>
			<g>
				<path class="st17" d="M469.3,147.7h-52.4c-6.7,0-12.1,5.4-12.1,12.1v21.4v7.5v23.5l12.3-11.3h52.2c6.7,0,12.1-5.4,12.1-12.1
					v-28.9C481.4,153.2,476,147.7,469.3,147.7z"/>
				<g>
					<path class="st17" d="M431.1,175.3c0,2.9-2.4,5.3-5.3,5.3s-5.3-2.4-5.3-5.3c0-2.9,2.4-5.3,5.3-5.3S431.1,172.4,431.1,175.3z"/>
					<path class="st17" d="M449.4,175.3c0,2.9-2.4,5.3-5.3,5.3s-5.3-2.4-5.3-5.3c0-2.9,2.4-5.3,5.3-5.3S449.4,172.4,449.4,175.3z"/>
					<path class="st17" d="M467.8,175.3c0,2.9-2.4,5.3-5.3,5.3s-5.3-2.4-5.3-5.3c0-2.9,2.4-5.3,5.3-5.3S467.8,172.4,467.8,175.3z"/>
				</g>
			</g>
		</g>
		<g>
			<path class="st17" d="M219.9,47.4h-48.4c-6.2,0-11.2,5-11.2,11.2v19.8v6.9v21.6l11.4-10.4h48.2c6.2,0,11.2-5,11.2-11.2V58.6
				C231.1,52.4,226.1,47.4,219.9,47.4z"/>
			<g>
				<path class="st17" d="M184.6,72.8c0,2.7-2.2,4.9-4.9,4.9s-4.9-2.2-4.9-4.9s2.2-4.9,4.9-4.9S184.6,70.2,184.6,72.8z"/>
				<path class="st17" d="M201.6,72.8c0,2.7-2.2,4.9-4.9,4.9s-4.9-2.2-4.9-4.9s2.2-4.9,4.9-4.9S201.6,70.2,201.6,72.8z"/>
				<path class="st17" d="M218.5,72.8c0,2.7-2.2,4.9-4.9,4.9s-4.9-2.2-4.9-4.9s2.2-4.9,4.9-4.9S218.5,70.2,218.5,72.8z"/>
			</g>
		</g>
		<g>
			<path class="st17" d="M655,271.3h-48.4c-6.2,0-11.2,5-11.2,11.2v19.8v6.9v21.6l11.4-10.4H655c6.2,0,11.2-5,11.2-11.2v-26.7
				C666.2,276.3,661.2,271.3,655,271.3z"/>
			<g>
				<path class="st17" d="M619.7,296.7c0,2.7-2.2,4.9-4.9,4.9s-4.9-2.2-4.9-4.9c0-2.7,2.2-4.9,4.9-4.9S619.7,294,619.7,296.7z"/>
				<circle class="st17" cx="631.8" cy="296.7" r="4.9"/>
				<path class="st17" d="M653.6,296.7c0,2.7-2.2,4.9-4.9,4.9c-2.7,0-4.9-2.2-4.9-4.9c0-2.7,2.2-4.9,4.9-4.9
					C651.4,291.9,653.6,294,653.6,296.7z"/>
			</g>
		</g>
		<g>
			<g>
				<path class="st20" d="M75.2,231.9c-1.1-6.1-4.6-10.2-8.4-12.7c-6.6-4.3-15.3-4.3-21.8,0c-3.9,2.5-7.3,6.6-8.4,12.7
					c-2,11.3,8,17.4,9.8,19.7c0,0,1.3,1,1.9,2.3c0.2,0.3,0.3,1.3,0.5,2.6h7.2H63c0.2-1.3,0.4-2.3,0.5-2.6c0.6-1.2,1.9-2.3,1.9-2.3
					C67.2,249.3,77.2,243.2,75.2,231.9z"/>
				<g>
					<path class="st15" d="M52.8,257.7c0,0,0-10.7-0.8-12.3c-0.8-1.5-4.4-6.9-5-8c-0.6-1.1,0.6-2.4,1.6-0.8c0.8,1.4,4.3,6.3,5.1,8.3
						c0.8,2,1.5,13.3,1.5,13.3L52.8,257.7z"/>
					<path class="st15" d="M58.8,257.7c0,0,0-10.7,0.8-12.3c0.8-1.5,4.4-6.9,5-8c0.6-1.1-0.6-2.4-1.6-0.8c-0.8,1.4-4.3,6.3-5.1,8.3
						c-0.8,2-1.5,13.3-1.5,13.3L58.8,257.7z"/>
					<g>
						<path class="st15" d="M64,237c-1.5,0.7-3.9,0.8-5.8,0.2c0,0,0,0,0,0c-1.5,1.1-3.6,0.7-5.2-0.4c-1.9,0.8-4.6,0.8-5,0.9l0-1
							c1.2,0,2.8-0.2,4.1-0.6c-1.1-1.2-1.3-2.4-0.6-3.3c0.9-1.1,2-1,2.8-0.5c0.9,0.7,1.3,2.1,0.5,3.3c-0.2,0.3-0.4,0.5-0.7,0.7
							c1,0.6,2.1,0.8,3,0.5c-0.3-0.2-0.6-0.4-0.8-0.7c-0.3-0.4-0.7-1.2,0.1-2.3c0.5-0.7,1.2-1.1,1.9-0.9c0.7,0.1,1.2,0.7,1.3,1.5
							c0.1,0.7-0.1,1.4-0.6,2.1c1.5,0.3,3.4,0.3,4.6-0.3L64,237z M57.5,234c-0.1,0.1-0.2,0.2-0.4,0.4c-0.4,0.6-0.3,0.9-0.1,1.1
							c0.2,0.3,0.5,0.5,0.9,0.6c0.5-0.5,0.7-1,0.6-1.6c-0.1-0.4-0.3-0.6-0.6-0.7C57.9,233.8,57.7,233.9,57.5,234z M53.2,235.6
							c0.3-0.2,0.6-0.4,0.8-0.6c0.5-0.7,0.2-1.5-0.3-1.9c-0.4-0.3-0.9-0.2-1.3,0.3c-0.4,0.5,0,1.4,0.6,1.9
							C53,235.5,53.1,235.6,53.2,235.6z"/>
					</g>
				</g>
				<g>
					<path class="st17" d="M55.8,255.3c-3.9,0-7.2-1-7.8-1.3c0,0.1,0.1,0.2,0.1,0.2c0.5,1.1,1.2,10,2.6,13.4c0.2,0.6,0.5,1,0.8,1.2
						c0.8,0.5,2.5,1.1,4.3,1c1.8,0.1,3.5-0.5,4.3-1c0.3-0.2,0.6-0.6,0.8-1.2c1.4-3.4,2.1-12.4,2.6-13.4c0-0.1,0.1-0.2,0.1-0.2
						C63,254.3,59.7,255.3,55.8,255.3z"/>
					<path d="M55.8,259.4c2.3,0,4.7-0.3,6.9-1c0.1-1.1,0.3-2,0.4-2.7c-4.7,1.8-10,1.8-14.7,0c0.1,0.7,0.3,1.7,0.4,2.7
						C51.1,259.1,53.5,259.3,55.8,259.4z"/>
					<path d="M55.8,263.9c2,0,4.2-0.3,6.2-0.8c0.2-0.9,0.3-1.8,0.4-2.7c-4.3,1.5-9,1.5-13.3,0c0.1,0.9,0.3,1.8,0.4,2.7
						C51.6,263.7,53.8,263.9,55.8,263.9z"/>
					<path d="M50,265.2c0.2,0.9,0.4,1.8,0.7,2.4c0,0.1,0.1,0.2,0.1,0.3c1.7,0.3,3.4,0.5,4.9,0.5c1.6,0,3.3-0.2,4.9-0.5
						c0-0.1,0.1-0.2,0.1-0.3c0.3-0.6,0.5-1.5,0.7-2.4C57.8,266.3,53.8,266.3,50,265.2z"/>
				</g>
			</g>
			<g>
				<path class="st17" d="M56.2,210.3L56.2,210.3c-1.2,0-2.1-0.9-2.1-2.1v-9.7c0-1.1,0.9-2.1,2.1-2.1h0c1.1,0,2.1,0.9,2.1,2.1v9.7
					C58.2,209.4,57.3,210.3,56.2,210.3z"/>
				<path class="st17" d="M71,213L71,213c-1-0.6-1.4-1.8-0.9-2.8l4.6-8.5c0.5-1,1.8-1.4,2.8-0.8l0,0c1,0.5,1.4,1.8,0.8,2.8l-4.6,8.5
					C73.3,213.1,72,213.5,71,213z"/>
				<path class="st17" d="M41.3,213L41.3,213c1-0.6,1.4-1.8,0.9-2.8l-4.6-8.5c-0.5-1-1.8-1.4-2.8-0.8l0,0c-1,0.5-1.4,1.8-0.8,2.8
					l4.6,8.5C39,213.1,40.2,213.5,41.3,213z"/>
				<path class="st17" d="M30.2,224.3L30.2,224.3c-0.2,1.2-1.3,1.9-2.5,1.6l-9.5-2c-1.1-0.2-1.8-1.3-1.6-2.4l0,0
					c0.2-1.1,1.3-1.8,2.4-1.6l9.5,2C29.8,222.1,30.5,223.2,30.2,224.3z"/>
				<path class="st17" d="M29.7,239.8L29.7,239.8c-0.3-1.1-1.5-1.8-2.6-1.4l-9.3,2.7c-1.1,0.3-1.7,1.5-1.4,2.6l0,0
					c0.3,1.1,1.5,1.7,2.6,1.4l9.3-2.7C29.4,242.1,30,240.9,29.7,239.8z"/>
				<path class="st17" d="M82,224.3L82,224.3c0.2,1.2,1.3,1.9,2.5,1.6l9.5-2c1.1-0.2,1.8-1.3,1.6-2.4l0,0c-0.2-1.1-1.3-1.8-2.4-1.6
					l-9.5,2C82.5,222.1,81.8,223.2,82,224.3z"/>
				<path class="st17" d="M82.6,239.8L82.6,239.8c0.3-1.1,1.5-1.8,2.6-1.4l9.3,2.7c1.1,0.3,1.7,1.5,1.4,2.6l0,0
					c-0.3,1.1-1.5,1.7-2.6,1.4l-9.3-2.7C82.9,242.1,82.2,240.9,82.6,239.8z"/>
			</g>
		</g>
	</g>
</g>
</svg>
