<svg xmlns="http://www.w3.org/2000/svg" width="24" height="24" viewBox="0 0 24 24"><g transform="translate(0.25)" fill="#2c2c2c" stroke="#118ab2" stroke-width="1" opacity="0"><rect width="23.499" height="24" stroke="none"/><rect x="0.5" y="0.5" width="22.499" height="23" fill="none"/></g><g transform="translate(0 3.256)"><g transform="translate(0 16.111)"><path d="M2,28.5H25.5v1.127H2Z" transform="translate(-1.75 -28.25)" fill="#2c2c2c"/><path d="M1.5,28h24v1.628H1.5Zm23.51.5H1.99v.626H25.01Z" transform="translate(-1.5 -28)" fill="#2c2c2c"/></g><g transform="translate(3.652 11.978)"><path d="M10.945,28.26H7.564A.564.564,0,0,1,7,27.7V23.939A.941.941,0,0,1,7.939,23h2.63a.941.941,0,0,1,.939.939V27.7A.564.564,0,0,1,10.945,28.26ZM8.127,27.133h2.254V24.127H8.127Z" transform="translate(-6.75 -22.75)" fill="#2c2c2c"/><path d="M10.7,28.261H7.314a.815.815,0,0,1-.814-.814V23.69A1.191,1.191,0,0,1,7.69,22.5h2.63a1.191,1.191,0,0,1,1.19,1.19v3.757A.815.815,0,0,1,10.7,28.261ZM7.69,23A.69.69,0,0,0,7,23.69v3.757a.313.313,0,0,0,.313.313H10.7a.313.313,0,0,0,.313-.313V23.69A.69.69,0,0,0,10.319,23Zm2.692,4.133H7.627V23.627h2.755Zm-2.254-.5H9.881v-2.5H8.128Z" transform="translate(-6.5 -22.5)" fill="#2c2c2c"/></g><g transform="translate(9.495 7.47)"><path d="M18.945,26.768H15.564A.564.564,0,0,1,15,26.2V17.939A.941.941,0,0,1,15.939,17h2.63a.941.941,0,0,1,.939.939V26.2A.564.564,0,0,1,18.945,26.768Zm-2.818-1.127h2.254V18.127H16.127Z" transform="translate(-14.75 -16.75)" fill="#2c2c2c"/><path d="M18.7,26.769H15.314a.815.815,0,0,1-.814-.814V17.69a1.191,1.191,0,0,1,1.19-1.19h2.63a1.191,1.191,0,0,1,1.19,1.19v8.265A.815.815,0,0,1,18.7,26.769ZM15.69,17A.69.69,0,0,0,15,17.69v8.265a.313.313,0,0,0,.313.313H18.7a.313.313,0,0,0,.313-.313V17.69A.69.69,0,0,0,18.319,17Zm2.692,8.641H15.627V17.627h2.755Zm-2.254-.5h1.753V18.128H16.128Z" transform="translate(-14.5 -16.5)" fill="#2c2c2c"/></g><g transform="translate(15.339 8.973)"><path d="M26.945,27.265H23.564A.564.564,0,0,1,23,26.7V19.939A.941.941,0,0,1,23.939,19h2.63a.941.941,0,0,1,.939.939V26.7A.564.564,0,0,1,26.945,27.265Zm-2.818-1.127h2.254V20.127H24.127Z" transform="translate(-22.75 -18.75)" fill="#2c2c2c"/><path d="M26.7,27.266H23.314a.815.815,0,0,1-.814-.814V19.69a1.191,1.191,0,0,1,1.19-1.19h2.63a1.191,1.191,0,0,1,1.19,1.19v6.762A.815.815,0,0,1,26.7,27.266ZM23.69,19A.69.69,0,0,0,23,19.69v6.762a.313.313,0,0,0,.313.313H26.7a.313.313,0,0,0,.313-.313V19.69A.69.69,0,0,0,26.319,19Zm2.692,7.138H23.627V19.627h2.755Zm-2.254-.5h1.753v-5.51H24.128Z" transform="translate(-22.5 -18.5)" fill="#2c2c2c"/></g><g transform="translate(4.308 0.062)"><path d="M9.01,14.414,8.235,13.6,11.8,10.214a.561.561,0,0,1,.488-.145L18.2,11.144,22.124,7.22l.8.8-4.133,4.133a.566.566,0,0,1-.5.156l-5.918-1.076Z" transform="translate(-7.881 -6.866)" fill="#2c2c2c"/><path d="M8.647,14.415,7.528,13.233,11.279,9.68a.809.809,0,0,1,.559-.223.794.794,0,0,1,.148.014l5.777,1.051,4.009-4.008,1.151,1.151-4.31,4.31a.821.821,0,0,1-.577.239.8.8,0,0,1-.145-.013L12.1,11.146Zm-.411-1.163.43.455,3.272-3.1,6.043,1.1a.312.312,0,0,0,.277-.087l3.955-3.955-.442-.442-3.84,3.839-6.037-1.1a.3.3,0,0,0-.057-.005.314.314,0,0,0-.214.086Z" transform="translate(-7.528 -6.513)" fill="#2c2c2c"/></g><g transform="translate(15.355)"><path d="M26.757,10.757H25.63V8.127H23V7h3.193a.564.564,0,0,1,.564.564Z" transform="translate(-22.75 -6.75)" fill="#2c2c2c"/><path d="M26.758,10.758H25.13V8.128H22.5V6.5h3.444a.815.815,0,0,1,.814.814Zm-1.127-.5h.626V7.314A.313.313,0,0,0,25.944,7H23v.626h2.63Z" transform="translate(-22.5 -6.5)" fill="#2c2c2c"/></g></g></svg>