<svg xmlns="http://www.w3.org/2000/svg" xmlns:xlink="http://www.w3.org/1999/xlink" width="32" height="31" viewBox="0 0 32 31"><defs><clipPath id="a"><rect width="32" height="31" transform="translate(0 0.226)" fill="#878787"/></clipPath></defs><g transform="translate(0 -0.226)" clip-path="url(#a)"><g transform="translate(0 0)"><rect width="32" height="31" transform="translate(0 0.226)" fill="none"/><g transform="translate(1.32 2.261)"><path d="M23.115,6.705a5.015,5.015,0,0,1,3.7,1.584,5.081,5.081,0,0,1,1.584,3.7c0,1.386-.858,2.969-2.573,4.883l-9.3,9.9-9.3-9.9c-1.716-1.914-2.573-3.5-2.573-4.883a5.081,5.081,0,0,1,1.584-3.7,5.015,5.015,0,0,1,3.7-1.584,5.76,5.76,0,0,1,4.289,2.969l1.716,2.9a.726.726,0,0,0,1.188,0l1.716-2.9a5.76,5.76,0,0,1,4.289-2.969m0-2.705c-2.573,0-5.279,2.045-6.6,4.289C15.2,6.045,12.491,4,9.918,4A7.918,7.918,0,0,0,4.309,6.375,7.852,7.852,0,0,0,2,11.984C2,14.689,3.781,17,5.3,18.714L16.054,30.2a.66.66,0,0,0,.924,0L27.733,18.714c1.518-1.716,3.3-4.025,3.3-6.73A7.984,7.984,0,0,0,23.114,4Z" transform="translate(-2 -4)" fill="#878787"/></g></g></g></svg>