<svg xmlns="http://www.w3.org/2000/svg" xmlns:xlink="http://www.w3.org/1999/xlink" width="24" height="24" viewBox="0 0 24 24">
  <defs>
    <clipPath id="clip-path">
      <rect id="Rectangle_127" data-name="Rectangle 127" width="24" height="24" fill="#878787" stroke="#707070" stroke-width="1"/>
    </clipPath>
  </defs>
  <g id="Mask_Group_25" data-name="Mask Group 25" clip-path="url(#clip-path)">
    <path id="_001-facebook" data-name="001-facebook" d="M23.095,16.523a.939.939,0,0,0,.939-.939V3.755A3.759,3.759,0,0,0,20.278,0H3.755A3.759,3.759,0,0,0,0,3.755V20.278a3.759,3.759,0,0,0,3.755,3.755H20.278a3.759,3.759,0,0,0,3.755-3.755.939.939,0,1,0-1.878,0,1.88,1.88,0,0,1-1.878,1.878h-4.6V15.3h2.173a.939.939,0,0,0,.932-.827l.124-1.033a.939.939,0,0,0-.932-1.051h-2.3V9.247a1.408,1.408,0,0,1,1.408-1.408H18.26A.939.939,0,0,0,19.2,6.9v-.95a.938.938,0,0,0-.842-.934c-.476-.048-.98-.088-1.271-.088A4.347,4.347,0,0,0,14.076,6.2a4.274,4.274,0,0,0-1.308,3.06v3.137H10.656a.939.939,0,0,0-.939.939v1.033a.939.939,0,0,0,.939.939h2.112v6.853H3.755a1.88,1.88,0,0,1-1.878-1.878V3.755A1.88,1.88,0,0,1,3.755,1.878H20.278a1.88,1.88,0,0,1,1.878,1.878V15.584a.939.939,0,0,0,.939.939Zm0,0" fill="#878787"/>
  </g>
</svg>
