<svg xmlns="http://www.w3.org/2000/svg" width="24" height="24" viewBox="0 0 24 24"><rect width="24" height="24" fill="#2c2c2c" opacity="0"/><g transform="translate(0)"><path d="M24.8,11.912a.734.734,0,0,1-.243-.041.75.75,0,0,1-.466-.953,2.294,2.294,0,0,0,.119-.745,2.855,2.855,0,0,0-3-2.674,3.093,3.093,0,0,0-2.586,1.333.779.779,0,0,1-1.256,0A3.1,3.1,0,0,0,14.786,7.5a2.855,2.855,0,0,0-3,2.674,2.3,2.3,0,0,0,.119.745.75.75,0,1,1-1.418.487,3.766,3.766,0,0,1-.2-1.232A4.351,4.351,0,0,1,14.786,6,4.63,4.63,0,0,1,18,7.257,4.63,4.63,0,0,1,21.213,6a4.351,4.351,0,0,1,4.5,4.174,3.766,3.766,0,0,1-.2,1.232A.75.75,0,0,1,24.8,11.912Z" transform="translate(-6 -6)" fill="#2c2c2c"/><path d="M21.213,30A4.632,4.632,0,0,1,18,28.741,4.63,4.63,0,0,1,14.785,30a4.351,4.351,0,0,1-4.5-4.174c0-.073,0-.145.007-.218a5.125,5.125,0,0,1-3.222-4.674A4.792,4.792,0,0,1,7.7,18.554,4.493,4.493,0,0,1,6,15.065,4.865,4.865,0,0,1,11.036,10.4a2.807,2.807,0,0,1,2.893,2.707.75.75,0,0,1-1.5,0A1.328,1.328,0,0,0,11.036,11.9,3.369,3.369,0,0,0,7.5,15.065a3.088,3.088,0,0,0,1.61,2.648.752.752,0,0,1,.208,1.117,3.339,3.339,0,0,0-.747,2.1,3.7,3.7,0,0,0,2.766,3.459.752.752,0,0,1,.514.893,2.371,2.371,0,0,0-.064.54,2.855,2.855,0,0,0,3,2.674,3.093,3.093,0,0,0,2.586-1.333.779.779,0,0,1,1.256,0A3.093,3.093,0,0,0,21.214,28.5a2.855,2.855,0,0,0,3-2.674,2.371,2.371,0,0,0-.064-.54.751.751,0,0,1,.514-.893,3.7,3.7,0,0,0,2.766-3.459,3.337,3.337,0,0,0-.747-2.1.751.751,0,0,1,.208-1.116,3.087,3.087,0,0,0,1.61-2.648A3.369,3.369,0,0,0,24.964,11.9a1.328,1.328,0,0,0-1.393,1.207,1.328,1.328,0,0,0,1.393,1.207.75.75,0,0,1,0,1.5,2.807,2.807,0,0,1-2.893-2.707A2.807,2.807,0,0,1,24.964,10.4,4.865,4.865,0,0,1,30,15.066a4.493,4.493,0,0,1-1.7,3.49,4.792,4.792,0,0,1,.627,2.379,5.125,5.125,0,0,1-3.222,4.674c0,.073.007.145.007.218A4.354,4.354,0,0,1,21.213,30Z" transform="translate(-6 -6)" fill="#2c2c2c"/><path d="M12.467,25.96a6.249,6.249,0,0,1-1.594-.219.75.75,0,0,1,.412-1.442,3.169,3.169,0,0,0,2.191-.076.8.8,0,0,0,.273-.723c0-.946-.3-1.25-1.25-1.25a.75.75,0,0,1,0-1.5,2.481,2.481,0,0,1,2.75,2.75,2.274,2.274,0,0,1-.872,1.921A3.16,3.16,0,0,1,12.467,25.96Z" transform="translate(-6 -6.001)" fill="#2c2c2c"/><path d="M21.25,20a.743.743,0,0,1-.488-.181.751.751,0,0,1-.081-1.058L21.762,17.5l-1.081-1.262a.75.75,0,1,1,1.139-.977l1.5,1.75a.75.75,0,0,1,0,.977l-1.5,1.75a.748.748,0,0,1-.57.263Z" transform="translate(-6.001 -6.001)" fill="#2c2c2c"/><path d="M14.75,20a.747.747,0,0,1-.569-.262l-1.5-1.75a.75.75,0,0,1,0-.977l1.5-1.75a.75.75,0,0,1,1.139.977L14.238,17.5l1.081,1.262A.749.749,0,0,1,14.75,20Z" transform="translate(-6.001 -6.001)" fill="#2c2c2c"/><path d="M17.251,21.5a.749.749,0,0,1-.732-.918l1.5-6.5a.75.75,0,1,1,1.461.336l-1.5,6.5A.749.749,0,0,1,17.251,21.5Z" transform="translate(-6.001 -6.001)" fill="#2c2c2c"/></g></svg>