<svg xmlns="http://www.w3.org/2000/svg" xmlns:xlink="http://www.w3.org/1999/xlink" width="48" height="48" viewBox="0 0 48 48">
  <defs>
    <clipPath id="clip-path">
      <rect id="Rectangle_51" data-name="Rectangle 51" width="48" height="48" transform="translate(872 8297)" fill="#118ab2"/>
    </clipPath>
  </defs>
  <g id="Mask_Group_112" data-name="Mask Group 112" transform="translate(-872 -8297)" clip-path="url(#clip-path)">
    <g id="Layer_2" data-name="Layer 2" transform="translate(872 8297)">
      <g id="invisible_box" data-name="invisible box">
        <rect id="Rectangle_501" data-name="Rectangle 501" width="48" height="48" fill="none"/>
      </g>
      <g id="icons_Q2" data-name="icons Q2">
        <path id="Path_632" data-name="Path 632" d="M24,14a3,3,0,1,1-3,3,2.9,2.9,0,0,1,3-3m0-4a7,7,0,1,0,7,7,7,7,0,0,0-7-7Z" fill="#118ab2"/>
        <path id="Path_633" data-name="Path 633" d="M24,6c7.4,0,13,6,13,14S28.4,36.7,24,41.2C19.6,36.7,11,27.5,11,20S16.6,6,24,6m0-4C14.1,2,7,10.1,7,20S18.5,41.3,22.6,45.4a1.9,1.9,0,0,0,2.8,0C29.5,41.3,41,30.1,41,20S33.9,2,24,2Z" fill="#118ab2"/>
      </g>
    </g>
  </g>
</svg>
