<svg xmlns="http://www.w3.org/2000/svg" width="48" height="48" viewBox="0 0 48 48">
  <g id="Group_656" data-name="Group 656" transform="translate(-744 -8297)">
    <rect id="Rectangle_51" data-name="Rectangle 51" width="48" height="48" transform="translate(744 8297)" fill="#118ab2" opacity="0"/>
    <path id="Icon_feather-phone" data-name="Icon feather-phone" d="M39.145,44.929c-.176,0-.354-.008-.529-.024l-.033,0a41.651,41.651,0,0,1-18.157-6.457A41.068,41.068,0,0,1,7.8,25.82,41.651,41.651,0,0,1,1.344,7.58l0-.029a5.872,5.872,0,0,1,5.843-6.4H13.26A5.872,5.872,0,0,1,19.074,6.2l0,.017a24.008,24.008,0,0,0,1.307,5.247,5.887,5.887,0,0,1-1.323,6.191l-.007.007L17.52,19.2a30.351,30.351,0,0,0,9.451,9.451L28.5,27.113l.007-.007a5.872,5.872,0,0,1,6.2-1.321,24,24,0,0,0,5.242,1.305l.017,0a5.872,5.872,0,0,1,5.051,5.935v6.011a5.872,5.872,0,0,1-5.872,5.891Zm-.182-3.708c.06.005.121.008.181.008a2.172,2.172,0,0,0,2.172-2.181s0-.005,0-.008V33.007q0-.023,0-.046a2.172,2.172,0,0,0-1.861-2.2,27.715,27.715,0,0,1-6.047-1.507,2.172,2.172,0,0,0-2.294.485l-2.549,2.549a1.85,1.85,0,0,1-2.223.3A34.045,34.045,0,0,1,13.583,19.823a1.85,1.85,0,0,1,.3-2.223l2.55-2.55a2.179,2.179,0,0,0,.486-2.289A27.724,27.724,0,0,1,15.41,6.711,2.182,2.182,0,0,0,13.26,4.85H7.186A2.172,2.172,0,0,0,5.026,7.205a38.133,38.133,0,0,0,5.886,16.61l.009.014a37.612,37.612,0,0,0,11.5,11.5l.014.009A38.138,38.138,0,0,0,38.963,41.222Z" transform="translate(744.682 8297.851)" fill="#118ab2"/>
  </g>
</svg>
