<svg xmlns="http://www.w3.org/2000/svg" viewBox="0 0 698.68 433.35"><defs><style>.cls-1,.cls-5,.cls-6,.cls-7,.cls-8{fill:none;}.cls-1,.cls-5,.cls-6,.cls-7{stroke:#000;}.cls-1,.cls-5,.cls-6,.cls-8{stroke-linecap:round;stroke-linejoin:round;}.cls-1,.cls-8{stroke-width:1.35px;}.cls-2{fill:#1f1f1f;}.cls-3{fill:#fff;}.cls-4{fill:#048ab2;}.cls-5{stroke-width:1.69px;stroke-dasharray:13.54;}.cls-6{stroke-width:1.02px;}.cls-7{stroke-miterlimit:10;stroke-width:0.43px;}.cls-8{stroke:#fff;}</style></defs><g id="OBJECTS"><rect class="cls-1" x="138.02" y="364.15" width="47.75" height="18.42"/><path class="cls-2" d="M183.07,384.44H135.81a2.2,2.2,0,0,1,0-4.4h47.26a1.32,1.32,0,0,0,1.33-1.33V366.42a1.33,1.33,0,0,0-1.33-1.34H135.81a2.2,2.2,0,0,1,0-4.4h47.26a5.74,5.74,0,0,1,5.73,5.74v12.29A5.74,5.74,0,0,1,183.07,384.44Z" transform="translate(0.68 0.68)"/><path class="cls-1" d="M183.07,384.44H135.81a2.2,2.2,0,0,1,0-4.4h47.26a1.32,1.32,0,0,0,1.33-1.33V366.42a1.33,1.33,0,0,0-1.33-1.34H135.81a2.2,2.2,0,0,1,0-4.4h47.26a5.74,5.74,0,0,1,5.73,5.74v12.29A5.74,5.74,0,0,1,183.07,384.44Z" transform="translate(0.68 0.68)"/><line class="cls-1" x1="186.78" y1="369.78" x2="159.98" y2="369.78"/><line class="cls-1" x1="186.78" y1="375.38" x2="156.6" y2="375.38"/><rect class="cls-3" x="86.09" y="389.8" width="100.68" height="33.15"/><rect class="cls-1" x="86.09" y="389.8" width="100.68" height="33.15"/><line class="cls-1" x1="86.09" y1="401.16" x2="129.78" y2="401.16"/><line class="cls-1" x1="86.09" y1="411.62" x2="141.96" y2="411.62"/><path class="cls-4" d="M189.27,425.57H89.6a7.49,7.49,0,0,1-7.47-7.48V392.58a7.48,7.48,0,0,1,7.47-7.47h99.67a3.29,3.29,0,0,1,0,6.58H89.6a.9.9,0,0,0-.9.89v25.51a.9.9,0,0,0,.9.9h99.67a3.29,3.29,0,0,1,0,6.58Z" transform="translate(0.68 0.68)"/><path class="cls-1" d="M189.27,425.57H89.6a7.49,7.49,0,0,1-7.47-7.48V392.58a7.48,7.48,0,0,1,7.47-7.47h99.67a3.29,3.29,0,0,1,0,6.58H89.6a.9.9,0,0,0-.9.89v25.51a.9.9,0,0,0,.9.9h99.67a3.29,3.29,0,0,1,0,6.58Z" transform="translate(0.68 0.68)"/><polyline class="cls-1" points="596.74 426.91 443.6 426.91 420.09 426.91 400.61 426.91 396.77 426.91 65.47 426.91"/><path class="cls-3" d="M225,313.47v3.67a7.6,7.6,0,0,1-1.8,4.91H183.34v-8.58Z" transform="translate(0.68 0.68)"/><path class="cls-1" d="M225,313.47v3.67a7.6,7.6,0,0,1-1.8,4.91H183.34v-8.58Z" transform="translate(0.68 0.68)"/><path class="cls-4" d="M438.94,426.23,333.3,423.44l-105.64,2.79c-16.81-28.57-2.56-68.68,29.23-101.22,16.12-16.5,36.29-23.42,52.25-26.22a117,117,0,0,1,24.16-1.74A115.45,115.45,0,0,1,355,298.38c16.32,2.51,37.78,9.25,54.76,26.63C441.5,357.55,455.75,397.66,438.94,426.23Z" transform="translate(0.68 0.68)"/><path class="cls-1" d="M438.94,426.23,333.3,423.44l-105.64,2.79c-16.81-28.57-2.56-68.68,29.23-101.22,16.12-16.5,36.29-23.42,52.25-26.22a117,117,0,0,1,24.16-1.74A115.45,115.45,0,0,1,355,298.38c16.32,2.51,37.78,9.25,54.76,26.63C441.5,357.55,455.75,397.66,438.94,426.23Z" transform="translate(0.68 0.68)"/><path class="cls-2" d="M224.56,375.43s10.46-10.81,23.72-6.81c12.87,3.89,21.36,20.18,20,29.2-.68,4.71-7.57,7.28-14.88,1.66S224.56,375.43,224.56,375.43Z" transform="translate(0.68 0.68)"/><path class="cls-1" d="M224.56,375.43s10.46-10.81,23.72-6.81c12.87,3.89,21.36,20.18,20,29.2-.68,4.71-7.57,7.28-14.88,1.66S224.56,375.43,224.56,375.43Z" transform="translate(0.68 0.68)"/><path class="cls-2" d="M442,375.43s-10.46-10.81-23.73-6.81c-12.87,3.89-21.35,20.18-20,29.2.68,4.71,7.57,7.28,14.87,1.66S442,375.43,442,375.43Z" transform="translate(0.68 0.68)"/><path class="cls-1" d="M442,375.43s-10.46-10.81-23.73-6.81c-12.87,3.89-21.35,20.18-20,29.2.68,4.71,7.57,7.28,14.87,1.66S442,375.43,442,375.43Z" transform="translate(0.68 0.68)"/><path class="cls-2" d="M336.18,315.6c-1,.07-2.08.11-3.2.11-.88,0-1.73,0-2.55-.07-22.3-1.11-21.29-16.85-21.29-16.85h0a117,117,0,0,1,24.16-1.74A115.45,115.45,0,0,1,355,298.38S357.65,314.18,336.18,315.6Z" transform="translate(0.68 0.68)"/><path class="cls-3" d="M345.89,287.27v16.58s-3.89,5.36-13.79,5.36-13.81-5.36-13.81-5.36V287.27Z" transform="translate(0.68 0.68)"/><path class="cls-1" d="M345.89,287.27v16.58s-3.89,5.36-13.79,5.36-13.81-5.36-13.81-5.36V287.27Z" transform="translate(0.68 0.68)"/><path class="cls-3" d="M359.21,261.39c0,19.66-12.43,34.57-27.77,34.57s-27.77-14.91-27.77-34.57,12.43-38.63,27.77-38.63S359.21,241.74,359.21,261.39Z" transform="translate(0.68 0.68)"/><path class="cls-1" d="M359.21,261.39c0,19.66-12.43,34.57-27.77,34.57s-27.77-14.91-27.77-34.57,12.43-38.63,27.77-38.63S359.21,241.74,359.21,261.39Z" transform="translate(0.68 0.68)"/><path class="cls-4" d="M364.67,253.78c-.19.51-.37,1-.55,1.4a18.65,18.65,0,0,1-1.56,3,7.54,7.54,0,0,1-.91,1.19c-.22.11-.44.22-.66.31s-.7.33-1.05.47l-.74.31-.67.26c-26,9.66-44.46-21.54-44.46-21.54-.14,14.11-6.9,22.34-9.44,24.94-.38.38-.67.65-.83.78l-.13.12c-.49-.59-1-1.19-1.42-1.78l-.3-.39c-.54-.74-1.06-1.47-1.54-2.2q-1.17-1.78-2.1-3.57a34.69,34.69,0,0,1-1.47-3.18A32.19,32.19,0,0,1,294.5,244c-1.35-19.22,15.78-35.26,31.74-36.82,21.6-2.11,25.83,8.78,25.83,8.78l0,0c2.84-.77,14.58,2.25,14.91,20C367.17,244.43,366,250.13,364.67,253.78Z" transform="translate(0.68 0.68)"/><path class="cls-3" d="M301.23,267.4l-3.62-.88,1.12-4.54c-.43-3.17-2.73-24,8.27-36.85,5.55-6.48,13.54-9.76,23.73-9.76,11.49,0,20.21,3.63,25.95,10.78,11.3,14.1,6.7,36.73,6.13,39.26l-3.63-.81c.52-2.35,4.81-23.37-5.41-36.12-5-6.23-12.74-9.38-23-9.38-9.05,0-16.09,2.84-20.9,8.44-10.56,12.29-7.4,34-7.37,34.25l.05.36Z" transform="translate(0.68 0.68)"/><path class="cls-1" d="M301.23,267.4l-3.62-.88,1.12-4.54c-.43-3.17-2.73-24,8.27-36.85,5.55-6.48,13.54-9.76,23.73-9.76,11.49,0,20.21,3.63,25.95,10.78,11.3,14.1,6.7,36.73,6.13,39.26l-3.63-.81c.52-2.35,4.81-23.37-5.41-36.12-5-6.23-12.74-9.38-23-9.38-9.05,0-16.09,2.84-20.9,8.44-10.56,12.29-7.4,34-7.37,34.25l.05.36Z" transform="translate(0.68 0.68)"/><path d="M338.86,256.42c-.47.82,5.48,3.29,6.34,2.44S339.53,255.26,338.86,256.42Z" transform="translate(0.68 0.68)"/><path d="M340.54,268h0a1.09,1.09,0,0,1-1.09-1.09V264.2a1.09,1.09,0,0,1,1.09-1.1h0a1.1,1.1,0,0,1,1.1,1.1v2.68A1.09,1.09,0,0,1,340.54,268Z" transform="translate(0.68 0.68)"/><path d="M323.77,268h0a1.09,1.09,0,0,1-1.1-1.09V264.2a1.1,1.1,0,0,1,1.1-1.1h0a1.1,1.1,0,0,1,1.1,1.1v2.68A1.1,1.1,0,0,1,323.77,268Z" transform="translate(0.68 0.68)"/><path class="cls-1" d="M339,268a2.72,2.72,0,0,1,3,0" transform="translate(0.68 0.68)"/><path class="cls-1" d="M329.25,283.21s8.2-.73,12.42-6.83" transform="translate(0.68 0.68)"/><path d="M325.45,256.42c.48.82-5.48,3.29-6.33,2.44S324.78,255.26,325.45,256.42Z" transform="translate(0.68 0.68)"/><path class="cls-1" d="M325.28,268a2.72,2.72,0,0,0-3,0" transform="translate(0.68 0.68)"/><path class="cls-1" d="M329.57,269.23s-.64,3.25,2.53,2.93,3.24-3.74,1-3.82" transform="translate(0.68 0.68)"/><path class="cls-3" d="M246,368.68c19.51,6.29,17.38,48.64,6,57.55h-41.9s-1.81-24.91,5.66-39.21S236.43,365.59,246,368.68Z" transform="translate(0.68 0.68)"/><path class="cls-1" d="M246,368.68c19.51,6.29,17.38,48.64,6,57.55h-41.9s-1.81-24.91,5.66-39.21S236.43,365.59,246,368.68Z" transform="translate(0.68 0.68)"/><path class="cls-3" d="M223.68,426.23h23.51c1.81,4.65,10.69,4.94,19.48,0l.14-.08a8.58,8.58,0,0,0,4.33-7.48v-1a8.6,8.6,0,0,0-4.33-7.48l-.05,0c-1.95-1.1-8,.37-11.33-.49s-8.66-4.73-10.29-6.39l-.06-.07a11.07,11.07,0,0,0-14-2.17C226.26,403.72,224.39,417.3,223.68,426.23Z" transform="translate(0.68 0.68)"/><path class="cls-1" d="M223.68,426.23h23.51c1.81,4.65,10.69,4.94,19.48,0l.14-.08a8.58,8.58,0,0,0,4.33-7.48v-1a8.6,8.6,0,0,0-4.33-7.48l-.05,0c-1.95-1.1-8,.37-11.33-.49s-8.66-4.73-10.29-6.39l-.06-.07a11.07,11.07,0,0,0-14-2.17C226.26,403.72,224.39,417.3,223.68,426.23Z" transform="translate(0.68 0.68)"/><path class="cls-1" d="M267.08,426l-.41.23c-8.79,4.94-17.67,4.65-19.48,0a6.25,6.25,0,0,1,0-4.09c2.86-9.62,12.74-9.14,12.74-9.14" transform="translate(0.68 0.68)"/><path class="cls-3" d="M420.59,368.68c-19.5,6.29-17.37,48.64-6,57.55h41.89s1.81-24.91-5.66-39.21S430.18,365.59,420.59,368.68Z" transform="translate(0.68 0.68)"/><path class="cls-1" d="M420.59,368.68c-19.5,6.29-17.37,48.64-6,57.55h41.89s1.81-24.91-5.66-39.21S430.18,365.59,420.59,368.68Z" transform="translate(0.68 0.68)"/><path class="cls-3" d="M442.93,426.23H419.42c-1.82,4.65-10.7,4.94-19.48,0l-.15-.08a8.58,8.58,0,0,1-4.33-7.48v-1a8.62,8.62,0,0,1,4.33-7.48l.06,0c1.95-1.1,8,.37,11.33-.49s8.66-4.73,10.28-6.39l.07-.07a11.05,11.05,0,0,1,14-2.17C440.35,403.72,442.22,417.3,442.93,426.23Z" transform="translate(0.68 0.68)"/><path class="cls-1" d="M442.93,426.23H419.42c-1.82,4.65-10.7,4.94-19.48,0l-.15-.08a8.58,8.58,0,0,1-4.33-7.48v-1a8.62,8.62,0,0,1,4.33-7.48l.06,0c1.95-1.1,8,.37,11.33-.49s8.66-4.73,10.28-6.39l.07-.07a11.05,11.05,0,0,1,14-2.17C440.35,403.72,442.22,417.3,442.93,426.23Z" transform="translate(0.68 0.68)"/><path class="cls-1" d="M406.67,413s9.89-.48,12.74,9.14a6.19,6.19,0,0,1,0,4.09c-1.82,4.65-10.7,4.94-19.48,0l-.41-.23" transform="translate(0.68 0.68)"/><path class="cls-3" d="M451.72,427.18s5,2.76,6.93-3.82c2.28-7.59-1.52-22.5-5.58-23.32s-6.33,5-6.33,5Z" transform="translate(0.68 0.68)"/><path class="cls-1" d="M451.72,427.18s5,2.76,6.93-3.82c2.28-7.59-1.52-22.5-5.58-23.32s-6.33,5-6.33,5Z" transform="translate(0.68 0.68)"/><path class="cls-3" d="M433.83,403.86a10.07,10.07,0,0,1,9.86-5c7.19.48,9.95,26,9,29.15s-10.95,5.21-12.29-.76S433.83,403.86,433.83,403.86Z" transform="translate(0.68 0.68)"/><path class="cls-1" d="M433.83,403.86a10.07,10.07,0,0,1,9.86-5c7.19.48,9.95,26,9,29.15s-10.95,5.21-12.29-.76S433.83,403.86,433.83,403.86Z" transform="translate(0.68 0.68)"/><path class="cls-3" d="M441.58,426.23a6.81,6.81,0,0,1-.63,2.43c-2.57,4.86-13.11,4.73-15.54-2.43,0-.12-.07-.24-.11-.36-1.53-5.23-3.05-16.32-3.84-22.55l.07-.07a11.05,11.05,0,0,1,14-2.17C437.93,404,442.3,419.19,441.58,426.23Z" transform="translate(0.68 0.68)"/><path class="cls-1" d="M421.46,403.32l.07-.07a11.05,11.05,0,0,1,14-2.17c2.42,2.87,6.79,18.11,6.07,25.15a6.81,6.81,0,0,1-.63,2.43c-2.57,4.86-13.11,4.73-15.54-2.43,0-.12-.07-.24-.11-.36a129.79,129.79,0,0,1-2.81-14.95" transform="translate(0.68 0.68)"/><path class="cls-3" d="M214.88,427.18s-4.95,2.76-6.93-3.82c-2.28-7.59,1.52-22.5,5.58-23.32s6.33,5,6.33,5Z" transform="translate(0.68 0.68)"/><path class="cls-1" d="M214.88,427.18s-4.95,2.76-6.93-3.82c-2.28-7.59,1.52-22.5,5.58-23.32s6.33,5,6.33,5Z" transform="translate(0.68 0.68)"/><path class="cls-3" d="M232.77,403.86a10.06,10.06,0,0,0-9.86-5c-7.19.48-9.95,26-9,29.15s11,5.21,12.3-.76S232.77,403.86,232.77,403.86Z" transform="translate(0.68 0.68)"/><path class="cls-1" d="M232.77,403.86a10.06,10.06,0,0,0-9.86-5c-7.19.48-9.95,26-9,29.15s11,5.21,12.3-.76S232.77,403.86,232.77,403.86Z" transform="translate(0.68 0.68)"/><path class="cls-3" d="M225,426.23a6.82,6.82,0,0,0,.62,2.43c2.57,4.86,13.11,4.73,15.54-2.43,0-.12.08-.24.11-.36,1.53-5.23,3.06-16.32,3.84-22.55l-.06-.07a11.07,11.07,0,0,0-14-2.17C228.67,404,224.3,419.19,225,426.23Z" transform="translate(0.68 0.68)"/><path class="cls-1" d="M245.14,403.32l-.06-.07a11.07,11.07,0,0,0-14-2.17c-2.42,2.87-6.79,18.11-6.06,25.15a6.82,6.82,0,0,0,.62,2.43c2.57,4.86,13.11,4.73,15.54-2.43,0-.12.08-.24.11-.36A121.53,121.53,0,0,0,244,412" transform="translate(0.68 0.68)"/><path class="cls-3" d="M352.07,215.94c-14.62-11.38-50-11.22-57.57,28-1.35-19.22,15.78-35.26,31.74-36.82C347.84,205.05,352.07,215.94,352.07,215.94Z" transform="translate(0.68 0.68)"/><path class="cls-1" d="M364.67,253.78c-.19.51-.37,1-.55,1.4a18.65,18.65,0,0,1-1.56,3,7.54,7.54,0,0,1-.91,1.19c-.22.11-.44.22-.66.31s-.7.33-1.05.47l-.74.31-.67.26c-26,9.66-44.46-21.54-44.46-21.54-.14,14.11-6.9,22.34-9.44,24.94-.38.38-.67.65-.83.78l-.13.12c-.49-.59-1-1.19-1.42-1.78l-.3-.39c-.54-.74-1.06-1.47-1.54-2.2q-1.17-1.78-2.1-3.57a34.69,34.69,0,0,1-1.47-3.18A32.19,32.19,0,0,1,294.5,244c-1.35-19.22,15.78-35.26,31.74-36.82,21.6-2.11,25.83,8.78,25.83,8.78l0,0c2.84-.77,14.58,2.25,14.91,20C367.17,244.43,366,250.13,364.67,253.78Z" transform="translate(0.68 0.68)"/><path class="cls-3" d="M360.56,253.91h5.6a4.47,4.47,0,0,1,4.47,4.47v9a8.29,8.29,0,0,1-8.29,8.29h-1.78a0,0,0,0,1,0,0V253.91A0,0,0,0,1,360.56,253.91Z" transform="translate(25.32 -30.38) rotate(5.03)"/><path d="M361.4,275.36l-1.43-.13a2.22,2.22,0,0,1-2-2.23l.05-7.55a22.44,22.44,0,0,1,3.54-11.94l1.78.16A114,114,0,0,0,361.4,275.36Z" transform="translate(0.68 0.68)"/><path class="cls-3" d="M292,253.91h1.78a8.29,8.29,0,0,1,8.29,8.29v9a4.47,4.47,0,0,1-4.47,4.47H292a0,0,0,0,1,0,0V253.91A0,0,0,0,1,292,253.91Z" transform="translate(617.53 502.36) rotate(174.82)"/><path class="cls-1" d="M360.56,253.91h5.6a4.47,4.47,0,0,1,4.47,4.47v9a8.29,8.29,0,0,1-8.29,8.29h-1.78a0,0,0,0,1,0,0V253.91A0,0,0,0,1,360.56,253.91Z" transform="translate(25.32 -30.38) rotate(5.03)"/><path class="cls-1" d="M292,253.91h1.78a8.29,8.29,0,0,1,8.29,8.29v9a4.47,4.47,0,0,1-4.47,4.47H292a0,0,0,0,1,0,0V253.91A0,0,0,0,1,292,253.91Z" transform="translate(617.53 502.36) rotate(174.82)"/><path d="M301.29,275.35l1.43-.13a2.23,2.23,0,0,0,2-2.24l-.07-7.55a22.46,22.46,0,0,0-3.57-11.93l-1.78.16A114.32,114.32,0,0,1,301.29,275.35Z" transform="translate(0.68 0.68)"/><path class="cls-1" d="M361.4,275.36l-1.43-.13a2.22,2.22,0,0,1-2-2.23l.05-7.55a22.44,22.44,0,0,1,3.54-11.94l1.78.16A114,114,0,0,0,361.4,275.36Z" transform="translate(0.68 0.68)"/><path class="cls-1" d="M301.29,275.35l1.43-.13a2.23,2.23,0,0,0,2-2.24l-.07-7.55a22.46,22.46,0,0,0-3.57-11.93l-1.78.16A114.32,114.32,0,0,1,301.29,275.35Z" transform="translate(0.68 0.68)"/><path class="cls-3" d="M670.54,87.05V319.58a10.29,10.29,0,0,1-10.28,10.29H436.08a10.29,10.29,0,0,1-10.29-10.29V87.05a10.29,10.29,0,0,1,10.29-10.29H660.26A10.28,10.28,0,0,1,670.54,87.05Z" transform="translate(0.68 0.68)"/><path class="cls-1" d="M509.6,329.87H436.08a10.29,10.29,0,0,1-10.29-10.29V180.08" transform="translate(0.68 0.68)"/><path class="cls-1" d="M425.79,107.7V87.05a10.29,10.29,0,0,1,10.29-10.29H660.26a10.28,10.28,0,0,1,10.28,10.29V300.5" transform="translate(0.68 0.68)"/><path class="cls-4" d="M670.54,87.05V97.23H425.79V87.05a10.29,10.29,0,0,1,10.29-10.29H660.26A10.28,10.28,0,0,1,670.54,87.05Z" transform="translate(0.68 0.68)"/><path class="cls-1" d="M670.54,87.05V97.23H425.79V87.05a10.29,10.29,0,0,1,10.29-10.29H660.26A10.28,10.28,0,0,1,670.54,87.05Z" transform="translate(0.68 0.68)"/><path class="cls-3" d="M639.81,86.84a3.57,3.57,0,1,1-3.56-3.57A3.57,3.57,0,0,1,639.81,86.84Z" transform="translate(0.68 0.68)"/><path d="M662.1,86.84a3.57,3.57,0,1,1-3.56-3.57A3.57,3.57,0,0,1,662.1,86.84Z" transform="translate(0.68 0.68)"/><path class="cls-3" d="M617.52,86.84A3.56,3.56,0,1,1,614,83.27,3.56,3.56,0,0,1,617.52,86.84Z" transform="translate(0.68 0.68)"/><path class="cls-2" d="M392.66,420.92H273.31l-9.68-72.74a3.13,3.13,0,0,1,3.1-3.55H399.24a3.13,3.13,0,0,1,3.1,3.55Z" transform="translate(0.68 0.68)"/><path class="cls-1" d="M392.66,420.92H273.31l-9.68-72.74a3.13,3.13,0,0,1,3.1-3.55H399.24a3.13,3.13,0,0,1,3.1,3.55Z" transform="translate(0.68 0.68)"/><rect class="cls-3" x="273.98" y="419.16" width="119.36" height="7.75"/><rect class="cls-1" x="273.98" y="419.16" width="119.36" height="7.75"/><ellipse class="cls-3" cx="331.1" cy="384.33" rx="12.91" ry="12.92"/><path class="cls-4" d="M484.75,115.15H383.54a8.17,8.17,0,0,0-8.17,8.17v46.9a8.17,8.17,0,0,0,8.17,8.18h90.67l12.12,16.93a8.13,8.13,0,0,0,6.59,3.38V123.32A8.17,8.17,0,0,0,484.75,115.15ZM405.87,149.8a3.57,3.57,0,1,1,3.56-3.57A3.56,3.56,0,0,1,405.87,149.8Zm26.4,0a3.57,3.57,0,1,1,3.56-3.57A3.57,3.57,0,0,1,432.27,149.8Zm26.4,0a3.57,3.57,0,1,1,3.56-3.57A3.57,3.57,0,0,1,458.67,149.8Z" transform="translate(0.68 0.68)"/><path class="cls-1" d="M478,107.7H376.77a8.17,8.17,0,0,0-8.17,8.17v46.91a8.17,8.17,0,0,0,8.17,8.17h90.68l12.12,16.93a8.1,8.1,0,0,0,6.58,3.38V115.87A8.17,8.17,0,0,0,478,107.7ZM399.1,142.35a3.57,3.57,0,1,1,3.56-3.56A3.56,3.56,0,0,1,399.1,142.35Zm26.4,0a3.57,3.57,0,1,1,3.56-3.56A3.56,3.56,0,0,1,425.5,142.35Zm26.4,0a3.57,3.57,0,1,1,3.56-3.56A3.56,3.56,0,0,1,451.9,142.35Z" transform="translate(0.68 0.68)"/><path class="cls-4" d="M636.07,129.68a3.57,3.57,0,1,1-3.56-3.56A3.56,3.56,0,0,1,636.07,129.68Z" transform="translate(0.68 0.68)"/><path class="cls-4" d="M662.47,129.68a3.57,3.57,0,1,1-3.57-3.56A3.56,3.56,0,0,1,662.47,129.68Z" transform="translate(0.68 0.68)"/><path class="cls-4" d="M688.87,129.68a3.57,3.57,0,1,1-3.57-3.56A3.56,3.56,0,0,1,688.87,129.68Z" transform="translate(0.68 0.68)"/><path class="cls-4" d="M636.07,153.36a3.57,3.57,0,1,1-3.56-3.56A3.57,3.57,0,0,1,636.07,153.36Z" transform="translate(0.68 0.68)"/><path class="cls-4" d="M662.47,153.36a3.57,3.57,0,1,1-3.57-3.56A3.57,3.57,0,0,1,662.47,153.36Z" transform="translate(0.68 0.68)"/><path class="cls-4" d="M688.87,153.36a3.57,3.57,0,1,1-3.57-3.56A3.57,3.57,0,0,1,688.87,153.36Z" transform="translate(0.68 0.68)"/><path class="cls-4" d="M636.07,177.05a3.57,3.57,0,1,1-3.56-3.57A3.56,3.56,0,0,1,636.07,177.05Z" transform="translate(0.68 0.68)"/><path class="cls-4" d="M662.47,177.05a3.57,3.57,0,1,1-3.57-3.57A3.56,3.56,0,0,1,662.47,177.05Z" transform="translate(0.68 0.68)"/><path class="cls-4" d="M688.87,177.05a3.57,3.57,0,1,1-3.57-3.57A3.56,3.56,0,0,1,688.87,177.05Z" transform="translate(0.68 0.68)"/><path class="cls-5" d="M512.46,63.59S475.89,15.33,364.24,20.45,214.89,80.14,278.36,92.77c62.85,12.51,102.16-17.48,45.51-29.91S195.6,81.14,166.37,129.68" transform="translate(0.68 0.68)"/><path class="cls-4" d="M320.94,144.76H264.43a4.06,4.06,0,0,0-4.06,4.06V178.4a4.06,4.06,0,0,0,4.06,4.06h43.36l11.32,13.16a1,1,0,0,0,1.83-.68V182.46A4.06,4.06,0,0,0,325,178.4V148.82A4.06,4.06,0,0,0,320.94,144.76ZM292.68,174c-5.52,0-14.76-16.22-9.25-19.66,5.19-3.25,9.25,2.92,9.25,2.92s4.06-6.17,9.26-2.92C307.44,157.79,298.21,174,292.68,174Z" transform="translate(0.68 0.68)"/><path class="cls-1" d="M315.53,148.82H259a4.07,4.07,0,0,0-4.06,4.07v29.57a4.06,4.06,0,0,0,4.06,4.06h43.36l11.33,13.16a1,1,0,0,0,1.83-.68V186.52a4.06,4.06,0,0,0,4.06-4.06V152.89A4.07,4.07,0,0,0,315.53,148.82Zm-28.26,29.25c-5.52,0-14.76-16.22-9.26-19.66,5.2-3.25,9.26,2.93,9.26,2.93s4.06-6.18,9.26-2.93C302,161.85,292.79,178.07,287.27,178.07Z" transform="translate(0.68 0.68)"/><path class="cls-4" d="M529.69,17.38v2.37l14.42,12.42a2.29,2.29,0,0,0,3.79-1.74V4.33a2.29,2.29,0,0,0-3.79-1.74L529.69,15Z" transform="translate(0.68 0.68)"/><rect x="527.14" y="13.61" width="6.46" height="8.88"/><path class="cls-1" d="M529,15.35v2.37l14.43,12.42a2.29,2.29,0,0,0,3.78-1.74V2.29A2.29,2.29,0,0,0,543.44.56L529,13Z" transform="translate(0.68 0.68)"/><rect class="cls-1" x="526.46" y="11.58" width="6.46" height="8.88"/><rect class="cls-4" x="495.19" y="6.05" width="34.05" height="24.01" rx="6.41"/><path class="cls-3" d="M516,17.38a4.44,4.44,0,1,1-4.44-4.44A4.44,4.44,0,0,1,516,17.38Z" transform="translate(0.68 0.68)"/><rect class="cls-1" x="494.51" y="4.02" width="34.05" height="24.01" rx="6.41"/><path class="cls-1" d="M515.3,15.35a4.44,4.44,0,1,1-4.44-4.44A4.44,4.44,0,0,1,515.3,15.35Z" transform="translate(0.68 0.68)"/><path class="cls-1" d="M225,151.31V317.14a7.62,7.62,0,0,1-7.61,7.61H51.6A7.61,7.61,0,0,1,44,317.14V151.31a7.61,7.61,0,0,1,7.61-7.61H217.34A7.61,7.61,0,0,1,225,151.31Z" transform="translate(0.68 0.68)"/><path class="cls-2" d="M225,151.31v14H44v-14a7.61,7.61,0,0,1,7.61-7.61H217.34A7.61,7.61,0,0,1,225,151.31Z" transform="translate(0.68 0.68)"/><path class="cls-3" d="M174.85,154.84a3.57,3.57,0,1,1-3.57-3.57A3.56,3.56,0,0,1,174.85,154.84Z" transform="translate(0.68 0.68)"/><path class="cls-3" d="M197.13,154.84a3.56,3.56,0,1,1-3.56-3.57A3.56,3.56,0,0,1,197.13,154.84Z" transform="translate(0.68 0.68)"/><path class="cls-3" d="M219.42,154.84a3.56,3.56,0,1,1-3.56-3.57A3.56,3.56,0,0,1,219.42,154.84Z" transform="translate(0.68 0.68)"/><path class="cls-4" d="M219.42,154.84a3.56,3.56,0,1,1-3.56-3.57A3.56,3.56,0,0,1,219.42,154.84Z" transform="translate(0.68 0.68)"/><path class="cls-1" d="M225,151.31v14H44v-14a7.61,7.61,0,0,1,7.61-7.61H217.34A7.61,7.61,0,0,1,225,151.31Z" transform="translate(0.68 0.68)"/><path class="cls-4" d="M151.61,93.64a15.69,15.69,0,0,1-1.64.91H132.82V86.41h4l-9.79-11.2-9.8,11.2h4v8.14H103a19.73,19.73,0,0,1,29.33-26.41,8.26,8.26,0,0,1,5.56-2.09c4.31,0,7.8,3.14,7.8,7v0c4.36-.6,8.58,1,10.8,4.44a9.22,9.22,0,0,1,1.27,3.07C158.81,85.22,156.44,90.54,151.61,93.64Z" transform="translate(0.68 0.68)"/><path class="cls-1" d="M155,96a14.73,14.73,0,0,1-1.64.91H136.21V88.77h4l-9.8-11.19-9.8,11.19h4v8.15H106.42a19.74,19.74,0,0,1,29.34-26.41,8.22,8.22,0,0,1,5.55-2.09c4.31,0,7.81,3.14,7.81,7v0c4.35-.6,8.57,1,10.8,4.44A9.41,9.41,0,0,1,161.18,83C162.19,87.59,159.82,92.91,155,96Z" transform="translate(0.68 0.68)"/><polygon class="cls-4" points="245.73 19.26 249.46 27.55 275.2 3.17 245.73 19.26"/><polygon class="cls-6" points="245.73 19.26 249.46 27.55 275.2 3.17 245.73 19.26"/><polygon points="247.11 19.32 249.46 27.55 245.73 19.26 245.32 19.05 247.13 18.63 247.11 19.32"/><polygon class="cls-4" points="275.2 3.17 263.02 19.99 247.11 19.32 245.73 19.26 245.32 19.05 237.36 14.95 275.2 3.17"/><polygon class="cls-6" points="275.2 3.17 263.02 19.99 247.11 19.32 245.73 19.26 245.32 19.05 237.36 14.95 275.2 3.17"/><polygon points="275.2 3.17 247.11 19.32 245.73 19.26 245.32 19.05 275.2 3.17"/><path class="cls-3" d="M220.21,210.15h1.11a2.84,2.84,0,0,1,2.84,2.84v19.34a0,0,0,0,1,0,0h-4a0,0,0,0,1,0,0V210.15A0,0,0,0,1,220.21,210.15Z"/><path class="cls-3" d="M199.25,212.6,183.5,232h9.1a9.77,9.77,0,0,1,1.53-5.54l5.12-8Z" transform="translate(0.68 0.68)"/><path class="cls-1" d="M220.21,210.15h1.11a2.84,2.84,0,0,1,2.84,2.84v19.34a0,0,0,0,1,0,0h-4a0,0,0,0,1,0,0V210.15A0,0,0,0,1,220.21,210.15Z"/><path class="cls-1" d="M199.25,212.6,183.5,232h9.1a9.77,9.77,0,0,1,1.53-5.54l5.12-8Z" transform="translate(0.68 0.68)"/><rect class="cls-2" x="204.8" y="204.67" width="10.23" height="27.66"/><rect class="cls-1" x="204.8" y="204.67" width="10.23" height="27.66"/><rect class="cls-4" x="198.1" y="201.5" width="7.92" height="30.83"/><rect class="cls-1" x="198.1" y="201.5" width="7.92" height="30.83"/><rect class="cls-4" x="213.69" y="201.5" width="7.92" height="30.83"/><rect class="cls-1" x="213.69" y="201.5" width="7.92" height="30.83"/><rect class="cls-3" x="164.73" y="231.48" width="60.89" height="3.42"/><rect class="cls-1" x="164.73" y="231.48" width="60.89" height="3.42"/><polyline class="cls-1" points="82.28 314.15 82.28 375.53 57.92 375.53"/><line class="cls-1" x1="82.28" y1="347.43" x2="57.92" y2="347.43"/><line class="cls-1" x1="35.75" y1="351.16" x2="0.68" y2="351.16"/><line class="cls-1" x1="38.68" y1="342.38" x2="26.01" y2="342.38"/><line class="cls-1" x1="35.75" y1="379.38" x2="0.68" y2="379.38"/><line class="cls-1" x1="38.68" y1="370.6" x2="26.01" y2="370.6"/><rect class="cls-4" x="44.67" y="339.21" width="16.12" height="16.13"/><rect class="cls-4" x="44.67" y="367.46" width="16.12" height="16.13"/><rect class="cls-1" x="42.3" y="336.17" width="16.12" height="16.13"/><rect class="cls-1" x="42.3" y="364.42" width="16.12" height="16.13"/><path class="cls-3" d="M469.88,231.16s-10.59-30.45-10.6-33.64c0-4.35,6.13-7,9.87-4.88,5.43,3,13.76,40.47,13.76,40.47Z" transform="translate(0.68 0.68)"/><path class="cls-1" d="M469.88,231.16s-10.59-30.45-10.6-33.64c0-4.35,6.13-7,9.87-4.88,5.43,3,13.76,40.47,13.76,40.47Z" transform="translate(0.68 0.68)"/><path class="cls-3" d="M492.92,241.79c-13.1,10.82-29.34,12.05-36.19,12-2.58-13.1-4.39-23.52-4.39-23.52l32.16-7S487.91,230.63,492.92,241.79Z" transform="translate(0.68 0.68)"/><path class="cls-1" d="M492.92,241.79c-13.1,10.82-29.34,12.05-36.19,12-2.58-13.1-4.39-23.52-4.39-23.52l32.16-7S487.91,230.63,492.92,241.79Z" transform="translate(0.68 0.68)"/><path class="cls-3" d="M454.66,222.14a9,9,0,0,1,6.09-6.1c5-1.46,9.62,8.05,10.71,13.29s.25,9.75-4.62,9.87-6.22-5.73-7.19-9.14S454.66,222.14,454.66,222.14Z" transform="translate(0.68 0.68)"/><path class="cls-1" d="M454.66,222.14a9,9,0,0,1,6.09-6.1c5-1.46,9.62,8.05,10.71,13.29s.25,9.75-4.62,9.87-6.22-5.73-7.19-9.14S454.66,222.14,454.66,222.14Z" transform="translate(0.68 0.68)"/><path class="cls-2" d="M572.81,263.94,524.93,308.3h0l-2.8,3.53c-3.76,3.86-11.58,9.46-25.21,9.14-20.32-.48-29.15-18.1-34.3-39.5l9.7-7.55a66.37,66.37,0,0,1,23.26-26.18c27.84-18.77,65-18.91,65-18.91Z" transform="translate(0.68 0.68)"/><path class="cls-1" d="M572.81,263.94,524.93,308.3h0l-2.8,3.53c-3.76,3.86-11.58,9.46-25.21,9.14-20.32-.48-29.15-18.1-34.3-39.5l9.7-7.55a66.37,66.37,0,0,1,23.26-26.18c27.84-18.77,65-18.91,65-18.91Z" transform="translate(0.68 0.68)"/><path class="cls-2" d="M522.13,311.84c-3.76,3.86-11.58,9.46-25.21,9.14-20.32-.48-29.15-18.1-34.3-39.5-.1-.4-.2-.8-.29-1.21q-.6-2.58-1.2-5.27c-.22-1-.43-2-.65-3-.18-.8-.35-1.61-.53-2.42s-.37-1.75-.55-2.63c-.36-1.68-.71-3.37-1-5-.1-.53-.21-1.06-.32-1.59,0-.23-.09-.46-.14-.68s-.13-.69-.21-1c-.12-.64-.25-1.27-.37-1.9l-.27-1.34c-.11-.53-.21-1.06-.31-1.59s-.19-.92-.27-1.38-.14-.69-.21-1l-.05-.25c-.06-.3-.11-.59-.17-.87a.13.13,0,0,0,0-.06c-.07-.4-.15-.78-.22-1.17s-.14-.69-.2-1l-.21-1.12c7.2.43,19.55-1.17,34-12.89h0c.09.19.18.39.28.59l.4.9c.11.24.22.49.34.74l2.5,5.55,2.66,6C503.56,265.71,514.27,290.6,522.13,311.84Z" transform="translate(0.68 0.68)"/><path class="cls-1" d="M522.13,311.84c-3.76,3.86-11.58,9.46-25.21,9.14-20.32-.48-29.15-18.1-34.3-39.5-.1-.4-.2-.8-.29-1.21q-.6-2.58-1.2-5.27c-.22-1-.43-2-.65-3-.18-.8-.35-1.61-.53-2.42s-.37-1.75-.55-2.63c-.36-1.68-.71-3.37-1-5-.1-.53-.21-1.06-.32-1.59,0-.23-.09-.46-.14-.68s-.13-.69-.21-1c-.12-.64-.25-1.27-.37-1.9l-.27-1.34c-.11-.53-.21-1.06-.31-1.59-.48-2.41-.93-4.74-1.34-6.92,7.2.43,19.55-1.17,34-12.89,1.73,3.8,3.84,8.48,6.18,13.74,2.7,6.08,5.72,13,8.84,20.23" transform="translate(0.68 0.68)"/><path class="cls-4" d="M492.92,241.79c-13.1,10.82-29.34,12.05-36.19,12-.09-.46-.19-.92-.27-1.38l-.21-1-.05-.25c-.05-.3-.11-.59-.17-.87a.13.13,0,0,0,0-.06c-.07-.4-.15-.78-.22-1.17s-.13-.69-.2-1l-.21-1.12c7.2.43,19.55-1.17,34-12.89.09.19.18.39.28.59l.4.9c.11.24.22.49.34.74Z" transform="translate(0.68 0.68)"/><path class="cls-1" d="M492.92,241.79c-13.1,10.82-29.34,12.05-36.19,12-.09-.46-.19-.92-.27-1.38l-.21-1-.05-.25c-.05-.3-.11-.59-.17-.87a.13.13,0,0,0,0-.06c-.07-.4-.15-.78-.22-1.17s-.13-.69-.2-1l-.21-1.12c7.2.43,19.55-1.17,34-12.89.09.19.18.39.28.59l.4.9c.11.24.22.49.34.74Z" transform="translate(0.68 0.68)"/><path class="cls-3" d="M448.81,224.94c-1,3.46,2.44,16.7,10,15.11s.88-16.58-3.29-18.77C453,219.94,449.42,222.87,448.81,224.94Z" transform="translate(0.68 0.68)"/><path class="cls-1" d="M448.81,224.94c-1,3.46,2.44,16.7,10,15.11s.88-16.58-3.29-18.77C453,219.94,449.42,222.87,448.81,224.94Z" transform="translate(0.68 0.68)"/><path class="cls-3" d="M485.2,224.83s-1.07-6.47-5.09-7-17.72,7.68-16.84,11.09,3.57,6.26,8.62,4.75S485.2,224.83,485.2,224.83Z" transform="translate(0.68 0.68)"/><path class="cls-1" d="M485.2,224.83s-1.07-6.47-5.09-7-17.72,7.68-16.84,11.09,3.57,6.26,8.62,4.75c2.47-.73,5.7-2.87,8.37-4.87" transform="translate(0.68 0.68)"/><path class="cls-2" d="M560.59,228.84s36.93-5.85,59.58,21.69,24.69,64.88,25.17,75.36l-134.54,0a92.72,92.72,0,0,1,3.41-49.72C523.67,249.76,560.59,228.84,560.59,228.84Z" transform="translate(0.68 0.68)"/><path class="cls-1" d="M560.59,228.84s36.93-5.85,59.58,21.69,24.69,64.88,25.17,75.36l-134.54,0a92.72,92.72,0,0,1,3.41-49.72" transform="translate(0.68 0.68)"/><path class="cls-1" d="M606.75,277.5s3.92,17.52,2.46,49.33" transform="translate(0.68 0.68)"/><path class="cls-4" d="M572.81,214.88v18.4s-3.32,5.95-11.75,5.95-11.76-5.95-11.76-5.95v-18.4Z" transform="translate(0.68 0.68)"/><path class="cls-1" d="M572.81,214.88v18.4s-3.32,5.95-11.75,5.95-11.76-5.95-11.76-5.95v-18.4Z" transform="translate(0.68 0.68)"/><path class="cls-3" d="M571,213v15.58s-2.81,5-10,5-10-5-10-5V213Z" transform="translate(0.68 0.68)"/><path class="cls-1" d="M571,213v15.58s-2.81,5-10,5-10-5-10-5V213Z" transform="translate(0.68 0.68)"/><path class="cls-2" d="M603.61,243.55c-8.28,9.42-26.31,9.75-33.05-3.42s.45-43.87.45-43.87l-26,.16s14.12,19.18,6.11,38.68C545,250,531.64,255,523,249.38h0a16.33,16.33,0,0,1-6.31-8.42c-5.85-16.25,9.58-23.57,15.27-29.58s2.76-18.69,2.43-29.41,6.52-30.64,24.77-31.52c16.81-.82,29.63,14.95,27.85,37.69s5.52,26.49,10.06,30.07S611.89,234.12,603.61,243.55Z" transform="translate(0.68 0.68)"/><path class="cls-3" d="M536.54,202.77c1.21,11.62-11.37,17.55-15.26,23.22s-4.55,14.95,1.76,23.38a16.33,16.33,0,0,1-6.31-8.42c-5.85-16.25,9.58-23.57,15.27-29.58s2.76-18.69,2.43-29.41,6.52-30.64,24.77-31.52C534,155.62,535.34,191.14,536.54,202.77Z" transform="translate(0.68 0.68)"/><path class="cls-1" d="M559.2,150.44c-18.25.88-25.09,20.8-24.77,31.52s3.25,23.4-2.43,29.41S510.88,224.7,516.73,241s26.35,13.65,34.37-5.85S545,196.42,545,196.42l26-.16s-7.18,30.71-.45,43.87,24.77,12.84,33.05,3.42-2-21.78-6.5-25.35-11.85-7.32-10.06-30.07S576,149.62,559.2,150.44Z" transform="translate(0.68 0.68)"/><path class="cls-3" d="M580.62,194.35c0,14.17-9,24.94-20,24.94s-20-10.77-20-24.94,9-27.87,20-27.87S580.62,180.17,580.62,194.35Z" transform="translate(0.68 0.68)"/><path class="cls-1" d="M580.62,194.35c0,14.17-9,24.94-20,24.94s-20-10.77-20-24.94,9-27.87,20-27.87S580.62,180.17,580.62,194.35Z" transform="translate(0.68 0.68)"/><path class="cls-2" d="M553.08,193.56h-2.2v-3.43A1.11,1.11,0,0,1,552,189h0a1.11,1.11,0,0,1,1.1,1.11Z" transform="translate(0.68 0.68)"/><path class="cls-2" d="M565.59,184.39c.11,1.25,6.62,2,6.81.59S565.44,182.64,565.59,184.39Z" transform="translate(0.68 0.68)"/><path class="cls-2" d="M568.68,193.56h-2.2v-3.43a1.11,1.11,0,0,1,1.1-1.11h0a1.11,1.11,0,0,1,1.1,1.11Z" transform="translate(0.68 0.68)"/><path class="cls-1" d="M566.18,193.56a2.51,2.51,0,0,1,2.81,0" transform="translate(0.68 0.68)"/><path class="cls-7" d="M553.94,184.13c0,1.25-6.44,2.54-6.74,1.12S554,182.37,553.94,184.13Z" transform="translate(0.68 0.68)"/><path class="cls-1" d="M553.39,193.56a2.51,2.51,0,0,0-2.81,0" transform="translate(0.68 0.68)"/><path class="cls-1" d="M558.9,200s-.46,2.35,1.82,2.11,2.34-2.69.7-2.75" transform="translate(0.68 0.68)"/><path class="cls-2" d="M567.15,168.13s-7.87,22.35-27.85,24.75c0,0-5-33.18,19.9-35s23.14,34.73,23.14,34.73S575.19,191.84,567.15,168.13Z" transform="translate(0.68 0.68)"/><path class="cls-1" d="M567.15,168.13s-7.87,22.35-27.85,24.75c0,0-5-33.18,19.9-35s23.14,34.73,23.14,34.73S575.19,191.84,567.15,168.13Z" transform="translate(0.68 0.68)"/><path class="cls-3" d="M578.71,192.64s1.79-3,6.9-1.5,3.66,14.63-6.9,11.78Z" transform="translate(0.68 0.68)"/><path class="cls-1" d="M580,191.44c1.07-.64,2.85-1.13,5.59-.3,5,1.51,3.72,14.05-6.21,12" transform="translate(0.68 0.68)"/><path class="cls-1" d="M581.69,195.58a2.93,2.93,0,0,1,4.54,1.43" transform="translate(0.68 0.68)"/><line class="cls-1" x1="584.15" y1="199.44" x2="584.15" y2="195.66"/><path class="cls-2" d="M566.78,210.65a6.18,6.18,0,0,1-2,.22c-2.14-.09-4.3-1.13-4.16-2.75.21-2.6,4.9-1.79,6.15-3.74s3.78-2.35,4.23,0a.5.5,0,0,1,0,.12C571.43,206.84,570.42,209.6,566.78,210.65Z" transform="translate(0.68 0.68)"/><path class="cls-1" d="M566.78,210.65a6.18,6.18,0,0,1-2,.22c-2.14-.09-4.3-1.13-4.16-2.75.21-2.6,4.9-1.79,6.15-3.74s3.78-2.35,4.23,0a.5.5,0,0,1,0,.12C571.43,206.84,570.42,209.6,566.78,210.65Z" transform="translate(0.68 0.68)"/><path class="cls-3" d="M566.78,210.65a6.18,6.18,0,0,1-2,.22c-.32-1.85-.48-4.21,1.39-4.78,1.47-.45,2.29-2.62,4.85-1.59C571.43,206.84,570.42,209.6,566.78,210.65Z" transform="translate(0.68 0.68)"/><path class="cls-3" d="M542.24,192.64s-1.78-3-6.9-1.5-3.65,14.63,6.9,11.78Z" transform="translate(0.68 0.68)"/><path class="cls-1" d="M541.91,192.64s-1.79-3-6.91-1.5-3.65,14.63,6.91,11.78" transform="translate(0.68 0.68)"/><path class="cls-1" d="M539.27,195.58a2.93,2.93,0,0,0-4.55,1.43" transform="translate(0.68 0.68)"/><line class="cls-1" x1="538.16" y1="199.44" x2="538.16" y2="195.66"/><path class="cls-4" d="M141.12,267.85v54.2H53.93V270.22a11.14,11.14,0,0,1,11.12-11.13h65.28a11.12,11.12,0,0,1,10.78,8.38C141.11,267.6,141.12,267.72,141.12,267.85Z" transform="translate(0.68 0.68)"/><path class="cls-1" d="M141.12,267.85v54.2H53.59v-54.2a11.14,11.14,0,0,1,11.12-11.13H130a11.13,11.13,0,0,1,11.12,10.75C141.11,267.6,141.12,267.72,141.12,267.85Z" transform="translate(0.68 0.68)"/><path d="M95.06,322.05H53.59V298.43C62.26,275,80.71,272,80.71,272a62.52,62.52,0,0,0,8,13.32c5.1,6.34,2.53,13.33,5.13,26.65A54.38,54.38,0,0,1,95.06,322.05Z" transform="translate(0.68 0.68)"/><path d="M97.35,259.09V270.7c-6.76-2.85-9.93-7.37-11.33-11.61Z" transform="translate(0.68 0.68)"/><path class="cls-3" d="M85.42,290.36v31.69H75.33a8.77,8.77,0,0,1-7.89-4.83,11.9,11.9,0,0,1-1.18-4.81V290.36Z" transform="translate(0.68 0.68)"/><path class="cls-1" d="M85.42,322.05H75.33a8.77,8.77,0,0,1-7.89-4.83,11.9,11.9,0,0,1-1.18-4.81V297.88" transform="translate(0.68 0.68)"/><path class="cls-3" d="M86.49,321.88H75.21a8.79,8.79,0,0,1-7.38-4l-.06-.08a8.74,8.74,0,0,1-1.35-4.71v-21l14.45.12,5,0Z" transform="translate(0.68 0.68)"/><path class="cls-3" d="M207.37,310.1s4-1.46,6.42-.32,6.25,6.42,6.33,7.55-2.76,2.36-5.11.41S207.37,310.1,207.37,310.1Z" transform="translate(0.68 0.68)"/><path class="cls-1" d="M207.37,310.1s4-1.46,6.42-.32,6.25,6.42,6.33,7.55-2.76,2.36-5.11.41S207.37,310.1,207.37,310.1Z" transform="translate(0.68 0.68)"/><path class="cls-3" d="M200.23,310.26s1.87-3.25,5-2.76,10,7.07,10.82,8.26c1.36,2.06-1.61,5.13-4.74,4.73s-10.38-7-10.38-7Z" transform="translate(0.68 0.68)"/><path class="cls-1" d="M200.23,310.26s1.87-3.25,5-2.76,10,7.07,10.82,8.26c1.36,2.06-1.61,5.13-4.74,4.73s-10.38-7-10.38-7Z" transform="translate(0.68 0.68)"/><path class="cls-4" d="M162.88,322.05H85.74l-.48-12.52c-8.29-11-21.44-12-21.44-12-.16-3.25,3.9-17.88,15.75-27,6.17-4.73,16.18-6.43,24.36-7a102.11,102.11,0,0,1,13.54,0,70.72,70.72,0,0,1,13.74,2.8C170.86,278.86,162.88,322.05,162.88,322.05Z" transform="translate(0.68 0.68)"/><path class="cls-1" d="M162.88,322.05H85.74l-.48-12.52c-8.29-11-21.44-12-21.44-12-.16-3.25,3.9-17.88,15.75-27,6.17-4.73,16.18-6.43,24.36-7a102.11,102.11,0,0,1,13.54,0,70.72,70.72,0,0,1,13.74,2.8C170.86,278.86,162.88,322.05,162.88,322.05Z" transform="translate(0.68 0.68)"/><path class="cls-3" d="M141.12,312s-1.46,8.29-1.46,10.08h44l13.47-6.67s6.82,4.55,9.26,5.2c0,0,5,.82,3.9-4.38,0,0-12.1-9.51-14.54-10.49s-10.39,1.55-15.51,4.64l-17.86-5.45Z" transform="translate(0.68 0.68)"/><path class="cls-1" d="M141.12,312s-1.46,8.29-1.46,10.08h44l13.47-6.67s6.82,4.55,9.26,5.2c0,0,5,.82,3.9-4.38,0,0-12.1-9.51-14.54-10.49s-10.39,1.55-15.51,4.64l-17.86-5.45Z" transform="translate(0.68 0.68)"/><line class="cls-1" x1="140.33" y1="298.67" x2="141.8" y2="312.65"/><path d="M131.21,266.35V272a9.59,9.59,0,0,1-2.7,6.72,15,15,0,0,1-11,4.51c-5.76,0-9.15-2.13-11.09-4.24a9.46,9.46,0,0,1-2.45-6.44v-9a102.11,102.11,0,0,1,13.54,0A70.72,70.72,0,0,1,131.21,266.35Z" transform="translate(0.68 0.68)"/><path class="cls-3" d="M175.55,318.06s5.35,4.7,10,5.69,9.41-2.29,9.1-4.63-12.91-4.87-12.91-4.87Z" transform="translate(0.68 0.68)"/><path class="cls-1" d="M177.51,319.62c2,1.46,5.14,3.51,8,4.13,4.63,1,9.41-2.29,9.1-4.63-.19-1.39-4.75-2.86-8.39-3.81" transform="translate(0.68 0.68)"/><path class="cls-3" d="M126.26,256.72v14a4.58,4.58,0,0,1-2,3.78c-2.65,1.85-7.81,4.07-14.19-.07a4.66,4.66,0,0,1-2.12-3.9V256.72Z" transform="translate(0.68 0.68)"/><path class="cls-6" d="M126.26,256.72v14a4.58,4.58,0,0,1-2,3.78c-2.65,1.85-7.81,4.07-14.19-.07a4.66,4.66,0,0,1-2.12-3.9V256.72Z" transform="translate(0.68 0.68)"/><path class="cls-3" d="M132.55,242.72c0,11.36-7.18,20-16.05,20s-16-8.62-16-20,7.18-22.32,16-22.32S132.55,231.36,132.55,242.72Z" transform="translate(0.68 0.68)"/><path class="cls-1" d="M132.55,242.72c0,11.36-7.18,20-16.05,20s-16-8.62-16-20,7.18-22.32,16-22.32S132.55,231.36,132.55,242.72Z" transform="translate(0.68 0.68)"/><path d="M121.19,239.43c.76.65,4.89-2.6,4.19-3.52S120.11,238.52,121.19,239.43Z" transform="translate(0.68 0.68)"/><path d="M123,244.8h-1.77v-2.75a.88.88,0,0,1,.89-.88h0a.88.88,0,0,1,.88.88Z" transform="translate(0.68 0.68)"/><path d="M110.49,244.8h-1.76v-2.75a.87.87,0,0,1,.88-.88h0a.87.87,0,0,1,.88.88Z" transform="translate(0.68 0.68)"/><path class="cls-6" d="M121,244.8a2,2,0,0,1,2.25,0" transform="translate(0.68 0.68)"/><path d="M110.66,239.27c-.71.7-5.08-2.22-4.45-3.19S111.67,238.28,110.66,239.27Z" transform="translate(0.68 0.68)"/><path class="cls-6" d="M110.74,244.8a2,2,0,0,0-2.25,0" transform="translate(0.68 0.68)"/><path class="cls-6" d="M115.15,247.25s-.37,1.88,1.46,1.69,1.87-2.16.56-2.2" transform="translate(0.68 0.68)"/><path class="cls-1" d="M136.43,238.63c3.33,1.68,2.37,10.17-4.37,9.56" transform="translate(0.68 0.68)"/><path class="cls-1" d="M132.74,244a2,2,0,0,1,3.25.41" transform="translate(0.68 0.68)"/><path d="M110.28,250.36a8.21,8.21,0,0,0,6.76,3.36s-3.16,3.71-6.3,1.64C108.74,254.05,110.28,250.36,110.28,250.36Z" transform="translate(0.68 0.68)"/><path class="cls-1" d="M110.28,250.36a8.21,8.21,0,0,0,6.76,3.36s-3.16,3.71-6.3,1.64C108.74,254.05,110.28,250.36,110.28,250.36Z" transform="translate(0.68 0.68)"/><ellipse class="cls-1" cx="125.01" cy="241.17" rx="7.54" ry="7.54" transform="translate(-115.8 366.23) rotate(-89.85)"/><ellipse class="cls-1" cx="108" cy="241.17" rx="7.54" ry="7.54" transform="translate(-132.77 349.23) rotate(-89.86)"/><path class="cls-3" d="M110.75,268.42c-.81,6.5-5.68,23.24-12.34,37.86s-11.86,15.6-11.86,15.6H75.21a8.79,8.79,0,0,1-7.38-4l-.06-.08a8.74,8.74,0,0,1-1.35-4.71v-1.62c4.34-5.94,9.63-12.94,14.45-19.24,7.42-9.7,13.72-17.75,13.72-17.75s.49-7.72,0-9-5-8.13-5.9-10.08-1.65-12.51-.59-14.7A2.09,2.09,0,0,1,91,239.5l3.33,5.85s3.49-4.31,5-6.34,4.47-1.79,5.12,1.71-2.11,5.76-2,6.9.32,3.58,4,7.72S111.56,261.92,110.75,268.42Z" transform="translate(0.68 0.68)"/><path class="cls-1" d="M70.34,306.2c3.4-4.57,7.09-9.43,10.53-13.93,7.42-9.7,13.72-17.75,13.72-17.75s.49-7.72,0-9-5-8.13-5.9-10.08-1.65-12.51-.59-14.7A2.09,2.09,0,0,1,91,239.5l3.33,5.85s3.49-4.31,5-6.34,4.47-1.79,5.12,1.71-2.11,5.76-2,6.9.32,3.58,4,7.72,5.11,6.58,4.3,13.08-5.68,23.24-12.34,37.86-11.86,15.6-11.86,15.6H75.21a8.79,8.79,0,0,1-7.38-4l-.06-.08a8.74,8.74,0,0,1-1.35-4.71v-1.62" transform="translate(0.68 0.68)"/><path d="M133.61,242.87l-.85-3.17c-6.95-4.14-8.16-8.65-8.16-8.65s-3.42,6.46-7.8,6.46-4.75-3.28-4.75-3.28c-8.77,6.3-18.33,5.41-20.6-.12h0a7.31,7.31,0,0,1-.47-3.43c.73-8.41,8.77-9.26,8.77-9.26s-2.84-3.16-3.07-6.37c-.15-2,.74-4.06,4-5.33,8.42-3.25,16.73,2.42,16.93,2.56h0c-.06-.2-1.13-3.91,2.07-4.62s6.58,7.4,6.58,7.4,2.8-4,4.38-3.5-1.46,4.14-1.46,4.14c5.85-.85,8.65,1.22,9.75,12.19S133.61,242.87,133.61,242.87Z" transform="translate(0.68 0.68)"/><path class="cls-3" d="M117.65,212.28c-14.61-4.27-21,2.77-21,2.77-.15-2,.74-4.06,4-5.33,8.42-3.25,16.73,2.42,16.93,2.56Z" transform="translate(0.68 0.68)"/><path class="cls-3" d="M91.45,234.11h0a7.31,7.31,0,0,1-.47-3.43c.73-8.41,8.77-9.26,8.77-9.26l.71.36C90.81,224.47,91.45,234.11,91.45,234.11Z" transform="translate(0.68 0.68)"/><path class="cls-1" d="M133.61,242.87s6.45-4,5.36-15-3.9-13-9.75-12.19c0,0,3.05-3.65,1.46-4.14s-4.38,3.5-4.38,3.5-3.29-8.13-6.58-7.4-2.07,4.63-2.07,4.63-8.4-5.85-16.93-2.56-1,11.7-1,11.7-8,.85-8.77,9.26,10.72,11,21.07,3.54c0,0,.37,3.29,4.75,3.29s7.8-6.46,7.8-6.46,1.21,4.51,8.16,8.65Z" transform="translate(0.68 0.68)"/><path class="cls-3" d="M93.55,254s-2.6-3.74-2.92-6.34-.1-10.25.63-11.84c.63-1.37,3-2.6,4.67-1a2.4,2.4,0,0,1,.66,1.75c-.09,2.57-.33,10.74,0,12a6.35,6.35,0,0,0,2,2.68Z" transform="translate(0.68 0.68)"/><path class="cls-1" d="M93.55,254s-2.6-3.74-2.92-6.34-.1-10.25.63-11.84c.63-1.37,3-2.6,4.67-1a2.4,2.4,0,0,1,.66,1.75c-.09,2.57-.33,10.74,0,12a6.35,6.35,0,0,0,2,2.68" transform="translate(0.68 0.68)"/><path class="cls-1" d="M86.49,321.88H75.21a8.79,8.79,0,0,1-7.38-4l-.06-.08a8.74,8.74,0,0,1-1.35-4.71V297.88" transform="translate(0.68 0.68)"/><rect class="cls-4" x="518.39" y="305.58" width="180.29" height="99.81" rx="7.03"/><path class="cls-1" d="M682.86,400.31H516.61a7,7,0,0,1-7-7V307.52a7,7,0,0,1,7-7H682.86a7,7,0,0,1,7,7v85.77A7,7,0,0,1,682.86,400.31Z" transform="translate(0.68 0.68)"/><line class="cls-8" x1="555.08" y1="332.94" x2="662.14" y2="332.94"/><line class="cls-8" x1="555.08" y1="357.79" x2="662.14" y2="357.79"/><line class="cls-8" x1="555.08" y1="382.63" x2="662.14" y2="382.63"/></g></svg>