<svg xmlns="http://www.w3.org/2000/svg" xmlns:xlink="http://www.w3.org/1999/xlink" width="48" height="48" viewBox="0 0 48 48">
  <defs>
    <clipPath id="clip-path">
      <rect id="Rectangle_51" data-name="Rectangle 51" width="48" height="48" transform="translate(1128 8049)" fill="#118ab2"/>
    </clipPath>
  </defs>
  <g id="Mask_Group_30" data-name="Mask Group 30" transform="translate(-1128 -8049)" clip-path="url(#clip-path)">
    <g id="Layer_2" data-name="Layer 2" transform="translate(1128 8049)">
      <g id="invisible_box" data-name="invisible box">
        <rect id="Rectangle_132" data-name="Rectangle 132" width="48" height="48" fill="none"/>
      </g>
      <g id="Q3_icons" data-name="Q3 icons">
        <path id="Path_223" data-name="Path 223" d="M21.5,10.6,9.6,22.6a1.9,1.9,0,0,0,0,2.8l11.9,12a2.1,2.1,0,0,0,2.7.2,1.9,1.9,0,0,0,.2-3L15.8,26H37a2,2,0,0,0,0-4H15.8l8.6-8.6a1.9,1.9,0,0,0-.2-3,2.1,2.1,0,0,0-2.7.2Z" fill="#118ab2"/>
      </g>
    </g>
  </g>
</svg>
