<svg xmlns="http://www.w3.org/2000/svg" xmlns:xlink="http://www.w3.org/1999/xlink" width="48" height="48" viewBox="0 0 48 48"><link xmlns="" type="text/css" rel="stylesheet" id="dark-mode-custom-link"/><link xmlns="" type="text/css" rel="stylesheet" id="dark-mode-general-link"/><style xmlns="" lang="en" type="text/css" id="dark-mode-custom-style"/><style xmlns="" lang="en" type="text/css" id="dark-mode-native-style"/>
  <defs>
    <clipPath id="clip-path">
      <rect id="Rectangle_51" data-name="Rectangle 51" width="48" height="48" transform="translate(744 8049)" fill="#118ab2"/>
    </clipPath>
  </defs>
  <g id="Mask_Group_36" data-name="Mask Group 36" transform="translate(-744 -8049)" clip-path="url(#clip-path)">
    <g id="Layer_2" data-name="Layer 2" transform="translate(744 8049)">
      <g id="invisible_box" data-name="invisible box">
        <rect id="Rectangle_153" data-name="Rectangle 153" width="48" height="48" fill="none"/>
      </g>
      <g id="icons_Q2" data-name="icons Q2">
        <path id="Path_235" data-name="Path 235" d="M30.9,28.1a14.8,14.8,0,0,0,3-10.9A15.2,15.2,0,0,0,20.1,4a15.025,15.025,0,1,0-3,29.9,15.3,15.3,0,0,0,11-2.9L40.6,43.4a1.9,1.9,0,0,0,2.8,0h0a1.9,1.9,0,0,0,0-2.8ZM20.8,29.9A11,11,0,0,1,8.2,17.1a10.8,10.8,0,0,1,8.9-8.9A10.9,10.9,0,0,1,29.8,20.9a11.1,11.1,0,0,1-9,9Z" fill="#fbfbfb"/>
      </g>
    </g>
  </g>
</svg>