<svg xmlns="http://www.w3.org/2000/svg" xmlns:xlink="http://www.w3.org/1999/xlink" width="48" height="48" viewBox="0 0 48 48">
  <defs>
    <clipPath id="clip-path">
      <rect id="Rectangle_51" data-name="Rectangle 51" width="48" height="48" transform="translate(488 8049)" fill="#118ab2"/>
    </clipPath>
  </defs>
  <g id="Mask_Group_46" data-name="Mask Group 46" transform="translate(-488 -8049)" clip-path="url(#clip-path)">
    <g id="Layer_2" data-name="Layer 2" transform="translate(488 8049)">
      <g id="invisible_box" data-name="invisible box">
        <rect id="Rectangle_227" data-name="Rectangle 227" width="48" height="48" fill="none"/>
      </g>
      <g id="icons_Q2" data-name="icons Q2">
        <path id="Path_287" data-name="Path 287" d="M24,9.5l3.9,8,1,1.8,2,.3,8.8,1.3-6.3,6.2-1.5,1.4.3,2.1,1.5,8.7-7.8-4.1-1.9-1-1.9,1-7.8,4.1,1.5-8.7.3-2.1-1.5-1.4L8.3,20.9l8.8-1.3,2-.3,1-1.8,3.9-8M24,3a2.1,2.1,0,0,0-1.8,1.1L16.5,15.7,3.7,17.5A2.1,2.1,0,0,0,2.6,21l9.2,8.9L9.7,42.7A2,2,0,0,0,11.6,45l1-.2,11.4-6,11.4,6,1,.2a2,2,0,0,0,1.9-2.3L36.2,29.9,45.4,21a2.1,2.1,0,0,0-1.1-3.5L31.5,15.7,25.8,4.1A2.1,2.1,0,0,0,24,3Z" fill="#118ab2"/>
      </g>
    </g>
  </g>
</svg>
