<svg xmlns="http://www.w3.org/2000/svg" xmlns:xlink="http://www.w3.org/1999/xlink" width="24" height="24" viewBox="0 0 24 24">
  <defs>
    <clipPath id="clip-path">
      <rect id="Rectangle_127" data-name="Rectangle 127" width="24" height="24" transform="translate(-0.178)" fill="#878787" stroke="#707070" stroke-width="1"/>
    </clipPath>
  </defs>
  <g id="Mask_Group_28" data-name="Mask Group 28" transform="translate(0.178)" clip-path="url(#clip-path)">
    <path id="_007-twitter" data-name="007-twitter" d="M21.182,3.144,21.17,3.1A5.086,5.086,0,0,0,23.376.329a10.254,10.254,0,0,1-3.192,1.22A4.739,4.739,0,0,0,16.664,0a4.967,4.967,0,0,0-4.976,4.929,9.22,9.22,0,0,0,.08,1.176A14.048,14.048,0,0,1,5.062,3.787a12.962,12.962,0,0,1-2.776-2.4.939.939,0,0,0-1.665.723A14.687,14.687,0,0,0,2.834,7.637a2.488,2.488,0,0,1-.691-.2.92.92,0,0,0-1.051.081A.945.945,0,0,0,.8,8.554a6.85,6.85,0,0,0,3.871,3.8,4.8,4.8,0,0,1-1.224.183H3.427a.939.939,0,0,0-.574,1.682,10.109,10.109,0,0,0,3.607,1.6,6.653,6.653,0,0,1-2.7.758,9.257,9.257,0,0,1-2.593-.159.939.939,0,0,0-.586,1.778,19.446,19.446,0,0,0,6.558,1.387,18.321,18.321,0,0,0,5.4-.656,11.3,11.3,0,0,0,4.892-2.955.939.939,0,1,0-1.335-1.321C13.582,17.177,10.7,17.7,7.135,17.7q-.125,0-.25,0A7.018,7.018,0,0,0,9.41,15.757a.939.939,0,0,0-.7-1.533,9.106,9.106,0,0,1-2.559-.45A4.123,4.123,0,0,0,7.6,12.58a.939.939,0,0,0-.585-1.487,6.439,6.439,0,0,1-3.3-1.542,6.568,6.568,0,0,0,1.251-.19.939.939,0,0,0,.424-1.587A9.272,9.272,0,0,1,3.481,4.979q.232.166.483.333a16.141,16.141,0,0,0,8.945,2.715.94.94,0,0,0,.906-1.185,8.4,8.4,0,0,1-.249-1.914,3,3,0,0,1,.908-2.15,3.1,3.1,0,0,1,2.19-.9,2.861,2.861,0,0,1,2.152.956,3.729,3.729,0,0,1,.9,2.136v.569a.553.553,0,0,0,.007.079.976.976,0,0,0-.007.109,12.9,12.9,0,0,1-1.174,5.647.939.939,0,1,0,1.691.817,14.753,14.753,0,0,0,1.361-6.464.955.955,0,0,0-.006-.106.626.626,0,0,0,.006-.082V4.882a10.2,10.2,0,0,0,2.441-2.629,10.39,10.39,0,0,1-2.852.891Zm0,0" transform="translate(0 2.23)" fill="#878787"/>
  </g>
</svg>
