<svg xmlns="http://www.w3.org/2000/svg" xmlns:xlink="http://www.w3.org/1999/xlink" width="32" height="32" viewBox="0 0 32 32"><defs><clipPath id="a"><rect width="32" height="32" transform="translate(0 -0.097)" fill="#878787"/></clipPath></defs><g transform="translate(0 0.097)" clip-path="url(#a)"><g transform="translate(0 0)"><rect width="32" height="32" transform="translate(0 -0.097)" fill="none"/><g transform="translate(2.639 4.477)"><path d="M29.734,11.279h-1.32V7.32A1.32,1.32,0,0,0,27.094,6H7.959A3.959,3.959,0,0,0,4,9.959V25.8a3.959,3.959,0,0,0,3.959,3.959H29.734a1.32,1.32,0,0,0,1.32-1.32V12.6A1.32,1.32,0,0,0,29.734,11.279ZM7.959,8.639H25.775v2.639H8.025a1.386,1.386,0,0,1-1.386-1.122,1.32,1.32,0,0,1,1.32-1.518Zm20.455,7.918H20.5a1.32,1.32,0,0,0-1.32,1.32v5.279a1.32,1.32,0,0,0,1.32,1.32h7.918v2.639H7.959a1.32,1.32,0,0,1-1.32-1.32V13.918H28.414Zm-3.959,3.959a1.32,1.32,0,1,1-1.32-1.32A1.32,1.32,0,0,1,24.455,20.516Z" transform="translate(-4 -6)" fill="#878787"/></g></g></g></svg>