<svg xmlns="http://www.w3.org/2000/svg" xmlns:xlink="http://www.w3.org/1999/xlink" width="64" height="64" viewBox="0 0 64 64"><defs><linearGradient id="a" x1="0.05" y1="0.048" x2="0.942" y2="0.959" gradientUnits="objectBoundingBox"><stop offset="0" stop-color="#118ab2"/><stop offset="1" stop-color="#118ab2" stop-opacity="0.251"/></linearGradient><clipPath id="b"><rect width="64" height="64" transform="translate(232 8173)" fill="url(#a)"/></clipPath></defs><g transform="translate(-232 -8173)" opacity="0.2" clip-path="url(#b)"><g transform="translate(232 8173)"><rect width="64" height="64" fill="none"/><g transform="translate(5.335 8.002)"><path d="M14858.667-11765.991a8,8,0,0,1-8-8V-11806a8,8,0,0,1,8-8.006h38.675a2.669,2.669,0,0,1,2.668,2.667v8.006h2.667a2.665,2.665,0,0,1,2.667,2.663v32.01a2.666,2.666,0,0,1-2.667,2.667Zm22.672-24v10.668a2.666,2.666,0,0,0,2.668,2.667h16v-16h-16A2.667,2.667,0,0,0,14881.339-11790Zm-24.715-17.758a2.687,2.687,0,0,0-.625,2.154,2.807,2.807,0,0,0,2.8,2.268h35.874v-5.335h-36.046A2.664,2.664,0,0,0,14856.624-11807.753Zm29.705,22.748a3,3,0,0,1,3-3,3,3,0,0,1,3,3,3,3,0,0,1-3,3A3,3,0,0,1,14886.329-11785Z" transform="translate(-14850.665 11814.002)" fill="url(#a)"/></g></g></g></svg>