<svg xmlns="http://www.w3.org/2000/svg" xmlns:xlink="http://www.w3.org/1999/xlink" width="64" height="64" viewBox="0 0 64 64"><defs><linearGradient id="a" x1="0.03" y1="0.023" x2="0.949" y2="0.985" gradientUnits="objectBoundingBox"><stop offset="0" stop-color="#b26f11"/><stop offset="1" stop-color="#b26f11" stop-opacity="0.251"/></linearGradient><clipPath id="b"><rect width="64" height="64" transform="translate(872 8049)" fill="url(#a)"/></clipPath></defs><g transform="translate(-872 -8049)" opacity="0.2" clip-path="url(#b)"><g transform="translate(872 8049)"><rect width="64" height="64" fill="none"/><g transform="translate(13.333 6.667)"><path d="M12.667,5A2.667,2.667,0,0,0,10,7.667V53a2.667,2.667,0,0,0,2.667,2.667A3.2,3.2,0,0,0,14.533,55L28.667,44.2,42.8,55a3.2,3.2,0,0,0,1.867.667A2.667,2.667,0,0,0,47.333,53V7.667A2.667,2.667,0,0,0,44.667,5Z" transform="translate(-10 -5)" fill="url(#a)"/></g></g></g></svg>