<svg xmlns="http://www.w3.org/2000/svg" xmlns:xlink="http://www.w3.org/1999/xlink" width="64" height="64" viewBox="0 0 64 64"><defs><linearGradient id="a" x1="0.044" y1="0.035" x2="0.829" y2="0.969" gradientUnits="objectBoundingBox"><stop offset="0" stop-color="#11b262"/><stop offset="1" stop-color="#11b262" stop-opacity="0.251"/></linearGradient><clipPath id="b"><rect width="64" height="64" transform="translate(488 8173)" fill="url(#a)"/></clipPath></defs><g transform="translate(-488 -8173)" opacity="0.2" clip-path="url(#b)"><g transform="translate(488 8173)"><rect width="64" height="64" fill="none"/><g transform="translate(3.978 3.978)"><path d="M57.769,12.283a4.376,4.376,0,0,0-3.05-1.326H14.272l-.53-4.509A3.978,3.978,0,0,0,9.763,3H5.652a2.652,2.652,0,1,0,0,5.3H8.57l4.244,35.673a7.824,7.824,0,0,0-3.846,6.763A7.957,7.957,0,0,0,16.924,58.7a8.222,8.222,0,0,0,7.559-5.3H38.54A8.222,8.222,0,0,0,46.1,58.7a7.957,7.957,0,0,0,0-15.914,8.222,8.222,0,0,0-7.559,5.3H24.483a7.957,7.957,0,0,0-6.5-5.172l-.265-2.785H51.271a3.978,3.978,0,0,0,3.846-3.448L58.7,15.731a4.774,4.774,0,0,0-.928-3.448ZM48.752,50.741A2.652,2.652,0,1,1,46.1,48.089,2.652,2.652,0,0,1,48.752,50.741Zm-29.175,0a2.652,2.652,0,1,1-2.652-2.652A2.652,2.652,0,0,1,19.577,50.741Z" transform="translate(-3 -3)" fill="url(#a)"/></g></g></g></svg>