<svg xmlns="http://www.w3.org/2000/svg" xmlns:xlink="http://www.w3.org/1999/xlink" width="64" height="64" viewBox="0 0 64 64"><defs><linearGradient id="a" x1="0.135" y1="0.117" x2="0.937" y2="0.965" gradientUnits="objectBoundingBox"><stop offset="0" stop-color="#b26f11"/><stop offset="1" stop-color="#b26f11" stop-opacity="0.251"/></linearGradient><clipPath id="b"><rect width="64" height="64" transform="translate(1256 8297)" fill="url(#a)"/></clipPath></defs><g transform="translate(-1256 -8297)" opacity="0.2" clip-path="url(#b)"><g transform="translate(1256 8297)"><rect width="64" height="64" fill="none"/><g transform="translate(2.644 2.652)"><path d="M5738.712-11950.3v-26h8v26Zm13.012-.145v-26.458h17.2v22.488a3.966,3.966,0,0,1-3.966,3.97Zm-31.75,0a3.969,3.969,0,0,1-3.97-3.97v-22.488h17.2v26.458Zm31.75-31.75v-7.939h-5.29v7.939H5738.5v-7.939H5733.2v7.939h-19.845v-9.263a3.851,3.851,0,0,1,1.122-2.848,3.846,3.846,0,0,1,2.848-1.121h6.218a5.615,5.615,0,0,1-.53-1.323,9.273,9.273,0,0,1,.8-7.011,8.848,8.848,0,0,1,5.688-4.5,9.391,9.391,0,0,1,11.643,6.218l1.323,4.5,1.323-4.5a9.388,9.388,0,0,1,11.64-6.218,8.856,8.856,0,0,1,5.69,4.5,9.257,9.257,0,0,1,.792,7.011,5.445,5.445,0,0,1-.527,1.323h6.218a3.84,3.84,0,0,1,2.845,1.121,3.828,3.828,0,0,1,1.121,2.848v9.263Zm-2.909-18.256-1.456,5.024h5.555a4.1,4.1,0,0,0,3.969-2.909,3.841,3.841,0,0,0-.395-2.911,3.978,3.978,0,0,0-2.384-1.983,4.356,4.356,0,0,0-1.169-.16A4.364,4.364,0,0,0,5748.815-12000.454Zm-17.994-2.779a3.962,3.962,0,0,0-2.381,1.983,3.842,3.842,0,0,0-.4,2.911,4.1,4.1,0,0,0,3.97,2.909h5.558l-1.456-5.024a4.363,4.363,0,0,0-4.122-2.939A4.37,4.37,0,0,0,5730.821-12003.233Z" transform="translate(-5713.356 12008.652)" fill="url(#a)"/></g></g></g></svg>